<?xml version="1.0" encoding="UTF-8" standalone="no"?>
<!DOCTYPE svg PUBLIC "-//W3C//DTD SVG 1.1//EN"
 "http://www.w3.org/Graphics/SVG/1.1/DTD/svg11.dtd">
<!-- Generated by graphviz version 2.49.0 (20210828.1703)
 -->
<!-- Title: ATN Pages: 1 -->
<svg width="1161pt" height="163pt"
 viewBox="0.00 0.00 1161.00 162.50" xmlns="http://www.w3.org/2000/svg" xmlns:xlink="http://www.w3.org/1999/xlink">
<g id="graph0" class="graph" transform="scale(1 1) rotate(0) translate(4 158.5)">
<title>ATN</title>
<polygon fill="white" stroke="transparent" points="-4,4 -4,-158.5 1157,-158.5 1157,4 -4,4"/>
<!-- s74 -->
<g id="node1" class="node">
<title>s74</title>
<ellipse fill="none" stroke="black" cx="1127.5" cy="-129" rx="21.5" ry="21.5"/>
<ellipse fill="none" stroke="black" cx="1127.5" cy="-129" rx="25.5" ry="25.5"/>
<text text-anchor="middle" x="1127.5" y="-126.2" font-family="Times,serif" font-size="11.00">74</text>
</g>
<!-- s288 -->
<g id="node2" class="node">
<title>s288</title>
<ellipse fill="none" stroke="black" cx="295" cy="-76" rx="20" ry="20"/>
<text text-anchor="middle" x="295" y="-73.2" font-family="Times,serif" font-size="11.00">288</text>
</g>
<!-- s292 -->
<g id="node6" class="node">
<title>s292</title>
<polygon fill="none" stroke="black" points="358,-56 358,-96 416,-96 416,-56 358,-56"/>
<text text-anchor="middle" x="377.5" y="-79.2" font-family="Times,serif" font-size="11.00">292*</text>
<text text-anchor="middle" x="377.5" y="-67.2" font-family="Times,serif" font-size="11.00">d=12</text>
<polyline fill="none" stroke="black" points="397,-56 397,-96 "/>
<text text-anchor="middle" x="406.5" y="-83.2" font-family="Times,serif" font-size="11.00"> </text>
<polyline fill="none" stroke="black" points="397,-76 416,-76 "/>
<text text-anchor="middle" x="406.5" y="-63.2" font-family="Times,serif" font-size="11.00"> </text>
</g>
<!-- s288&#45;&gt;s292 -->
<g id="edge4" class="edge">
<title>s288&#45;&gt;s292</title>
<path fill="none" stroke="black" d="M315.09,-76C324.57,-76 336.38,-76 347.62,-76"/>
<polygon fill="black" stroke="black" points="347.71,-79.5 357.71,-76 347.71,-72.5 347.71,-79.5"/>
<text text-anchor="middle" x="336.5" y="-79.8" font-family="Times,serif" font-style="italic" font-size="14.00">ε</text>
</g>
<!-- s289 -->
<g id="node3" class="node">
<title>s289</title>
<ellipse fill="none" stroke="black" cx="562" cy="-20" rx="20" ry="20"/>
<text text-anchor="middle" x="562" y="-17.2" font-family="Times,serif" font-size="11.00">289</text>
</g>
<!-- s291 -->
<g id="node5" class="node">
<title>s291</title>
<ellipse fill="none" stroke="black" cx="645" cy="-26" rx="20" ry="20"/>
<text text-anchor="middle" x="645" y="-29.2" font-family="Times,serif" font-size="11.00">←</text>
<text text-anchor="middle" x="645" y="-17.2" font-family="Times,serif" font-size="11.00">291</text>
</g>
<!-- s289&#45;&gt;s291 -->
<g id="edge10" class="edge">
<title>s289&#45;&gt;s291</title>
<path fill="none" stroke="black" d="M582.2,-21.42C592.79,-22.21 606.1,-23.19 617.65,-24.05"/>
<polygon fill="black" stroke="black" points="617.78,-26.51 624.94,-24.59 618.14,-21.63 617.78,-26.51"/>
<text text-anchor="middle" x="603.5" y="-27.2" font-family="Courier,monospace" font-size="11.00">.</text>
</g>
<!-- s290 -->
<g id="node4" class="node">
<title>s290</title>
<ellipse fill="none" stroke="black" cx="479" cy="-26" rx="20" ry="20"/>
<text text-anchor="middle" x="479" y="-29.2" font-family="Times,serif" font-size="11.00">→</text>
<text text-anchor="middle" x="479" y="-17.2" font-family="Times,serif" font-size="11.00">290*</text>
</g>
<!-- s290&#45;&gt;s289 -->
<g id="edge8" class="edge">
<title>s290&#45;&gt;s289</title>
<path fill="none" stroke="black" d="M499.2,-24.58C508.88,-23.86 520.84,-22.98 531.64,-22.17"/>
<polygon fill="black" stroke="black" points="532.23,-25.64 541.94,-21.41 531.71,-18.66 532.23,-25.64"/>
<text text-anchor="middle" x="520.5" y="-27.8" font-family="Times,serif" font-style="italic" font-size="14.00">ε</text>
</g>
<!-- s294 -->
<g id="node8" class="node">
<title>s294</title>
<ellipse fill="none" stroke="black" cx="807" cy="-59" rx="20" ry="20"/>
<text text-anchor="middle" x="807" y="-56.2" font-family="Times,serif" font-size="11.00">294*</text>
</g>
<!-- s291&#45;&gt;s294 -->
<g id="edge12" class="edge">
<title>s291&#45;&gt;s294</title>
<path fill="none" stroke="black" d="M664.93,-28.37C689.23,-31.6 732.61,-38.04 769,-47 771.99,-47.73 775.08,-48.59 778.15,-49.49"/>
<polygon fill="black" stroke="black" points="777.12,-52.84 787.71,-52.49 779.21,-46.16 777.12,-52.84"/>
<text text-anchor="middle" x="726" y="-50.8" font-family="Times,serif" font-style="italic" font-size="14.00">ε</text>
</g>
<!-- s292&#45;&gt;s290 -->
<g id="edge6" class="edge">
<title>s292:p1&#45;&gt;s290</title>
<path fill="none" stroke="black" d="M416,-66C427.63,-66 424.59,-53.84 434,-47 439.09,-43.3 444.93,-39.98 450.66,-37.13"/>
<polygon fill="black" stroke="black" points="452.43,-40.16 460.04,-32.79 449.49,-33.81 452.43,-40.16"/>
<text text-anchor="middle" x="437.5" y="-50.8" font-family="Times,serif" font-style="italic" font-size="14.00">ε</text>
</g>
<!-- s293 -->
<g id="node7" class="node">
<title>s293</title>
<ellipse fill="none" stroke="black" cx="479" cy="-125" rx="20" ry="20"/>
<text text-anchor="middle" x="479" y="-122.2" font-family="Times,serif" font-size="11.00">293</text>
</g>
<!-- s292&#45;&gt;s293 -->
<g id="edge5" class="edge">
<title>s292:p0&#45;&gt;s293</title>
<path fill="none" stroke="black" d="M416,-86C424.48,-86 440.94,-96.58 454.77,-106.72"/>
<polygon fill="black" stroke="black" points="452.86,-109.66 462.95,-112.87 457.07,-104.06 452.86,-109.66"/>
<text text-anchor="middle" x="437.5" y="-99.8" font-family="Times,serif" font-style="italic" font-size="14.00">ε</text>
</g>
<!-- s296 -->
<g id="node10" class="node">
<title>s296</title>
<ellipse fill="none" stroke="black" cx="562" cy="-129" rx="20" ry="20"/>
<text text-anchor="middle" x="562" y="-138.2" font-family="Times,serif" font-size="11.00">→</text>
<text text-anchor="middle" x="562" y="-126.2" font-family="Times,serif" font-size="11.00">296</text>
<text text-anchor="middle" x="562" y="-114.2" font-family="Times,serif" font-size="11.00">d=13</text>
</g>
<!-- s293&#45;&gt;s296 -->
<g id="edge7" class="edge">
<title>s293&#45;&gt;s296</title>
<path fill="none" stroke="black" d="M499.2,-125.95C508.88,-126.43 520.84,-127.02 531.64,-127.55"/>
<polygon fill="black" stroke="black" points="531.78,-131.06 541.94,-128.06 532.13,-124.07 531.78,-131.06"/>
<text text-anchor="middle" x="520.5" y="-130.8" font-family="Times,serif" font-style="italic" font-size="14.00">ε</text>
</g>
<!-- s294&#45;&gt;s292 -->
<g id="edge14" class="edge">
<title>s294&#45;&gt;s292</title>
<path fill="none" stroke="black" stroke-dasharray="5,2" d="M786.86,-62.36C756.91,-67.31 697.12,-76 646,-76 478,-76 478,-76 478,-76 461.08,-76 442.37,-76 426.42,-76"/>
<polygon fill="black" stroke="black" points="426.37,-72.5 416.37,-76 426.37,-79.5 426.37,-72.5"/>
<text text-anchor="middle" x="562" y="-79.8" font-family="Times,serif" font-style="italic" font-size="14.00">ε</text>
</g>
<!-- s295 -->
<g id="node9" class="node">
<title>s295</title>
<ellipse fill="none" stroke="black" cx="645" cy="-129" rx="20" ry="20"/>
<text text-anchor="middle" x="645" y="-126.2" font-family="Times,serif" font-size="11.00">295</text>
</g>
<!-- s297 -->
<g id="node12" class="node">
<title>s297</title>
<ellipse fill="none" stroke="black" cx="807" cy="-129" rx="20" ry="20"/>
<text text-anchor="middle" x="807" y="-132.2" font-family="Times,serif" font-size="11.00">←</text>
<text text-anchor="middle" x="807" y="-120.2" font-family="Times,serif" font-size="11.00">297</text>
</g>
<!-- s295&#45;&gt;s297 -->
<g id="edge11" class="edge">
<title>s295&#45;&gt;s297</title>
<path fill="none" stroke="black" d="M665.3,-129C693.77,-129 747.12,-129 779.32,-129"/>
<polygon fill="black" stroke="black" points="779.63,-131.45 786.63,-129 779.63,-126.55 779.63,-131.45"/>
<text text-anchor="middle" x="726" y="-132.2" font-family="Courier,monospace" font-size="11.00">{&lt;EOF&gt;, &#39;\n&#39;}</text>
</g>
<!-- s296&#45;&gt;s295 -->
<g id="edge9" class="edge">
<title>s296&#45;&gt;s295</title>
<path fill="none" stroke="black" d="M582.2,-129C591.88,-129 603.84,-129 614.64,-129"/>
<polygon fill="black" stroke="black" points="614.94,-132.5 624.94,-129 614.94,-125.5 614.94,-132.5"/>
<text text-anchor="middle" x="603.5" y="-132.8" font-family="Times,serif" font-style="italic" font-size="14.00">ε</text>
</g>
<!-- s73 -->
<g id="node11" class="node">
<title>s73</title>
<ellipse fill="none" stroke="black" cx="20" cy="-76" rx="20" ry="20"/>
<text text-anchor="middle" x="20" y="-73.2" font-family="Times,serif" font-size="11.00">73</text>
</g>
<!-- s286 -->
<g id="node15" class="node">
<title>s286</title>
<ellipse fill="none" stroke="black" cx="103" cy="-76" rx="20" ry="20"/>
<text text-anchor="middle" x="103" y="-73.2" font-family="Times,serif" font-size="11.00">286</text>
</g>
<!-- s73&#45;&gt;s286 -->
<g id="edge1" class="edge">
<title>s73&#45;&gt;s286</title>
<path fill="none" stroke="black" d="M40.2,-76C49.88,-76 61.84,-76 72.64,-76"/>
<polygon fill="black" stroke="black" points="72.94,-79.5 82.94,-76 72.94,-72.5 72.94,-79.5"/>
<text text-anchor="middle" x="61.5" y="-79.8" font-family="Times,serif" font-style="italic" font-size="14.00">ε</text>
</g>
<!-- s298 -->
<g id="node13" class="node">
<title>s298</title>
<ellipse fill="none" stroke="black" cx="890" cy="-129" rx="20" ry="20"/>
<text text-anchor="middle" x="890" y="-126.2" font-family="Times,serif" font-size="11.00">298</text>
</g>
<!-- s297&#45;&gt;s298 -->
<g id="edge13" class="edge">
<title>s297&#45;&gt;s298</title>
<path fill="none" stroke="black" d="M827.2,-129C836.88,-129 848.84,-129 859.64,-129"/>
<polygon fill="black" stroke="black" points="859.94,-132.5 869.94,-129 859.94,-125.5 859.94,-132.5"/>
<text text-anchor="middle" x="848.5" y="-132.8" font-family="Times,serif" font-style="italic" font-size="14.00">ε</text>
</g>
<!-- s299 -->
<g id="node14" class="node">
<title>s299</title>
<ellipse fill="none" stroke="black" cx="1039" cy="-129" rx="20" ry="20"/>
<text text-anchor="middle" x="1039" y="-126.2" font-family="Times,serif" font-size="11.00">299</text>
</g>
<!-- s298&#45;&gt;s299 -->
<g id="edge15" class="edge">
<title>s298&#45;&gt;s299</title>
<path fill="none" stroke="black" d="M910.22,-129C936.19,-129 982.59,-129 1011.76,-129"/>
<polygon fill="black" stroke="black" points="1011.78,-131.45 1018.78,-129 1011.78,-126.55 1011.78,-131.45"/>
<text text-anchor="middle" x="964.5" y="-132.2" font-family="Courier,monospace" font-size="11.00">action_36:1</text>
</g>
<!-- s299&#45;&gt;s74 -->
<g id="edge16" class="edge">
<title>s299&#45;&gt;s74</title>
<path fill="none" stroke="black" d="M1059.2,-129C1068.7,-129 1080.48,-129 1091.51,-129"/>
<polygon fill="black" stroke="black" points="1091.76,-132.5 1101.76,-129 1091.76,-125.5 1091.76,-132.5"/>
<text text-anchor="middle" x="1080.5" y="-132.8" font-family="Times,serif" font-style="italic" font-size="14.00">ε</text>
</g>
<!-- s287 -->
<g id="node16" class="node">
<title>s287</title>
<ellipse fill="none" stroke="black" cx="199" cy="-76" rx="20" ry="20"/>
<text text-anchor="middle" x="199" y="-73.2" font-family="Times,serif" font-size="11.00">287</text>
</g>
<!-- s286&#45;&gt;s287 -->
<g id="edge2" class="edge">
<title>s286&#45;&gt;s287</title>
<path fill="none" stroke="black" d="M123.02,-76C136.95,-76 156.02,-76 171.44,-76"/>
<polygon fill="black" stroke="black" points="171.68,-78.45 178.68,-76 171.68,-73.55 171.68,-78.45"/>
<text text-anchor="middle" x="151" y="-79.2" font-family="Courier,monospace" font-size="11.00">&#39;/&#39;</text>
</g>
<!-- s287&#45;&gt;s288 -->
<g id="edge3" class="edge">
<title>s287&#45;&gt;s288</title>
<path fill="none" stroke="black" d="M219.02,-76C232.95,-76 252.02,-76 267.44,-76"/>
<polygon fill="black" stroke="black" points="267.68,-78.45 274.68,-76 267.68,-73.55 267.68,-78.45"/>
<text text-anchor="middle" x="247" y="-79.2" font-family="Courier,monospace" font-size="11.00">&#39;/&#39;</text>
</g>
</g>
</svg>
