<?xml version="1.0" encoding="UTF-8" standalone="no"?>
<!DOCTYPE svg PUBLIC "-//W3C//DTD SVG 1.1//EN"
 "http://www.w3.org/Graphics/SVG/1.1/DTD/svg11.dtd">
<!-- Generated by graphviz version 2.49.0 (20210828.1703)
 -->
<!-- Title: ATN Pages: 1 -->
<svg width="368pt" height="59pt"
 viewBox="0.00 0.00 368.00 59.00" xmlns="http://www.w3.org/2000/svg" xmlns:xlink="http://www.w3.org/1999/xlink">
<g id="graph0" class="graph" transform="scale(1 1) rotate(0) translate(4 55)">
<title>ATN</title>
<polygon fill="white" stroke="transparent" points="-4,4 -4,-55 364,-55 364,4 -4,4"/>
<!-- s98 -->
<g id="node1" class="node">
<title>s98</title>
<ellipse fill="none" stroke="black" cx="334.5" cy="-25.5" rx="21.5" ry="21.5"/>
<ellipse fill="none" stroke="black" cx="334.5" cy="-25.5" rx="25.5" ry="25.5"/>
<text text-anchor="middle" x="334.5" y="-22.7" font-family="Times,serif" font-size="11.00">98</text>
</g>
<!-- s97 -->
<g id="node2" class="node">
<title>s97</title>
<ellipse fill="none" stroke="black" cx="20" cy="-25.5" rx="20" ry="20"/>
<text text-anchor="middle" x="20" y="-22.7" font-family="Times,serif" font-size="11.00">97</text>
</g>
<!-- s327 -->
<g id="node3" class="node">
<title>s327</title>
<ellipse fill="none" stroke="black" cx="103" cy="-25.5" rx="20" ry="20"/>
<text text-anchor="middle" x="103" y="-22.7" font-family="Times,serif" font-size="11.00">327</text>
</g>
<!-- s97&#45;&gt;s327 -->
<g id="edge1" class="edge">
<title>s97&#45;&gt;s327</title>
<path fill="none" stroke="black" d="M40.2,-25.5C49.88,-25.5 61.84,-25.5 72.64,-25.5"/>
<polygon fill="black" stroke="black" points="72.94,-29 82.94,-25.5 72.94,-22 72.94,-29"/>
<text text-anchor="middle" x="61.5" y="-29.3" font-family="Times,serif" font-style="italic" font-size="14.00">ε</text>
</g>
<!-- s328 -->
<g id="node4" class="node">
<title>s328</title>
<ellipse fill="none" stroke="black" cx="246" cy="-25.5" rx="20" ry="20"/>
<text text-anchor="middle" x="246" y="-22.7" font-family="Times,serif" font-size="11.00">328</text>
</g>
<!-- s327&#45;&gt;s328 -->
<g id="edge2" class="edge">
<title>s327&#45;&gt;s328</title>
<path fill="none" stroke="black" d="M123.02,-25.5C147.72,-25.5 190.97,-25.5 218.77,-25.5"/>
<polygon fill="black" stroke="black" points="218.84,-27.95 225.84,-25.5 218.84,-23.05 218.84,-27.95"/>
<text text-anchor="middle" x="174.5" y="-28.7" font-family="Courier,monospace" font-size="11.00">{&#39;J&#39;, &#39;j&#39;}</text>
</g>
<!-- s328&#45;&gt;s98 -->
<g id="edge3" class="edge">
<title>s328&#45;&gt;s98</title>
<path fill="none" stroke="black" d="M266.2,-25.5C275.7,-25.5 287.48,-25.5 298.51,-25.5"/>
<polygon fill="black" stroke="black" points="298.76,-29 308.76,-25.5 298.76,-22 298.76,-29"/>
<text text-anchor="middle" x="287.5" y="-29.3" font-family="Times,serif" font-style="italic" font-size="14.00">ε</text>
</g>
</g>
</svg>
