<?xml version="1.0" encoding="UTF-8" standalone="no"?>
<!DOCTYPE svg PUBLIC "-//W3C//DTD SVG 1.1//EN"
 "http://www.w3.org/Graphics/SVG/1.1/DTD/svg11.dtd">
<!-- Generated by graphviz version 2.49.0 (20210828.1703)
 -->
<!-- Title: ATN Pages: 1 -->
<svg width="321pt" height="59pt"
 viewBox="0.00 0.00 321.00 59.00" xmlns="http://www.w3.org/2000/svg" xmlns:xlink="http://www.w3.org/1999/xlink">
<g id="graph0" class="graph" transform="scale(1 1) rotate(0) translate(4 55)">
<title>ATN</title>
<polygon fill="white" stroke="transparent" points="-4,4 -4,-55 317,-55 317,4 -4,4"/>
<!-- s30 -->
<g id="node1" class="node">
<title>s30</title>
<ellipse fill="none" stroke="black" cx="287.5" cy="-25.5" rx="21.5" ry="21.5"/>
<ellipse fill="none" stroke="black" cx="287.5" cy="-25.5" rx="25.5" ry="25.5"/>
<text text-anchor="middle" x="287.5" y="-22.7" font-family="Times,serif" font-size="11.00">30</text>
</g>
<!-- s161 -->
<g id="node2" class="node">
<title>s161</title>
<ellipse fill="none" stroke="black" cx="103" cy="-25.5" rx="20" ry="20"/>
<text text-anchor="middle" x="103" y="-22.7" font-family="Times,serif" font-size="11.00">161</text>
</g>
<!-- s162 -->
<g id="node3" class="node">
<title>s162</title>
<ellipse fill="none" stroke="black" cx="199" cy="-25.5" rx="20" ry="20"/>
<text text-anchor="middle" x="199" y="-22.7" font-family="Times,serif" font-size="11.00">162</text>
</g>
<!-- s161&#45;&gt;s162 -->
<g id="edge2" class="edge">
<title>s161&#45;&gt;s162</title>
<path fill="none" stroke="black" d="M123.02,-25.5C136.95,-25.5 156.02,-25.5 171.44,-25.5"/>
<polygon fill="black" stroke="black" points="171.68,-27.95 178.68,-25.5 171.68,-23.05 171.68,-27.95"/>
<text text-anchor="middle" x="151" y="-28.7" font-family="Courier,monospace" font-size="11.00">&#39;&lt;&#39;</text>
</g>
<!-- s162&#45;&gt;s30 -->
<g id="edge3" class="edge">
<title>s162&#45;&gt;s30</title>
<path fill="none" stroke="black" d="M219.2,-25.5C228.7,-25.5 240.48,-25.5 251.51,-25.5"/>
<polygon fill="black" stroke="black" points="251.76,-29 261.76,-25.5 251.76,-22 251.76,-29"/>
<text text-anchor="middle" x="240.5" y="-29.3" font-family="Times,serif" font-style="italic" font-size="14.00">ε</text>
</g>
<!-- s29 -->
<g id="node4" class="node">
<title>s29</title>
<ellipse fill="none" stroke="black" cx="20" cy="-25.5" rx="20" ry="20"/>
<text text-anchor="middle" x="20" y="-22.7" font-family="Times,serif" font-size="11.00">29</text>
</g>
<!-- s29&#45;&gt;s161 -->
<g id="edge1" class="edge">
<title>s29&#45;&gt;s161</title>
<path fill="none" stroke="black" d="M40.2,-25.5C49.88,-25.5 61.84,-25.5 72.64,-25.5"/>
<polygon fill="black" stroke="black" points="72.94,-29 82.94,-25.5 72.94,-22 72.94,-29"/>
<text text-anchor="middle" x="61.5" y="-29.3" font-family="Times,serif" font-style="italic" font-size="14.00">ε</text>
</g>
</g>
</svg>
