<?xml version="1.0" encoding="UTF-8" standalone="no"?>
<!DOCTYPE svg PUBLIC "-//W3C//DTD SVG 1.1//EN"
 "http://www.w3.org/Graphics/SVG/1.1/DTD/svg11.dtd">
<!-- Generated by graphviz version 2.49.0 (20210828.1703)
 -->
<!-- Title: ATN Pages: 1 -->
<svg width="609pt" height="59pt"
 viewBox="0.00 0.00 609.00 59.00" xmlns="http://www.w3.org/2000/svg" xmlns:xlink="http://www.w3.org/1999/xlink">
<g id="graph0" class="graph" transform="scale(1 1) rotate(0) translate(4 55)">
<title>ATN</title>
<polygon fill="white" stroke="transparent" points="-4,4 -4,-55 605,-55 605,4 -4,4"/>
<!-- s54 -->
<g id="node1" class="node">
<title>s54</title>
<ellipse fill="none" stroke="black" cx="575.5" cy="-25.5" rx="21.5" ry="21.5"/>
<ellipse fill="none" stroke="black" cx="575.5" cy="-25.5" rx="25.5" ry="25.5"/>
<text text-anchor="middle" x="575.5" y="-22.7" font-family="Times,serif" font-size="11.00">54</text>
</g>
<!-- s208 -->
<g id="node2" class="node">
<title>s208</title>
<ellipse fill="none" stroke="black" cx="391" cy="-25.5" rx="20" ry="20"/>
<text text-anchor="middle" x="391" y="-22.7" font-family="Times,serif" font-size="11.00">208</text>
</g>
<!-- s209 -->
<g id="node3" class="node">
<title>s209</title>
<ellipse fill="none" stroke="black" cx="487" cy="-25.5" rx="20" ry="20"/>
<text text-anchor="middle" x="487" y="-22.7" font-family="Times,serif" font-size="11.00">209</text>
</g>
<!-- s208&#45;&gt;s209 -->
<g id="edge5" class="edge">
<title>s208&#45;&gt;s209</title>
<path fill="none" stroke="black" d="M411.02,-25.5C424.95,-25.5 444.02,-25.5 459.44,-25.5"/>
<polygon fill="black" stroke="black" points="459.68,-27.95 466.68,-25.5 459.68,-23.05 459.68,-27.95"/>
<text text-anchor="middle" x="439" y="-28.7" font-family="Courier,monospace" font-size="11.00">&lt;E&gt;</text>
</g>
<!-- s209&#45;&gt;s54 -->
<g id="edge6" class="edge">
<title>s209&#45;&gt;s54</title>
<path fill="none" stroke="black" d="M507.2,-25.5C516.7,-25.5 528.48,-25.5 539.51,-25.5"/>
<polygon fill="black" stroke="black" points="539.76,-29 549.76,-25.5 539.76,-22 539.76,-29"/>
<text text-anchor="middle" x="528.5" y="-29.3" font-family="Times,serif" font-style="italic" font-size="14.00">ε</text>
</g>
<!-- s53 -->
<g id="node4" class="node">
<title>s53</title>
<ellipse fill="none" stroke="black" cx="20" cy="-25.5" rx="20" ry="20"/>
<text text-anchor="middle" x="20" y="-22.7" font-family="Times,serif" font-size="11.00">53</text>
</g>
<!-- s205 -->
<g id="node5" class="node">
<title>s205</title>
<ellipse fill="none" stroke="black" cx="103" cy="-25.5" rx="20" ry="20"/>
<text text-anchor="middle" x="103" y="-22.7" font-family="Times,serif" font-size="11.00">205</text>
</g>
<!-- s53&#45;&gt;s205 -->
<g id="edge1" class="edge">
<title>s53&#45;&gt;s205</title>
<path fill="none" stroke="black" d="M40.2,-25.5C49.88,-25.5 61.84,-25.5 72.64,-25.5"/>
<polygon fill="black" stroke="black" points="72.94,-29 82.94,-25.5 72.94,-22 72.94,-29"/>
<text text-anchor="middle" x="61.5" y="-29.3" font-family="Times,serif" font-style="italic" font-size="14.00">ε</text>
</g>
<!-- s206 -->
<g id="node6" class="node">
<title>s206</title>
<ellipse fill="none" stroke="black" cx="199" cy="-25.5" rx="20" ry="20"/>
<text text-anchor="middle" x="199" y="-22.7" font-family="Times,serif" font-size="11.00">206</text>
</g>
<!-- s205&#45;&gt;s206 -->
<g id="edge2" class="edge">
<title>s205&#45;&gt;s206</title>
<path fill="none" stroke="black" d="M123.02,-25.5C136.95,-25.5 156.02,-25.5 171.44,-25.5"/>
<polygon fill="black" stroke="black" points="171.68,-27.95 178.68,-25.5 171.68,-23.05 171.68,-27.95"/>
<text text-anchor="middle" x="151" y="-28.7" font-family="Courier,monospace" font-size="11.00">&lt;T&gt;</text>
</g>
<!-- s207 -->
<g id="node7" class="node">
<title>s207</title>
<ellipse fill="none" stroke="black" cx="295" cy="-25.5" rx="20" ry="20"/>
<text text-anchor="middle" x="295" y="-22.7" font-family="Times,serif" font-size="11.00">207</text>
</g>
<!-- s206&#45;&gt;s207 -->
<g id="edge3" class="edge">
<title>s206&#45;&gt;s207</title>
<path fill="none" stroke="black" d="M219.02,-25.5C232.95,-25.5 252.02,-25.5 267.44,-25.5"/>
<polygon fill="black" stroke="black" points="267.68,-27.95 274.68,-25.5 267.68,-23.05 267.68,-27.95"/>
<text text-anchor="middle" x="247" y="-28.7" font-family="Courier,monospace" font-size="11.00">&lt;R&gt;</text>
</g>
<!-- s207&#45;&gt;s208 -->
<g id="edge4" class="edge">
<title>s207&#45;&gt;s208</title>
<path fill="none" stroke="black" d="M315.02,-25.5C328.95,-25.5 348.02,-25.5 363.44,-25.5"/>
<polygon fill="black" stroke="black" points="363.68,-27.95 370.68,-25.5 363.68,-23.05 363.68,-27.95"/>
<text text-anchor="middle" x="343" y="-28.7" font-family="Courier,monospace" font-size="11.00">&lt;E&gt;</text>
</g>
</g>
</svg>
