<?xml version="1.0" encoding="UTF-8" standalone="no"?>
<!DOCTYPE svg PUBLIC "-//W3C//DTD SVG 1.1//EN"
 "http://www.w3.org/Graphics/SVG/1.1/DTD/svg11.dtd">
<!-- Generated by graphviz version 2.49.0 (20210828.1703)
 -->
<!-- Title: ATN Pages: 1 -->
<svg width="2144pt" height="629pt"
 viewBox="0.00 0.00 2144.00 629.00" xmlns="http://www.w3.org/2000/svg" xmlns:xlink="http://www.w3.org/1999/xlink">
<g id="graph0" class="graph" transform="scale(1 1) rotate(0) translate(4 625)">
<title>ATN</title>
<polygon fill="white" stroke="transparent" points="-4,4 -4,-625 2140,-625 2140,4 -4,4"/>
<!-- s11 -->
<g id="node1" class="node">
<title>s11</title>
<ellipse fill="none" stroke="black" cx="1110.5" cy="-93" rx="21.5" ry="21.5"/>
<ellipse fill="none" stroke="black" cx="1110.5" cy="-93" rx="25.5" ry="25.5"/>
<text text-anchor="middle" x="1110.5" y="-90.2" font-family="Times,serif" font-size="11.00">11</text>
</g>
<!-- s10 -->
<g id="node2" class="node">
<title>s10</title>
<ellipse fill="none" stroke="black" cx="20" cy="-146" rx="20" ry="20"/>
<text text-anchor="middle" x="20" y="-143.2" font-family="Times,serif" font-size="11.00">10</text>
</g>
<!-- s89 -->
<g id="node15" class="node">
<title>s89</title>
<polygon fill="none" stroke="black" points="83,-76 83,-216 137,-216 137,-76 83,-76"/>
<text text-anchor="middle" x="100" y="-155.2" font-family="Times,serif" font-size="11.00">→</text>
<text text-anchor="middle" x="100" y="-143.2" font-family="Times,serif" font-size="11.00">89</text>
<text text-anchor="middle" x="100" y="-131.2" font-family="Times,serif" font-size="11.00">d=9</text>
<polyline fill="none" stroke="black" points="117,-76 117,-216 "/>
<text text-anchor="middle" x="127" y="-203.2" font-family="Times,serif" font-size="11.00"> </text>
<polyline fill="none" stroke="black" points="117,-196 137,-196 "/>
<text text-anchor="middle" x="127" y="-183.2" font-family="Times,serif" font-size="11.00"> </text>
<polyline fill="none" stroke="black" points="117,-176 137,-176 "/>
<text text-anchor="middle" x="127" y="-163.2" font-family="Times,serif" font-size="11.00"> </text>
<polyline fill="none" stroke="black" points="117,-156 137,-156 "/>
<text text-anchor="middle" x="127" y="-143.2" font-family="Times,serif" font-size="11.00"> </text>
<polyline fill="none" stroke="black" points="117,-136 137,-136 "/>
<text text-anchor="middle" x="127" y="-123.2" font-family="Times,serif" font-size="11.00"> </text>
<polyline fill="none" stroke="black" points="117,-116 137,-116 "/>
<text text-anchor="middle" x="127" y="-103.2" font-family="Times,serif" font-size="11.00"> </text>
<polyline fill="none" stroke="black" points="117,-96 137,-96 "/>
<text text-anchor="middle" x="127" y="-83.2" font-family="Times,serif" font-size="11.00"> </text>
</g>
<!-- s10&#45;&gt;s89 -->
<g id="edge1" class="edge">
<title>s10&#45;&gt;s89</title>
<path fill="none" stroke="black" d="M40.09,-146C49.69,-146 61.65,-146 72.89,-146"/>
<polygon fill="black" stroke="black" points="72.93,-149.5 82.93,-146 72.93,-142.5 72.93,-149.5"/>
<text text-anchor="middle" x="61.5" y="-149.8" font-family="Times,serif" font-style="italic" font-size="14.00">ε</text>
</g>
<!-- s77 -->
<g id="node3" class="node">
<title>s77</title>
<ellipse fill="none" stroke="black" cx="200" cy="-303" rx="20" ry="20"/>
<text text-anchor="middle" x="200" y="-300.2" font-family="Times,serif" font-size="11.00">77</text>
</g>
<!-- s78 -->
<g id="node4" class="node">
<title>s78</title>
<ellipse fill="none" stroke="black" cx="349" cy="-293" rx="20" ry="20"/>
<text text-anchor="middle" x="349" y="-290.2" font-family="Times,serif" font-size="11.00">78</text>
</g>
<!-- s77&#45;&gt;s78 -->
<g id="edge9" class="edge">
<title>s77&#45;&gt;s78</title>
<path fill="none" stroke="black" d="M220.22,-301.69C246.19,-299.93 292.59,-296.77 321.76,-294.79"/>
<polygon fill="black" stroke="black" points="321.96,-297.23 328.78,-294.31 321.63,-292.34 321.96,-297.23"/>
<text text-anchor="middle" x="274.5" y="-303.2" font-family="Courier,monospace" font-size="11.00">action_5:&#45;1</text>
</g>
<!-- s79 -->
<g id="node5" class="node">
<title>s79</title>
<ellipse fill="none" stroke="black" cx="465" cy="-293" rx="20" ry="20"/>
<text text-anchor="middle" x="465" y="-290.2" font-family="Times,serif" font-size="11.00">79</text>
</g>
<!-- s78&#45;&gt;s79 -->
<g id="edge16" class="edge">
<title>s78&#45;&gt;s79</title>
<path fill="none" stroke="black" d="M369.08,-293C387.91,-293 416.83,-293 437.8,-293"/>
<polygon fill="black" stroke="black" points="437.86,-295.45 444.86,-293 437.86,-290.55 437.86,-295.45"/>
<text text-anchor="middle" x="407" y="-296.2" font-family="Courier,monospace" font-size="11.00">&#39;(&#39;</text>
</g>
<!-- s80 -->
<g id="node6" class="node">
<title>s80</title>
<ellipse fill="none" stroke="black" cx="611" cy="-292" rx="20" ry="20"/>
<text text-anchor="middle" x="611" y="-289.2" font-family="Times,serif" font-size="11.00">80</text>
</g>
<!-- s79&#45;&gt;s80 -->
<g id="edge19" class="edge">
<title>s79&#45;&gt;s80</title>
<path fill="none" stroke="black" d="M485.12,-292.87C510.4,-292.69 555.07,-292.38 583.57,-292.18"/>
<polygon fill="black" stroke="black" points="583.82,-294.63 590.8,-292.13 583.78,-289.73 583.82,-294.63"/>
<text text-anchor="middle" x="533" y="-295.2" font-family="Courier,monospace" font-size="11.00">&lt;expr[0]&gt;</text>
</g>
<!-- s81 -->
<g id="node7" class="node">
<title>s81</title>
<ellipse fill="none" stroke="black" cx="737" cy="-291" rx="20" ry="20"/>
<text text-anchor="middle" x="737" y="-288.2" font-family="Times,serif" font-size="11.00">81</text>
</g>
<!-- s80&#45;&gt;s81 -->
<g id="edge22" class="edge">
<title>s80&#45;&gt;s81</title>
<path fill="none" stroke="black" d="M631.1,-291.85C652.07,-291.68 685.87,-291.4 709.42,-291.21"/>
<polygon fill="black" stroke="black" points="709.69,-293.66 716.67,-291.16 709.65,-288.76 709.69,-293.66"/>
<text text-anchor="middle" x="679" y="-294.2" font-family="Courier,monospace" font-size="11.00">&#39;)&#39;</text>
</g>
<!-- s90 -->
<g id="node16" class="node">
<title>s90</title>
<ellipse fill="none" stroke="black" cx="820" cy="-147" rx="20" ry="20"/>
<text text-anchor="middle" x="820" y="-150.2" font-family="Times,serif" font-size="11.00">←</text>
<text text-anchor="middle" x="820" y="-138.2" font-family="Times,serif" font-size="11.00">90</text>
</g>
<!-- s81&#45;&gt;s90 -->
<g id="edge32" class="edge">
<title>s81&#45;&gt;s90</title>
<path fill="none" stroke="black" d="M754.61,-281.16C763.81,-274.97 774.81,-266.22 782,-256 798.85,-232.05 808.53,-199.8 813.73,-176.6"/>
<polygon fill="black" stroke="black" points="817.2,-177.14 815.82,-166.64 810.34,-175.71 817.2,-177.14"/>
<text text-anchor="middle" x="778.5" y="-267.8" font-family="Times,serif" font-style="italic" font-size="14.00">ε</text>
</g>
<!-- s82 -->
<g id="node8" class="node">
<title>s82</title>
<ellipse fill="none" stroke="black" cx="200" cy="-245" rx="20" ry="20"/>
<text text-anchor="middle" x="200" y="-242.2" font-family="Times,serif" font-size="11.00">82</text>
</g>
<!-- s83 -->
<g id="node9" class="node">
<title>s83</title>
<ellipse fill="none" stroke="black" cx="407" cy="-244" rx="20" ry="20"/>
<text text-anchor="middle" x="407" y="-241.2" font-family="Times,serif" font-size="11.00">83</text>
</g>
<!-- s82&#45;&gt;s83 -->
<g id="edge10" class="edge">
<title>s82&#45;&gt;s83</title>
<path fill="none" stroke="black" d="M220.29,-244.91C257.24,-244.73 338.05,-244.33 379.83,-244.13"/>
<polygon fill="black" stroke="black" points="379.93,-246.58 386.91,-244.09 379.9,-241.68 379.93,-246.58"/>
<text text-anchor="middle" x="274.5" y="-247.2" font-family="Courier,monospace" font-size="11.00">&#39;!&#39;</text>
</g>
<!-- s83&#45;&gt;s90 -->
<g id="edge17" class="edge">
<title>s83&#45;&gt;s90</title>
<path fill="none" stroke="black" d="M427.33,-243.5C451.72,-242.9 494.97,-242 532,-242 532,-242 532,-242 738,-242 774.57,-242 798.11,-200.74 809.92,-172.61"/>
<polygon fill="black" stroke="black" points="812.33,-173.18 812.67,-165.77 807.79,-171.35 812.33,-173.18"/>
<text text-anchor="middle" x="611" y="-245.2" font-family="Courier,monospace" font-size="11.00">&lt;expr[6]&gt;</text>
</g>
<!-- s84 -->
<g id="node10" class="node">
<title>s84</title>
<ellipse fill="none" stroke="black" cx="407" cy="-192" rx="20" ry="20"/>
<text text-anchor="middle" x="407" y="-189.2" font-family="Times,serif" font-size="11.00">84</text>
</g>
<!-- s84&#45;&gt;s90 -->
<g id="edge11" class="edge">
<title>s84&#45;&gt;s90</title>
<path fill="none" stroke="black" d="M427.33,-192.25C451.72,-192.55 494.97,-193 532,-193 532,-193 532,-193 738,-193 761.48,-193 784.38,-178.21 799.8,-165.4"/>
<polygon fill="black" stroke="black" points="801.43,-167.23 805.13,-160.8 798.23,-163.52 801.43,-167.23"/>
<text text-anchor="middle" x="611" y="-196.2" font-family="Courier,monospace" font-size="11.00">NUMBER</text>
</g>
<!-- s85 -->
<g id="node11" class="node">
<title>s85</title>
<ellipse fill="none" stroke="black" cx="679" cy="-147" rx="20" ry="20"/>
<text text-anchor="middle" x="679" y="-144.2" font-family="Times,serif" font-size="11.00">85</text>
</g>
<!-- s85&#45;&gt;s90 -->
<g id="edge12" class="edge">
<title>s85&#45;&gt;s90</title>
<path fill="none" stroke="black" d="M699.04,-147C723.23,-147 765.13,-147 792.45,-147"/>
<polygon fill="black" stroke="black" points="792.75,-149.45 799.75,-147 792.75,-144.55 792.75,-149.45"/>
<text text-anchor="middle" x="737" y="-150.2" font-family="Courier,monospace" font-size="11.00">TRUE</text>
</g>
<!-- s86 -->
<g id="node12" class="node">
<title>s86</title>
<ellipse fill="none" stroke="black" cx="274.5" cy="-108" rx="20" ry="20"/>
<text text-anchor="middle" x="274.5" y="-105.2" font-family="Times,serif" font-size="11.00">86</text>
</g>
<!-- s86&#45;&gt;s90 -->
<g id="edge13" class="edge">
<title>s86&#45;&gt;s90</title>
<path fill="none" stroke="black" d="M294.5,-106.34C319.89,-104.27 366.29,-101 406,-101 406,-101 406,-101 738,-101 761.48,-101 784.38,-115.79 799.8,-128.6"/>
<polygon fill="black" stroke="black" points="798.23,-130.48 805.13,-133.2 801.43,-126.77 798.23,-130.48"/>
<text text-anchor="middle" x="533" y="-104.2" font-family="Courier,monospace" font-size="11.00">FALSE</text>
</g>
<!-- s87 -->
<g id="node13" class="node">
<title>s87</title>
<ellipse fill="none" stroke="black" cx="274.5" cy="-63" rx="20" ry="20"/>
<text text-anchor="middle" x="274.5" y="-60.2" font-family="Times,serif" font-size="11.00">87</text>
</g>
<!-- s87&#45;&gt;s90 -->
<g id="edge14" class="edge">
<title>s87&#45;&gt;s90</title>
<path fill="none" stroke="black" d="M294.52,-63C319.93,-63 366.35,-63 406,-63 406,-63 406,-63 738,-63 771.29,-63 795.21,-97.61 808.08,-122.39"/>
<polygon fill="black" stroke="black" points="805.95,-123.6 811.27,-128.77 810.33,-121.42 805.95,-123.6"/>
<text text-anchor="middle" x="533" y="-66.2" font-family="Courier,monospace" font-size="11.00">STRING</text>
</g>
<!-- s88 -->
<g id="node14" class="node">
<title>s88</title>
<ellipse fill="none" stroke="black" cx="533" cy="-20" rx="20" ry="20"/>
<text text-anchor="middle" x="533" y="-17.2" font-family="Times,serif" font-size="11.00">88</text>
</g>
<!-- s88&#45;&gt;s90 -->
<g id="edge15" class="edge">
<title>s88&#45;&gt;s90</title>
<path fill="none" stroke="black" d="M552.67,-16.13C597.65,-7.95 713.39,6.11 782,-49 803.49,-66.26 812.51,-97.45 816.28,-120.01"/>
<polygon fill="black" stroke="black" points="813.87,-120.45 817.33,-127 818.72,-119.72 813.87,-120.45"/>
<text text-anchor="middle" x="679" y="-17.2" font-family="Courier,monospace" font-size="11.00">ID</text>
</g>
<!-- s89&#45;&gt;s77 -->
<g id="edge2" class="edge">
<title>s89:p0&#45;&gt;s77</title>
<path fill="none" stroke="black" d="M127,-217C127,-246.99 153.06,-272.02 173.82,-287.2"/>
<polygon fill="black" stroke="black" points="172.09,-290.26 182.3,-293.09 176.08,-284.52 172.09,-290.26"/>
<text text-anchor="middle" x="158.5" y="-279.8" font-family="Times,serif" font-style="italic" font-size="14.00">ε</text>
</g>
<!-- s89&#45;&gt;s82 -->
<g id="edge3" class="edge">
<title>s89:p1&#45;&gt;s82</title>
<path fill="none" stroke="black" d="M137,-186C148.96,-186 146.51,-197.58 155,-206 161.67,-212.62 169.22,-219.51 176.17,-225.64"/>
<polygon fill="black" stroke="black" points="174.11,-228.48 183.96,-232.4 178.7,-223.2 174.11,-228.48"/>
<text text-anchor="middle" x="158.5" y="-215.8" font-family="Times,serif" font-style="italic" font-size="14.00">ε</text>
</g>
<!-- s89&#45;&gt;s84 -->
<g id="edge4" class="edge">
<title>s89:p2&#45;&gt;s84</title>
<path fill="none" stroke="black" d="M137,-166C224.86,-166 328.12,-179.91 377.23,-187.38"/>
<polygon fill="black" stroke="black" points="376.73,-190.85 387.14,-188.92 377.8,-183.93 376.73,-190.85"/>
<text text-anchor="middle" x="200" y="-172.8" font-family="Times,serif" font-style="italic" font-size="14.00">ε</text>
</g>
<!-- s89&#45;&gt;s85 -->
<g id="edge5" class="edge">
<title>s89:p3&#45;&gt;s85</title>
<path fill="none" stroke="black" d="M137,-146C230.78,-146 254.22,-147 348,-147 348,-147 348,-147 534,-147 573.68,-147 619.51,-147 648.61,-147"/>
<polygon fill="black" stroke="black" points="648.9,-150.5 658.9,-147 648.9,-143.5 648.9,-150.5"/>
<text text-anchor="middle" x="349" y="-150.8" font-family="Times,serif" font-style="italic" font-size="14.00">ε</text>
</g>
<!-- s89&#45;&gt;s86 -->
<g id="edge6" class="edge">
<title>s89:p4&#45;&gt;s86</title>
<path fill="none" stroke="black" d="M137,-126C145.94,-126 146.38,-119.38 155,-117 184.62,-108.81 219.89,-107.1 244.21,-107.11"/>
<polygon fill="black" stroke="black" points="244.2,-110.61 254.23,-107.21 244.27,-103.61 244.2,-110.61"/>
<text text-anchor="middle" x="158.5" y="-120.8" font-family="Times,serif" font-style="italic" font-size="14.00">ε</text>
</g>
<!-- s89&#45;&gt;s87 -->
<g id="edge7" class="edge">
<title>s89:p5&#45;&gt;s87</title>
<path fill="none" stroke="black" d="M137,-106C146.15,-106 146.53,-99.47 155,-96 184.6,-83.85 220.14,-74.62 244.53,-69.05"/>
<polygon fill="black" stroke="black" points="245.57,-72.41 254.57,-66.82 244.05,-65.57 245.57,-72.41"/>
<text text-anchor="middle" x="158.5" y="-99.8" font-family="Times,serif" font-style="italic" font-size="14.00">ε</text>
</g>
<!-- s89&#45;&gt;s88 -->
<g id="edge8" class="edge">
<title>s89:p6&#45;&gt;s88</title>
<path fill="none" stroke="black" d="M127,-75C127,-35.27 159.27,-22 199,-22 199,-22 199,-22 408,-22 440.26,-22 477.23,-21.31 502.35,-20.75"/>
<polygon fill="black" stroke="black" points="502.76,-24.24 512.67,-20.5 502.59,-17.24 502.76,-24.24"/>
<text text-anchor="middle" x="274.5" y="-25.8" font-family="Times,serif" font-style="italic" font-size="14.00">ε</text>
</g>
<!-- s120 -->
<g id="node46" class="node">
<title>s120</title>
<polygon fill="none" stroke="black" points="883,-127 883,-167 941,-167 941,-127 883,-127"/>
<text text-anchor="middle" x="902.5" y="-150.2" font-family="Times,serif" font-size="11.00">120*</text>
<text text-anchor="middle" x="902.5" y="-138.2" font-family="Times,serif" font-size="11.00">d=11</text>
<polyline fill="none" stroke="black" points="922,-127 922,-167 "/>
<text text-anchor="middle" x="931.5" y="-154.2" font-family="Times,serif" font-size="11.00"> </text>
<polyline fill="none" stroke="black" points="922,-147 941,-147 "/>
<text text-anchor="middle" x="931.5" y="-134.2" font-family="Times,serif" font-size="11.00"> </text>
</g>
<!-- s90&#45;&gt;s120 -->
<g id="edge18" class="edge">
<title>s90&#45;&gt;s120</title>
<path fill="none" stroke="black" d="M840.09,-147C849.57,-147 861.38,-147 872.62,-147"/>
<polygon fill="black" stroke="black" points="872.71,-150.5 882.71,-147 872.71,-143.5 872.71,-150.5"/>
<text text-anchor="middle" x="861.5" y="-150.8" font-family="Times,serif" font-style="italic" font-size="14.00">ε</text>
</g>
<!-- s91 -->
<g id="node17" class="node">
<title>s91</title>
<ellipse fill="none" stroke="black" cx="1110.5" cy="-601" rx="20" ry="20"/>
<text text-anchor="middle" x="1110.5" y="-598.2" font-family="Times,serif" font-size="11.00">91</text>
</g>
<!-- s92 -->
<g id="node18" class="node">
<title>s92</title>
<ellipse fill="none" stroke="black" cx="1245" cy="-601" rx="20" ry="20"/>
<text text-anchor="middle" x="1245" y="-598.2" font-family="Times,serif" font-size="11.00">92</text>
</g>
<!-- s91&#45;&gt;s92 -->
<g id="edge33" class="edge">
<title>s91&#45;&gt;s92</title>
<path fill="none" stroke="black" d="M1130.77,-601C1153.63,-601 1191.88,-601 1217.51,-601"/>
<polygon fill="black" stroke="black" points="1217.71,-603.45 1224.71,-601 1217.71,-598.55 1217.71,-603.45"/>
<text text-anchor="middle" x="1180.5" y="-604.2" font-family="Courier,monospace" font-size="11.00">14 &gt;= _p</text>
</g>
<!-- s93 -->
<g id="node19" class="node">
<title>s93</title>
<ellipse fill="none" stroke="black" cx="1695" cy="-577" rx="20" ry="20"/>
<text text-anchor="middle" x="1695" y="-574.2" font-family="Times,serif" font-size="11.00">93</text>
</g>
<!-- s92&#45;&gt;s93 -->
<g id="edge41" class="edge">
<title>s92&#45;&gt;s93</title>
<path fill="none" stroke="black" d="M1265.25,-599.97C1336.48,-596.15 1585.19,-582.83 1667.4,-578.43"/>
<polygon fill="black" stroke="black" points="1667.96,-580.85 1674.82,-578.03 1667.7,-575.96 1667.96,-580.85"/>
<text text-anchor="middle" x="1441" y="-597.2" font-family="Courier,monospace" font-size="11.00">&#39;^&#39;</text>
</g>
<!-- s119 -->
<g id="node45" class="node">
<title>s119</title>
<ellipse fill="none" stroke="black" cx="2033" cy="-369" rx="20" ry="20"/>
<text text-anchor="middle" x="2033" y="-372.2" font-family="Times,serif" font-size="11.00">←</text>
<text text-anchor="middle" x="2033" y="-360.2" font-family="Times,serif" font-size="11.00">119</text>
</g>
<!-- s93&#45;&gt;s119 -->
<g id="edge49" class="edge">
<title>s93&#45;&gt;s119</title>
<path fill="none" stroke="black" d="M1715.06,-578.92C1762.33,-582.71 1887.1,-586.69 1970,-534 2016.37,-504.53 2028.19,-435.25 2031.12,-396.48"/>
<polygon fill="black" stroke="black" points="2033.59,-396.3 2031.59,-389.16 2028.7,-395.99 2033.59,-396.3"/>
<text text-anchor="middle" x="1851.5" y="-581.2" font-family="Courier,monospace" font-size="11.00">&lt;expr[14]&gt;</text>
</g>
<!-- s94 -->
<g id="node20" class="node">
<title>s94</title>
<ellipse fill="none" stroke="black" cx="1110.5" cy="-543" rx="20" ry="20"/>
<text text-anchor="middle" x="1110.5" y="-540.2" font-family="Times,serif" font-size="11.00">94</text>
</g>
<!-- s95 -->
<g id="node21" class="node">
<title>s95</title>
<ellipse fill="none" stroke="black" cx="1245" cy="-543" rx="20" ry="20"/>
<text text-anchor="middle" x="1245" y="-540.2" font-family="Times,serif" font-size="11.00">95</text>
</g>
<!-- s94&#45;&gt;s95 -->
<g id="edge34" class="edge">
<title>s94&#45;&gt;s95</title>
<path fill="none" stroke="black" d="M1130.77,-543C1153.63,-543 1191.88,-543 1217.51,-543"/>
<polygon fill="black" stroke="black" points="1217.71,-545.45 1224.71,-543 1217.71,-540.55 1217.71,-545.45"/>
<text text-anchor="middle" x="1180.5" y="-546.2" font-family="Courier,monospace" font-size="11.00">13 &gt;= _p</text>
</g>
<!-- s96 -->
<g id="node22" class="node">
<title>s96</title>
<ellipse fill="none" stroke="black" cx="1851.5" cy="-521" rx="20" ry="20"/>
<text text-anchor="middle" x="1851.5" y="-518.2" font-family="Times,serif" font-size="11.00">96</text>
</g>
<!-- s95&#45;&gt;s96 -->
<g id="edge42" class="edge">
<title>s95&#45;&gt;s96</title>
<path fill="none" stroke="black" d="M1264.95,-540.07C1299.6,-534.97 1375.56,-525 1440,-525 1440,-525 1440,-525 1696,-525 1741.02,-525 1793.39,-523.28 1824.14,-522.1"/>
<polygon fill="black" stroke="black" points="1824.58,-524.53 1831.48,-521.81 1824.39,-519.64 1824.58,-524.53"/>
<text text-anchor="middle" x="1565.5" y="-528.2" font-family="Courier,monospace" font-size="11.00">{&#39;*&#39;, &#39;/&#39;}</text>
</g>
<!-- s96&#45;&gt;s119 -->
<g id="edge50" class="edge">
<title>s96&#45;&gt;s119</title>
<path fill="none" stroke="black" d="M1871.86,-521.04C1902.16,-520.04 1960.82,-513.66 1995,-481 2018.31,-458.72 2026.94,-421.48 2030.14,-396.11"/>
<polygon fill="black" stroke="black" points="2032.59,-396.2 2030.93,-388.97 2027.72,-395.65 2032.59,-396.2"/>
<text text-anchor="middle" x="1936.5" y="-521.2" font-family="Courier,monospace" font-size="11.00">&lt;expr[14]&gt;</text>
</g>
<!-- s97 -->
<g id="node23" class="node">
<title>s97</title>
<ellipse fill="none" stroke="black" cx="1110.5" cy="-485" rx="20" ry="20"/>
<text text-anchor="middle" x="1110.5" y="-482.2" font-family="Times,serif" font-size="11.00">97</text>
</g>
<!-- s98 -->
<g id="node24" class="node">
<title>s98</title>
<ellipse fill="none" stroke="black" cx="1245" cy="-485" rx="20" ry="20"/>
<text text-anchor="middle" x="1245" y="-482.2" font-family="Times,serif" font-size="11.00">98</text>
</g>
<!-- s97&#45;&gt;s98 -->
<g id="edge35" class="edge">
<title>s97&#45;&gt;s98</title>
<path fill="none" stroke="black" d="M1130.77,-485C1153.63,-485 1191.88,-485 1217.51,-485"/>
<polygon fill="black" stroke="black" points="1217.71,-487.45 1224.71,-485 1217.71,-482.55 1217.71,-487.45"/>
<text text-anchor="middle" x="1180.5" y="-488.2" font-family="Courier,monospace" font-size="11.00">12 &gt;= _p</text>
</g>
<!-- s99 -->
<g id="node25" class="node">
<title>s99</title>
<ellipse fill="none" stroke="black" cx="1565.5" cy="-473" rx="20" ry="20"/>
<text text-anchor="middle" x="1565.5" y="-470.2" font-family="Times,serif" font-size="11.00">99</text>
</g>
<!-- s98&#45;&gt;s99 -->
<g id="edge43" class="edge">
<title>s98&#45;&gt;s99</title>
<path fill="none" stroke="black" d="M1265.44,-484.27C1320.21,-482.2 1475.82,-476.34 1538.18,-473.99"/>
<polygon fill="black" stroke="black" points="1538.41,-476.43 1545.31,-473.72 1538.22,-471.54 1538.41,-476.43"/>
<text text-anchor="middle" x="1316.5" y="-486.2" font-family="Courier,monospace" font-size="11.00">{&#39;+&#39;, &#39;&#45;&#39;}</text>
</g>
<!-- s99&#45;&gt;s119 -->
<g id="edge51" class="edge">
<title>s99&#45;&gt;s119</title>
<path fill="none" stroke="black" d="M1585.5,-471.55C1610.4,-469.77 1655.44,-467 1694,-467 1694,-467 1694,-467 1937.5,-467 1977.98,-467 2006.59,-423.14 2021.1,-394.1"/>
<polygon fill="black" stroke="black" points="2023.48,-394.8 2024.32,-387.43 2019.07,-392.67 2023.48,-394.8"/>
<text text-anchor="middle" x="1766.5" y="-470.2" font-family="Courier,monospace" font-size="11.00">&lt;expr[13]&gt;</text>
</g>
<!-- s100 -->
<g id="node26" class="node">
<title>s100</title>
<ellipse fill="none" stroke="black" cx="1110.5" cy="-427" rx="20" ry="20"/>
<text text-anchor="middle" x="1110.5" y="-424.2" font-family="Times,serif" font-size="11.00">100</text>
</g>
<!-- s101 -->
<g id="node27" class="node">
<title>s101</title>
<ellipse fill="none" stroke="black" cx="1245" cy="-427" rx="20" ry="20"/>
<text text-anchor="middle" x="1245" y="-424.2" font-family="Times,serif" font-size="11.00">101</text>
</g>
<!-- s100&#45;&gt;s101 -->
<g id="edge36" class="edge">
<title>s100&#45;&gt;s101</title>
<path fill="none" stroke="black" d="M1130.77,-427C1153.63,-427 1191.88,-427 1217.51,-427"/>
<polygon fill="black" stroke="black" points="1217.71,-429.45 1224.71,-427 1217.71,-424.55 1217.71,-429.45"/>
<text text-anchor="middle" x="1180.5" y="-430.2" font-family="Courier,monospace" font-size="11.00">11 &gt;= _p</text>
</g>
<!-- s102 -->
<g id="node28" class="node">
<title>s102</title>
<ellipse fill="none" stroke="black" cx="1637" cy="-417" rx="20" ry="20"/>
<text text-anchor="middle" x="1637" y="-414.2" font-family="Times,serif" font-size="11.00">102</text>
</g>
<!-- s101&#45;&gt;s102 -->
<g id="edge44" class="edge">
<title>s101&#45;&gt;s102</title>
<path fill="none" stroke="black" d="M1265.07,-426.51C1329.09,-424.87 1536.39,-419.55 1609.88,-417.67"/>
<polygon fill="black" stroke="black" points="1610.03,-420.12 1616.96,-417.49 1609.9,-415.22 1610.03,-420.12"/>
<text text-anchor="middle" x="1441" y="-426.2" font-family="Courier,monospace" font-size="11.00">{&#39;&lt;&#39;, &#39;&lt;=&#39;, &#39;&gt;&#39;, &#39;&gt;=&#39;}</text>
</g>
<!-- s102&#45;&gt;s119 -->
<g id="edge52" class="edge">
<title>s102&#45;&gt;s119</title>
<path fill="none" stroke="black" d="M1657.25,-416.96C1711.27,-416.46 1868.56,-412.38 1995,-383 1999.11,-382.04 2003.39,-380.74 2007.5,-379.31"/>
<polygon fill="black" stroke="black" points="2008.52,-381.55 2014.23,-376.82 2006.82,-376.95 2008.52,-381.55"/>
<text text-anchor="middle" x="1851.5" y="-412.2" font-family="Courier,monospace" font-size="11.00">&lt;expr[12]&gt;</text>
</g>
<!-- s103 -->
<g id="node29" class="node">
<title>s103</title>
<ellipse fill="none" stroke="black" cx="1110.5" cy="-369" rx="20" ry="20"/>
<text text-anchor="middle" x="1110.5" y="-366.2" font-family="Times,serif" font-size="11.00">103</text>
</g>
<!-- s104 -->
<g id="node30" class="node">
<title>s104</title>
<ellipse fill="none" stroke="black" cx="1245" cy="-369" rx="20" ry="20"/>
<text text-anchor="middle" x="1245" y="-366.2" font-family="Times,serif" font-size="11.00">104</text>
</g>
<!-- s103&#45;&gt;s104 -->
<g id="edge37" class="edge">
<title>s103&#45;&gt;s104</title>
<path fill="none" stroke="black" d="M1130.77,-369C1153.63,-369 1191.88,-369 1217.51,-369"/>
<polygon fill="black" stroke="black" points="1217.71,-371.45 1224.71,-369 1217.71,-366.55 1217.71,-371.45"/>
<text text-anchor="middle" x="1180.5" y="-372.2" font-family="Courier,monospace" font-size="11.00">10 &gt;= _p</text>
</g>
<!-- s105 -->
<g id="node31" class="node">
<title>s105</title>
<ellipse fill="none" stroke="black" cx="1695" cy="-369" rx="20" ry="20"/>
<text text-anchor="middle" x="1695" y="-366.2" font-family="Times,serif" font-size="11.00">105</text>
</g>
<!-- s104&#45;&gt;s105 -->
<g id="edge45" class="edge">
<title>s104&#45;&gt;s105</title>
<path fill="none" stroke="black" d="M1265.25,-369C1336.48,-369 1585.19,-369 1667.4,-369"/>
<polygon fill="black" stroke="black" points="1667.82,-371.45 1674.82,-369 1667.82,-366.55 1667.82,-371.45"/>
<text text-anchor="middle" x="1441" y="-372.2" font-family="Courier,monospace" font-size="11.00">{&#39;==&#39;, &#39;!=&#39;}</text>
</g>
<!-- s105&#45;&gt;s119 -->
<g id="edge53" class="edge">
<title>s105&#45;&gt;s119</title>
<path fill="none" stroke="black" d="M1715.03,-369C1771.84,-369 1940.33,-369 2005.68,-369"/>
<polygon fill="black" stroke="black" points="2005.76,-371.45 2012.76,-369 2005.76,-366.55 2005.76,-371.45"/>
<text text-anchor="middle" x="1851.5" y="-372.2" font-family="Courier,monospace" font-size="11.00">&lt;expr[11]&gt;</text>
</g>
<!-- s106 -->
<g id="node32" class="node">
<title>s106</title>
<ellipse fill="none" stroke="black" cx="1110.5" cy="-311" rx="20" ry="20"/>
<text text-anchor="middle" x="1110.5" y="-308.2" font-family="Times,serif" font-size="11.00">106</text>
</g>
<!-- s107 -->
<g id="node33" class="node">
<title>s107</title>
<ellipse fill="none" stroke="black" cx="1245" cy="-311" rx="20" ry="20"/>
<text text-anchor="middle" x="1245" y="-308.2" font-family="Times,serif" font-size="11.00">107</text>
</g>
<!-- s106&#45;&gt;s107 -->
<g id="edge38" class="edge">
<title>s106&#45;&gt;s107</title>
<path fill="none" stroke="black" d="M1130.77,-311C1153.63,-311 1191.88,-311 1217.51,-311"/>
<polygon fill="black" stroke="black" points="1217.71,-313.45 1224.71,-311 1217.71,-308.55 1217.71,-313.45"/>
<text text-anchor="middle" x="1180.5" y="-314.2" font-family="Courier,monospace" font-size="11.00">9 &gt;= _p</text>
</g>
<!-- s108 -->
<g id="node34" class="node">
<title>s108</title>
<ellipse fill="none" stroke="black" cx="1441" cy="-312" rx="20" ry="20"/>
<text text-anchor="middle" x="1441" y="-309.2" font-family="Times,serif" font-size="11.00">108</text>
</g>
<!-- s107&#45;&gt;s108 -->
<g id="edge46" class="edge">
<title>s107&#45;&gt;s108</title>
<path fill="none" stroke="black" d="M1265.31,-311.1C1300.17,-311.28 1373.67,-311.66 1413.31,-311.86"/>
<polygon fill="black" stroke="black" points="1413.75,-314.31 1420.77,-311.9 1413.78,-309.41 1413.75,-314.31"/>
<text text-anchor="middle" x="1316.5" y="-314.2" font-family="Courier,monospace" font-size="11.00">&#39;?&#39;</text>
</g>
<!-- s109 -->
<g id="node35" class="node">
<title>s109</title>
<ellipse fill="none" stroke="black" cx="1637" cy="-318" rx="20" ry="20"/>
<text text-anchor="middle" x="1637" y="-315.2" font-family="Times,serif" font-size="11.00">109</text>
</g>
<!-- s108&#45;&gt;s109 -->
<g id="edge54" class="edge">
<title>s108&#45;&gt;s109</title>
<path fill="none" stroke="black" d="M1461.31,-312.6C1496.17,-313.68 1569.67,-315.95 1609.31,-317.17"/>
<polygon fill="black" stroke="black" points="1609.69,-319.64 1616.77,-317.41 1609.85,-314.74 1609.69,-319.64"/>
<text text-anchor="middle" x="1565.5" y="-319.2" font-family="Courier,monospace" font-size="11.00">&lt;expr[0]&gt;</text>
</g>
<!-- s110 -->
<g id="node36" class="node">
<title>s110</title>
<ellipse fill="none" stroke="black" cx="1766.5" cy="-321" rx="20" ry="20"/>
<text text-anchor="middle" x="1766.5" y="-318.2" font-family="Times,serif" font-size="11.00">110</text>
</g>
<!-- s109&#45;&gt;s110 -->
<g id="edge58" class="edge">
<title>s109&#45;&gt;s110</title>
<path fill="none" stroke="black" d="M1657.09,-318.45C1678.87,-318.96 1714.63,-319.8 1739.08,-320.38"/>
<polygon fill="black" stroke="black" points="1739.23,-322.83 1746.28,-320.55 1739.34,-317.93 1739.23,-322.83"/>
<text text-anchor="middle" x="1695" y="-322.2" font-family="Courier,monospace" font-size="11.00">&#39;:&#39;</text>
</g>
<!-- s111 -->
<g id="node37" class="node">
<title>s111</title>
<ellipse fill="none" stroke="black" cx="1936.5" cy="-321" rx="20" ry="20"/>
<text text-anchor="middle" x="1936.5" y="-318.2" font-family="Times,serif" font-size="11.00">111</text>
</g>
<!-- s110&#45;&gt;s111 -->
<g id="edge60" class="edge">
<title>s110&#45;&gt;s111</title>
<path fill="none" stroke="black" d="M1786.77,-321C1816.9,-321 1875.22,-321 1909.19,-321"/>
<polygon fill="black" stroke="black" points="1909.45,-323.45 1916.45,-321 1909.45,-318.55 1909.45,-323.45"/>
<text text-anchor="middle" x="1851.5" y="-324.2" font-family="Courier,monospace" font-size="11.00">&lt;expr[10]&gt;</text>
</g>
<!-- s111&#45;&gt;s119 -->
<g id="edge61" class="edge">
<title>s111&#45;&gt;s119</title>
<path fill="none" stroke="black" d="M1956.03,-325.37C1967.64,-328.52 1982.68,-333.4 1995,-340 2000.04,-342.7 2005.08,-346.09 2009.76,-349.59"/>
<polygon fill="black" stroke="black" points="2007.69,-352.42 2017.7,-355.89 2012.04,-346.93 2007.69,-352.42"/>
<text text-anchor="middle" x="1991.5" y="-343.8" font-family="Times,serif" font-style="italic" font-size="14.00">ε</text>
</g>
<!-- s112 -->
<g id="node38" class="node">
<title>s112</title>
<ellipse fill="none" stroke="black" cx="1110.5" cy="-253" rx="20" ry="20"/>
<text text-anchor="middle" x="1110.5" y="-250.2" font-family="Times,serif" font-size="11.00">112</text>
</g>
<!-- s113 -->
<g id="node39" class="node">
<title>s113</title>
<ellipse fill="none" stroke="black" cx="1245" cy="-253" rx="20" ry="20"/>
<text text-anchor="middle" x="1245" y="-250.2" font-family="Times,serif" font-size="11.00">113</text>
</g>
<!-- s112&#45;&gt;s113 -->
<g id="edge39" class="edge">
<title>s112&#45;&gt;s113</title>
<path fill="none" stroke="black" d="M1130.77,-253C1153.63,-253 1191.88,-253 1217.51,-253"/>
<polygon fill="black" stroke="black" points="1217.71,-255.45 1224.71,-253 1217.71,-250.55 1217.71,-255.45"/>
<text text-anchor="middle" x="1180.5" y="-256.2" font-family="Courier,monospace" font-size="11.00">8 &gt;= _p</text>
</g>
<!-- s114 -->
<g id="node40" class="node">
<title>s114</title>
<ellipse fill="none" stroke="black" cx="1766.5" cy="-260" rx="20" ry="20"/>
<text text-anchor="middle" x="1766.5" y="-257.2" font-family="Times,serif" font-size="11.00">114</text>
</g>
<!-- s113&#45;&gt;s114 -->
<g id="edge47" class="edge">
<title>s113&#45;&gt;s114</title>
<path fill="none" stroke="black" d="M1265.11,-253.26C1344.43,-254.33 1647.9,-258.42 1739.3,-259.65"/>
<polygon fill="black" stroke="black" points="1739.46,-262.1 1746.5,-259.74 1739.53,-257.2 1739.46,-262.1"/>
<text text-anchor="middle" x="1565.5" y="-260.2" font-family="Courier,monospace" font-size="11.00">&#39;&amp;&amp;&#39;</text>
</g>
<!-- s114&#45;&gt;s119 -->
<g id="edge55" class="edge">
<title>s114&#45;&gt;s119</title>
<path fill="none" stroke="black" d="M1786.39,-256.93C1824.19,-251.79 1910.58,-245.15 1970,-280 1994.62,-294.44 2011.83,-322.99 2021.76,-343.87"/>
<polygon fill="black" stroke="black" points="2019.59,-345.01 2024.73,-350.35 2024.04,-342.97 2019.59,-345.01"/>
<text text-anchor="middle" x="1936.5" y="-283.2" font-family="Courier,monospace" font-size="11.00">&lt;expr[9]&gt;</text>
</g>
<!-- s115 -->
<g id="node41" class="node">
<title>s115</title>
<ellipse fill="none" stroke="black" cx="1110.5" cy="-195" rx="20" ry="20"/>
<text text-anchor="middle" x="1110.5" y="-192.2" font-family="Times,serif" font-size="11.00">115</text>
</g>
<!-- s116 -->
<g id="node42" class="node">
<title>s116</title>
<ellipse fill="none" stroke="black" cx="1245" cy="-195" rx="20" ry="20"/>
<text text-anchor="middle" x="1245" y="-192.2" font-family="Times,serif" font-size="11.00">116</text>
</g>
<!-- s115&#45;&gt;s116 -->
<g id="edge40" class="edge">
<title>s115&#45;&gt;s116</title>
<path fill="none" stroke="black" d="M1130.77,-195C1153.63,-195 1191.88,-195 1217.51,-195"/>
<polygon fill="black" stroke="black" points="1217.71,-197.45 1224.71,-195 1217.71,-192.55 1217.71,-197.45"/>
<text text-anchor="middle" x="1180.5" y="-198.2" font-family="Courier,monospace" font-size="11.00">7 &gt;= _p</text>
</g>
<!-- s117 -->
<g id="node43" class="node">
<title>s117</title>
<ellipse fill="none" stroke="black" cx="1565.5" cy="-208" rx="20" ry="20"/>
<text text-anchor="middle" x="1565.5" y="-205.2" font-family="Times,serif" font-size="11.00">117</text>
</g>
<!-- s116&#45;&gt;s117 -->
<g id="edge48" class="edge">
<title>s116&#45;&gt;s117</title>
<path fill="none" stroke="black" d="M1265.44,-195.79C1320.21,-198.03 1475.82,-204.38 1538.18,-206.93"/>
<polygon fill="black" stroke="black" points="1538.22,-209.38 1545.31,-207.22 1538.42,-204.48 1538.22,-209.38"/>
<text text-anchor="middle" x="1316.5" y="-202.2" font-family="Courier,monospace" font-size="11.00">&#39;||&#39;</text>
</g>
<!-- s117&#45;&gt;s119 -->
<g id="edge56" class="edge">
<title>s117&#45;&gt;s119</title>
<path fill="none" stroke="black" d="M1585.51,-208.24C1610.42,-208.54 1655.48,-209 1694,-209 1694,-209 1694,-209 1937.5,-209 1998.59,-209 2021.01,-296.55 2028.54,-342.13"/>
<polygon fill="black" stroke="black" points="2026.13,-342.52 2029.63,-349.06 2030.97,-341.76 2026.13,-342.52"/>
<text text-anchor="middle" x="1766.5" y="-212.2" font-family="Courier,monospace" font-size="11.00">&lt;expr[8]&gt;</text>
</g>
<!-- s118 -->
<g id="node44" class="node">
<title>s118</title>
<polygon fill="none" stroke="black" points="984,-299 984,-459 1042,-459 1042,-299 984,-299"/>
<text text-anchor="middle" x="1003.5" y="-388.2" font-family="Times,serif" font-size="11.00">→</text>
<text text-anchor="middle" x="1003.5" y="-376.2" font-family="Times,serif" font-size="11.00">118*</text>
<text text-anchor="middle" x="1003.5" y="-364.2" font-family="Times,serif" font-size="11.00">d=10</text>
<polyline fill="none" stroke="black" points="1023,-299 1023,-459 "/>
<text text-anchor="middle" x="1032.5" y="-446.2" font-family="Times,serif" font-size="11.00"> </text>
<polyline fill="none" stroke="black" points="1023,-439 1042,-439 "/>
<text text-anchor="middle" x="1032.5" y="-426.2" font-family="Times,serif" font-size="11.00"> </text>
<polyline fill="none" stroke="black" points="1023,-419 1042,-419 "/>
<text text-anchor="middle" x="1032.5" y="-406.2" font-family="Times,serif" font-size="11.00"> </text>
<polyline fill="none" stroke="black" points="1023,-399 1042,-399 "/>
<text text-anchor="middle" x="1032.5" y="-386.2" font-family="Times,serif" font-size="11.00"> </text>
<polyline fill="none" stroke="black" points="1023,-379 1042,-379 "/>
<text text-anchor="middle" x="1032.5" y="-366.2" font-family="Times,serif" font-size="11.00"> </text>
<polyline fill="none" stroke="black" points="1023,-359 1042,-359 "/>
<text text-anchor="middle" x="1032.5" y="-346.2" font-family="Times,serif" font-size="11.00"> </text>
<polyline fill="none" stroke="black" points="1023,-339 1042,-339 "/>
<text text-anchor="middle" x="1032.5" y="-326.2" font-family="Times,serif" font-size="11.00"> </text>
<polyline fill="none" stroke="black" points="1023,-319 1042,-319 "/>
<text text-anchor="middle" x="1032.5" y="-306.2" font-family="Times,serif" font-size="11.00"> </text>
</g>
<!-- s118&#45;&gt;s91 -->
<g id="edge23" class="edge">
<title>s118:p0&#45;&gt;s91</title>
<path fill="none" stroke="black" d="M1033,-460C1033,-506.99 1066.24,-553.3 1088.89,-579.4"/>
<polygon fill="black" stroke="black" points="1086.55,-582.03 1095.82,-587.14 1091.76,-577.36 1086.55,-582.03"/>
<text text-anchor="middle" x="1063.5" y="-553.8" font-family="Times,serif" font-style="italic" font-size="14.00">ε</text>
</g>
<!-- s118&#45;&gt;s94 -->
<g id="edge24" class="edge">
<title>s118:p1&#45;&gt;s94</title>
<path fill="none" stroke="black" d="M1042,-429C1052.58,-429 1079.16,-505.18 1085,-514 1086.46,-516.21 1088.07,-518.45 1089.75,-520.64"/>
<polygon fill="black" stroke="black" points="1087.32,-523.21 1096.34,-528.77 1092.76,-518.8 1087.32,-523.21"/>
<text text-anchor="middle" x="1063.5" y="-473.8" font-family="Times,serif" font-style="italic" font-size="14.00">ε</text>
</g>
<!-- s118&#45;&gt;s97 -->
<g id="edge25" class="edge">
<title>s118:p2&#45;&gt;s97</title>
<path fill="none" stroke="black" d="M1042,-409C1043.8,-409 1070.67,-439.81 1089.95,-462.19"/>
<polygon fill="black" stroke="black" points="1087.48,-464.69 1096.66,-469.98 1092.79,-460.12 1087.48,-464.69"/>
<text text-anchor="middle" x="1063.5" y="-438.8" font-family="Times,serif" font-style="italic" font-size="14.00">ε</text>
</g>
<!-- s118&#45;&gt;s100 -->
<g id="edge26" class="edge">
<title>s118:p3&#45;&gt;s100</title>
<path fill="none" stroke="black" d="M1042,-389C1058.61,-389 1074.9,-397.84 1087.32,-407"/>
<polygon fill="black" stroke="black" points="1085.24,-409.82 1095.25,-413.28 1089.59,-404.33 1085.24,-409.82"/>
<text text-anchor="middle" x="1063.5" y="-397.8" font-family="Times,serif" font-style="italic" font-size="14.00">ε</text>
</g>
<!-- s118&#45;&gt;s103 -->
<g id="edge27" class="edge">
<title>s118:p4&#45;&gt;s103</title>
<path fill="none" stroke="black" d="M1042,-369C1054.47,-369 1068.24,-369 1080.07,-369"/>
<polygon fill="black" stroke="black" points="1080.3,-372.5 1090.3,-369 1080.3,-365.5 1080.3,-372.5"/>
<text text-anchor="middle" x="1063.5" y="-372.8" font-family="Times,serif" font-style="italic" font-size="14.00">ε</text>
</g>
<!-- s118&#45;&gt;s106 -->
<g id="edge28" class="edge">
<title>s118:p5&#45;&gt;s106</title>
<path fill="none" stroke="black" d="M1042,-349C1058.61,-349 1074.9,-340.16 1087.32,-331"/>
<polygon fill="black" stroke="black" points="1089.59,-333.67 1095.25,-324.72 1085.24,-328.18 1089.59,-333.67"/>
<text text-anchor="middle" x="1063.5" y="-348.8" font-family="Times,serif" font-style="italic" font-size="14.00">ε</text>
</g>
<!-- s118&#45;&gt;s112 -->
<g id="edge29" class="edge">
<title>s118:p6&#45;&gt;s112</title>
<path fill="none" stroke="black" d="M1042,-329C1043.8,-329 1070.67,-298.19 1089.95,-275.81"/>
<polygon fill="black" stroke="black" points="1092.79,-277.88 1096.66,-268.02 1087.48,-273.31 1092.79,-277.88"/>
<text text-anchor="middle" x="1063.5" y="-311.8" font-family="Times,serif" font-style="italic" font-size="14.00">ε</text>
</g>
<!-- s118&#45;&gt;s115 -->
<g id="edge30" class="edge">
<title>s118:p7&#45;&gt;s115</title>
<path fill="none" stroke="black" d="M1033,-298C1033,-262.25 1063.07,-230.84 1085.5,-212.38"/>
<polygon fill="black" stroke="black" points="1087.96,-214.9 1093.65,-205.96 1083.63,-209.4 1087.96,-214.9"/>
<text text-anchor="middle" x="1063.5" y="-237.8" font-family="Times,serif" font-style="italic" font-size="14.00">ε</text>
</g>
<!-- s122 -->
<g id="node48" class="node">
<title>s122</title>
<ellipse fill="none" stroke="black" cx="2116" cy="-163" rx="20" ry="20"/>
<text text-anchor="middle" x="2116" y="-160.2" font-family="Times,serif" font-size="11.00">122*</text>
</g>
<!-- s119&#45;&gt;s122 -->
<g id="edge57" class="edge">
<title>s119&#45;&gt;s122</title>
<path fill="none" stroke="black" d="M2041.19,-350.72C2055.38,-314.62 2087.09,-233.97 2103.96,-191.08"/>
<polygon fill="black" stroke="black" points="2107.31,-192.12 2107.71,-181.54 2100.79,-189.56 2107.31,-192.12"/>
<text text-anchor="middle" x="2074.5" y="-275.8" font-family="Times,serif" font-style="italic" font-size="14.00">ε</text>
</g>
<!-- s120&#45;&gt;s118 -->
<g id="edge20" class="edge">
<title>s120:p0&#45;&gt;s118</title>
<path fill="none" stroke="black" d="M932,-168C932,-224.03 956.96,-283.3 979,-324.71"/>
<polygon fill="black" stroke="black" points="975.94,-326.42 983.79,-333.53 982.1,-323.07 975.94,-326.42"/>
<text text-anchor="middle" x="962.5" y="-299.8" font-family="Times,serif" font-style="italic" font-size="14.00">ε</text>
</g>
<!-- s121 -->
<g id="node47" class="node">
<title>s121</title>
<ellipse fill="none" stroke="black" cx="1013" cy="-96" rx="20" ry="20"/>
<text text-anchor="middle" x="1013" y="-93.2" font-family="Times,serif" font-size="11.00">121</text>
</g>
<!-- s120&#45;&gt;s121 -->
<g id="edge21" class="edge">
<title>s120:p1&#45;&gt;s121</title>
<path fill="none" stroke="black" d="M941,-137C952.63,-137 949.42,-124.6 959,-118 966.55,-112.8 975.52,-108.5 983.91,-105.12"/>
<polygon fill="black" stroke="black" points="985.24,-108.36 993.38,-101.58 982.79,-101.8 985.24,-108.36"/>
<text text-anchor="middle" x="962.5" y="-121.8" font-family="Times,serif" font-style="italic" font-size="14.00">ε</text>
</g>
<!-- s121&#45;&gt;s11 -->
<g id="edge31" class="edge">
<title>s121&#45;&gt;s11</title>
<path fill="none" stroke="black" d="M1033.33,-95.39C1045.14,-95.02 1060.6,-94.54 1074.51,-94.1"/>
<polygon fill="black" stroke="black" points="1074.87,-97.59 1084.75,-93.78 1074.65,-90.59 1074.87,-97.59"/>
<text text-anchor="middle" x="1063.5" y="-97.8" font-family="Times,serif" font-style="italic" font-size="14.00">ε</text>
</g>
<!-- s122&#45;&gt;s120 -->
<g id="edge59" class="edge">
<title>s122&#45;&gt;s120</title>
<path fill="none" stroke="black" stroke-dasharray="5,2" d="M2096.54,-157.22C2080.26,-152.64 2055.79,-147 2034,-147 1012,-147 1012,-147 1012,-147 991.94,-147 969.58,-147 951.2,-147"/>
<polygon fill="black" stroke="black" points="951.16,-143.5 941.16,-147 951.16,-150.5 951.16,-143.5"/>
<text text-anchor="middle" x="1565.5" y="-150.8" font-family="Times,serif" font-style="italic" font-size="14.00">ε</text>
</g>
</g>
</svg>
