<?xml version="1.0" encoding="UTF-8" standalone="no"?>
<!DOCTYPE svg PUBLIC "-//W3C//DTD SVG 1.1//EN"
 "http://www.w3.org/Graphics/SVG/1.1/DTD/svg11.dtd">
<!-- Generated by graphviz version 2.49.0 (20210828.1703)
 -->
<!-- Title: ATN Pages: 1 -->
<svg width="308pt" height="59pt"
 viewBox="0.00 0.00 308.00 59.00" xmlns="http://www.w3.org/2000/svg" xmlns:xlink="http://www.w3.org/1999/xlink">
<g id="graph0" class="graph" transform="scale(1 1) rotate(0) translate(4 55)">
<title>ATN</title>
<polygon fill="white" stroke="transparent" points="-4,4 -4,-55 304,-55 304,4 -4,4"/>
<!-- s78 -->
<g id="node1" class="node">
<title>s78</title>
<ellipse fill="none" stroke="black" cx="274.5" cy="-25.5" rx="21.5" ry="21.5"/>
<ellipse fill="none" stroke="black" cx="274.5" cy="-25.5" rx="25.5" ry="25.5"/>
<text text-anchor="middle" x="274.5" y="-22.7" font-family="Times,serif" font-size="11.00">78</text>
</g>
<!-- s307 -->
<g id="node2" class="node">
<title>s307</title>
<ellipse fill="none" stroke="black" cx="103" cy="-25.5" rx="20" ry="20"/>
<text text-anchor="middle" x="103" y="-22.7" font-family="Times,serif" font-size="11.00">307</text>
</g>
<!-- s308 -->
<g id="node3" class="node">
<title>s308</title>
<ellipse fill="none" stroke="black" cx="186" cy="-25.5" rx="20" ry="20"/>
<text text-anchor="middle" x="186" y="-22.7" font-family="Times,serif" font-size="11.00">308</text>
</g>
<!-- s307&#45;&gt;s308 -->
<g id="edge2" class="edge">
<title>s307&#45;&gt;s308</title>
<path fill="none" stroke="black" d="M123.2,-25.5C133.79,-25.5 147.1,-25.5 158.65,-25.5"/>
<polygon fill="black" stroke="black" points="158.94,-27.95 165.94,-25.5 158.94,-23.05 158.94,-27.95"/>
<text text-anchor="middle" x="144.5" y="-28.7" font-family="Courier,monospace" font-size="11.00">.</text>
</g>
<!-- s308&#45;&gt;s78 -->
<g id="edge3" class="edge">
<title>s308&#45;&gt;s78</title>
<path fill="none" stroke="black" d="M206.2,-25.5C215.7,-25.5 227.48,-25.5 238.51,-25.5"/>
<polygon fill="black" stroke="black" points="238.76,-29 248.76,-25.5 238.76,-22 238.76,-29"/>
<text text-anchor="middle" x="227.5" y="-29.3" font-family="Times,serif" font-style="italic" font-size="14.00">ε</text>
</g>
<!-- s77 -->
<g id="node4" class="node">
<title>s77</title>
<ellipse fill="none" stroke="black" cx="20" cy="-25.5" rx="20" ry="20"/>
<text text-anchor="middle" x="20" y="-22.7" font-family="Times,serif" font-size="11.00">77</text>
</g>
<!-- s77&#45;&gt;s307 -->
<g id="edge1" class="edge">
<title>s77&#45;&gt;s307</title>
<path fill="none" stroke="black" d="M40.2,-25.5C49.88,-25.5 61.84,-25.5 72.64,-25.5"/>
<polygon fill="black" stroke="black" points="72.94,-29 82.94,-25.5 72.94,-22 72.94,-29"/>
<text text-anchor="middle" x="61.5" y="-29.3" font-family="Times,serif" font-style="italic" font-size="14.00">ε</text>
</g>
</g>
</svg>
