<?xml version="1.0" encoding="UTF-8" standalone="no"?>
<!DOCTYPE svg PUBLIC "-//W3C//DTD SVG 1.1//EN"
 "http://www.w3.org/Graphics/SVG/1.1/DTD/svg11.dtd">
<!-- Generated by graphviz version 2.49.0 (20210828.1703)
 -->
<!-- Title: ATN Pages: 1 -->
<svg width="860pt" height="307pt"
 viewBox="0.00 0.00 860.00 307.07" xmlns="http://www.w3.org/2000/svg" xmlns:xlink="http://www.w3.org/1999/xlink">
<g id="graph0" class="graph" transform="scale(1 1) rotate(0) translate(4 303.07)">
<title>ATN</title>
<polygon fill="white" stroke="transparent" points="-4,4 -4,-303.07 856,-303.07 856,4 -4,4"/>
<!-- s7 -->
<g id="node1" class="node">
<title>s7</title>
<ellipse fill="none" stroke="black" cx="743.5" cy="-97.07" rx="21.5" ry="21.5"/>
<ellipse fill="none" stroke="black" cx="743.5" cy="-97.07" rx="25.5" ry="25.5"/>
<text text-anchor="middle" x="743.5" y="-94.27" font-family="Times,serif" font-size="11.00">7</text>
</g>
<!-- s32 -->
<g id="node2" class="node">
<title>s32</title>
<ellipse fill="none" stroke="black" cx="200" cy="-131.07" rx="20" ry="20"/>
<text text-anchor="middle" x="200" y="-128.27" font-family="Times,serif" font-size="11.00">32</text>
</g>
<!-- s36 -->
<g id="node6" class="node">
<title>s36</title>
<polygon fill="none" stroke="black" points="296,-138.07 296,-178.07 350,-178.07 350,-138.07 296,-138.07"/>
<text text-anchor="middle" x="313" y="-161.27" font-family="Times,serif" font-size="11.00">36*</text>
<text text-anchor="middle" x="313" y="-149.27" font-family="Times,serif" font-size="11.00">d=2</text>
<polyline fill="none" stroke="black" points="330,-138.07 330,-178.07 "/>
<text text-anchor="middle" x="340" y="-165.27" font-family="Times,serif" font-size="11.00"> </text>
<polyline fill="none" stroke="black" points="330,-158.07 350,-158.07 "/>
<text text-anchor="middle" x="340" y="-145.27" font-family="Times,serif" font-size="11.00"> </text>
</g>
<!-- s32&#45;&gt;s36 -->
<g id="edge7" class="edge">
<title>s32&#45;&gt;s36</title>
<path fill="none" stroke="black" d="M219.64,-135.23C238.07,-139.34 266.65,-145.72 288.93,-150.69"/>
<polygon fill="black" stroke="black" points="288.56,-153.12 295.92,-152.25 289.63,-148.33 288.56,-153.12"/>
<text text-anchor="middle" x="258" y="-150.27" font-family="Courier,monospace" font-size="11.00">PRINT</text>
</g>
<!-- s33 -->
<g id="node3" class="node">
<title>s33</title>
<ellipse fill="none" stroke="black" cx="602" cy="-226.07" rx="20" ry="20"/>
<text text-anchor="middle" x="602" y="-223.27" font-family="Times,serif" font-size="11.00">33</text>
</g>
<!-- s35 -->
<g id="node5" class="node">
<title>s35</title>
<ellipse fill="none" stroke="black" cx="743.5" cy="-223.07" rx="20" ry="20"/>
<text text-anchor="middle" x="743.5" y="-226.27" font-family="Times,serif" font-size="11.00">←</text>
<text text-anchor="middle" x="743.5" y="-214.27" font-family="Times,serif" font-size="11.00">35</text>
</g>
<!-- s33&#45;&gt;s35 -->
<g id="edge17" class="edge">
<title>s33&#45;&gt;s35</title>
<path fill="none" stroke="black" d="M622.1,-225.66C646.39,-225.14 688.44,-224.23 715.86,-223.64"/>
<polygon fill="black" stroke="black" points="716.23,-226.08 723.18,-223.48 716.13,-221.19 716.23,-226.08"/>
<text text-anchor="middle" x="670" y="-228.27" font-family="Courier,monospace" font-size="11.00">&lt;expr[0]&gt;</text>
</g>
<!-- s34 -->
<g id="node4" class="node">
<title>s34</title>
<ellipse fill="none" stroke="black" cx="466" cy="-221.07" rx="20" ry="20"/>
<text text-anchor="middle" x="466" y="-224.27" font-family="Times,serif" font-size="11.00">→</text>
<text text-anchor="middle" x="466" y="-212.27" font-family="Times,serif" font-size="11.00">34*</text>
</g>
<!-- s34&#45;&gt;s33 -->
<g id="edge15" class="edge">
<title>s34&#45;&gt;s33</title>
<path fill="none" stroke="black" d="M486.2,-221.79C508.59,-222.62 545.84,-224.01 571.81,-224.98"/>
<polygon fill="black" stroke="black" points="571.71,-228.48 581.84,-225.35 571.97,-221.48 571.71,-228.48"/>
<text text-anchor="middle" x="534" y="-227.87" font-family="Times,serif" font-style="italic" font-size="14.00">ε</text>
</g>
<!-- s38 -->
<g id="node9" class="node">
<title>s38</title>
<ellipse fill="none" stroke="black" cx="832" cy="-189.07" rx="20" ry="20"/>
<text text-anchor="middle" x="832" y="-186.27" font-family="Times,serif" font-size="11.00">38*</text>
</g>
<!-- s35&#45;&gt;s38 -->
<g id="edge18" class="edge">
<title>s35&#45;&gt;s38</title>
<path fill="none" stroke="black" d="M762.42,-216.02C774.37,-211.33 790.3,-205.07 803.79,-199.76"/>
<polygon fill="black" stroke="black" points="805.07,-203.02 813.1,-196.1 802.51,-196.51 805.07,-203.02"/>
<text text-anchor="middle" x="790.5" y="-209.87" font-family="Times,serif" font-style="italic" font-size="14.00">ε</text>
</g>
<!-- s36&#45;&gt;s34 -->
<g id="edge11" class="edge">
<title>s36:p0&#45;&gt;s34</title>
<path fill="none" stroke="black" d="M350,-168.07C361.63,-168.07 358.24,-180.74 368,-187.07 389.04,-200.7 416.21,-209.61 436.44,-214.88"/>
<polygon fill="black" stroke="black" points="435.77,-218.31 446.31,-217.3 437.44,-211.52 435.77,-218.31"/>
<text text-anchor="middle" x="398" y="-214.87" font-family="Times,serif" font-style="italic" font-size="14.00">ε</text>
</g>
<!-- s37 -->
<g id="node7" class="node">
<title>s37</title>
<ellipse fill="none" stroke="black" cx="466" cy="-125.07" rx="20" ry="20"/>
<text text-anchor="middle" x="466" y="-122.27" font-family="Times,serif" font-size="11.00">37</text>
</g>
<!-- s36&#45;&gt;s37 -->
<g id="edge12" class="edge">
<title>s36:p1&#45;&gt;s37</title>
<path fill="none" stroke="black" d="M350,-148.07C358.2,-148.07 359.98,-145.75 368,-144.07 390.82,-139.3 416.73,-134.24 436.03,-130.54"/>
<polygon fill="black" stroke="black" points="436.85,-133.95 446.01,-128.64 435.53,-127.08 436.85,-133.95"/>
<text text-anchor="middle" x="398" y="-147.87" font-family="Times,serif" font-style="italic" font-size="14.00">ε</text>
</g>
<!-- s42 -->
<g id="node13" class="node">
<title>s42</title>
<ellipse fill="none" stroke="black" cx="602" cy="-97.07" rx="20" ry="20"/>
<text text-anchor="middle" x="602" y="-100.27" font-family="Times,serif" font-size="11.00">←</text>
<text text-anchor="middle" x="602" y="-88.27" font-family="Times,serif" font-size="11.00">42</text>
</g>
<!-- s37&#45;&gt;s42 -->
<g id="edge16" class="edge">
<title>s37&#45;&gt;s42</title>
<path fill="none" stroke="black" d="M485.63,-121.18C508.01,-116.5 545.79,-108.6 571.99,-103.13"/>
<polygon fill="black" stroke="black" points="573.02,-106.49 582.09,-101.02 571.59,-99.64 573.02,-106.49"/>
<text text-anchor="middle" x="534" y="-119.87" font-family="Times,serif" font-style="italic" font-size="14.00">ε</text>
</g>
<!-- s6 -->
<g id="node8" class="node">
<title>s6</title>
<ellipse fill="none" stroke="black" cx="20" cy="-103.07" rx="20" ry="20"/>
<text text-anchor="middle" x="20" y="-100.27" font-family="Times,serif" font-size="11.00">6</text>
</g>
<!-- s41 -->
<g id="node12" class="node">
<title>s41</title>
<polygon fill="none" stroke="black" points="83,-63.07 83,-143.07 137,-143.07 137,-63.07 83,-63.07"/>
<text text-anchor="middle" x="100" y="-112.27" font-family="Times,serif" font-size="11.00">→</text>
<text text-anchor="middle" x="100" y="-100.27" font-family="Times,serif" font-size="11.00">41</text>
<text text-anchor="middle" x="100" y="-88.27" font-family="Times,serif" font-size="11.00">d=3</text>
<polyline fill="none" stroke="black" points="117,-63.07 117,-143.07 "/>
<text text-anchor="middle" x="127" y="-130.27" font-family="Times,serif" font-size="11.00"> </text>
<polyline fill="none" stroke="black" points="117,-123.07 137,-123.07 "/>
<text text-anchor="middle" x="127" y="-110.27" font-family="Times,serif" font-size="11.00"> </text>
<polyline fill="none" stroke="black" points="117,-103.07 137,-103.07 "/>
<text text-anchor="middle" x="127" y="-90.27" font-family="Times,serif" font-size="11.00"> </text>
<polyline fill="none" stroke="black" points="117,-83.07 137,-83.07 "/>
<text text-anchor="middle" x="127" y="-70.27" font-family="Times,serif" font-size="11.00"> </text>
</g>
<!-- s6&#45;&gt;s41 -->
<g id="edge1" class="edge">
<title>s6&#45;&gt;s41</title>
<path fill="none" stroke="black" d="M40.09,-103.07C49.69,-103.07 61.65,-103.07 72.89,-103.07"/>
<polygon fill="black" stroke="black" points="72.93,-106.57 82.93,-103.07 72.93,-99.57 72.93,-106.57"/>
<text text-anchor="middle" x="61.5" y="-106.87" font-family="Times,serif" font-style="italic" font-size="14.00">ε</text>
</g>
<!-- s38&#45;&gt;s36 -->
<g id="edge19" class="edge">
<title>s38&#45;&gt;s36</title>
<path fill="none" stroke="black" stroke-dasharray="5,2" d="M812.62,-183.65C795.23,-179.01 768.32,-173.07 744.5,-173.07 465,-173.07 465,-173.07 465,-173.07 429.31,-173.07 388.82,-168.26 360.42,-164.09"/>
<polygon fill="black" stroke="black" points="360.57,-160.57 350.16,-162.53 359.52,-167.49 360.57,-160.57"/>
<text text-anchor="middle" x="602" y="-176.87" font-family="Times,serif" font-style="italic" font-size="14.00">ε</text>
</g>
<!-- s39 -->
<g id="node10" class="node">
<title>s39</title>
<ellipse fill="none" stroke="black" cx="258" cy="-79.07" rx="20" ry="20"/>
<text text-anchor="middle" x="258" y="-76.27" font-family="Times,serif" font-size="11.00">39</text>
</g>
<!-- s39&#45;&gt;s42 -->
<g id="edge8" class="edge">
<title>s39&#45;&gt;s42</title>
<path fill="none" stroke="black" d="M278.37,-80.09C336.33,-83.14 508.5,-92.2 574.68,-95.68"/>
<polygon fill="black" stroke="black" points="574.73,-98.14 581.85,-96.06 574.98,-93.25 574.73,-98.14"/>
<text text-anchor="middle" x="398" y="-90.27" font-family="Courier,monospace" font-size="11.00">&lt;expr[0]&gt;</text>
</g>
<!-- s40 -->
<g id="node11" class="node">
<title>s40</title>
<ellipse fill="none" stroke="black" cx="398" cy="-34.07" rx="20" ry="20"/>
<text text-anchor="middle" x="398" y="-31.27" font-family="Times,serif" font-size="11.00">40</text>
</g>
<!-- s40&#45;&gt;s42 -->
<g id="edge9" class="edge">
<title>s40&#45;&gt;s42</title>
<path fill="none" stroke="black" d="M418.13,-34.01C450.02,-34.64 515.36,-39.06 564,-63.07 570.92,-66.49 577.48,-71.6 583.1,-76.84"/>
<polygon fill="black" stroke="black" points="581.68,-78.88 588.38,-82.05 585.12,-75.39 581.68,-78.88"/>
<text text-anchor="middle" x="466" y="-43.27" font-family="Courier,monospace" font-size="11.00">VARS</text>
</g>
<!-- s41&#45;&gt;s32 -->
<g id="edge3" class="edge">
<title>s41:p1&#45;&gt;s32</title>
<path fill="none" stroke="black" d="M137,-113.07C148.72,-113.07 161.21,-116.07 171.89,-119.63"/>
<polygon fill="black" stroke="black" points="170.89,-122.99 181.48,-123.12 173.29,-116.41 170.89,-122.99"/>
<text text-anchor="middle" x="158.5" y="-119.87" font-family="Times,serif" font-style="italic" font-size="14.00">ε</text>
</g>
<!-- s41&#45;&gt;s39 -->
<g id="edge4" class="edge">
<title>s41:p2&#45;&gt;s39</title>
<path fill="none" stroke="black" d="M137,-93.07C168.24,-93.07 203.76,-88.33 227.99,-84.36"/>
<polygon fill="black" stroke="black" points="228.69,-87.8 237.96,-82.67 227.51,-80.9 228.69,-87.8"/>
<text text-anchor="middle" x="158.5" y="-95.87" font-family="Times,serif" font-style="italic" font-size="14.00">ε</text>
</g>
<!-- s41&#45;&gt;s40 -->
<g id="edge5" class="edge">
<title>s41:p3&#45;&gt;s40</title>
<path fill="none" stroke="black" d="M127,-62.07C127,34.31 299.3,-5.43 368.62,-25.31"/>
<polygon fill="black" stroke="black" points="367.86,-28.74 378.44,-28.2 369.83,-22.02 367.86,-28.74"/>
<text text-anchor="middle" x="200" y="-7.87" font-family="Times,serif" font-style="italic" font-size="14.00">ε</text>
</g>
<!-- s29 -->
<g id="node14" class="node">
<title>s29</title>
<ellipse fill="none" stroke="black" cx="200" cy="-190.07" rx="20" ry="20"/>
<text text-anchor="middle" x="200" y="-187.27" font-family="Times,serif" font-size="11.00">29</text>
</g>
<!-- s41&#45;&gt;s29 -->
<g id="edge2" class="edge">
<title>s41:p0&#45;&gt;s29</title>
<path fill="none" stroke="black" d="M127,-144.07C127,-165.64 150.24,-177.55 170.31,-183.81"/>
<polygon fill="black" stroke="black" points="169.51,-187.22 180.08,-186.52 171.38,-180.48 169.51,-187.22"/>
<text text-anchor="middle" x="158.5" y="-183.87" font-family="Times,serif" font-style="italic" font-size="14.00">ε</text>
</g>
<!-- s42&#45;&gt;s7 -->
<g id="edge13" class="edge">
<title>s42&#45;&gt;s7</title>
<path fill="none" stroke="black" d="M622.1,-97.07C643.98,-97.07 680.26,-97.07 707.29,-97.07"/>
<polygon fill="black" stroke="black" points="707.51,-100.57 717.51,-97.07 707.51,-93.57 707.51,-100.57"/>
<text text-anchor="middle" x="670" y="-100.87" font-family="Times,serif" font-style="italic" font-size="14.00">ε</text>
</g>
<!-- s30 -->
<g id="node15" class="node">
<title>s30</title>
<ellipse fill="none" stroke="black" cx="323" cy="-242.07" rx="20" ry="20"/>
<text text-anchor="middle" x="323" y="-239.27" font-family="Times,serif" font-size="11.00">30</text>
</g>
<!-- s29&#45;&gt;s30 -->
<g id="edge6" class="edge">
<title>s29&#45;&gt;s30</title>
<path fill="none" stroke="black" d="M218.59,-197.63C239.47,-206.6 274.4,-221.61 297.81,-231.67"/>
<polygon fill="black" stroke="black" points="296.99,-233.99 304.38,-234.5 298.92,-229.48 296.99,-233.99"/>
<text text-anchor="middle" x="258" y="-225.27" font-family="Courier,monospace" font-size="11.00">ID</text>
</g>
<!-- s31 -->
<g id="node16" class="node">
<title>s31</title>
<ellipse fill="none" stroke="black" cx="466" cy="-279.07" rx="20" ry="20"/>
<text text-anchor="middle" x="466" y="-276.27" font-family="Times,serif" font-size="11.00">31</text>
</g>
<!-- s30&#45;&gt;s31 -->
<g id="edge10" class="edge">
<title>s30&#45;&gt;s31</title>
<path fill="none" stroke="black" d="M342.43,-246.91C367.24,-253.42 411.48,-265.02 439.47,-272.37"/>
<polygon fill="black" stroke="black" points="439.17,-274.82 446.56,-274.23 440.41,-270.08 439.17,-274.82"/>
<text text-anchor="middle" x="398" y="-272.27" font-family="Courier,monospace" font-size="11.00">&#39;=&#39;</text>
</g>
<!-- s31&#45;&gt;s42 -->
<g id="edge14" class="edge">
<title>s31&#45;&gt;s42</title>
<path fill="none" stroke="black" d="M486.18,-277.44C508.37,-274.48 544.34,-266.2 564,-243.07 590.98,-211.32 571.06,-191.27 582,-151.07 584.62,-141.44 588.11,-131.06 591.38,-121.99"/>
<polygon fill="black" stroke="black" points="593.71,-122.77 593.82,-115.35 589.11,-121.08 593.71,-122.77"/>
<text text-anchor="middle" x="534" y="-277.27" font-family="Courier,monospace" font-size="11.00">&lt;expr[0]&gt;</text>
</g>
</g>
</svg>
