<?xml version="1.0" encoding="UTF-8" standalone="no"?>
<!DOCTYPE svg PUBLIC "-//W3C//DTD SVG 1.1//EN"
 "http://www.w3.org/Graphics/SVG/1.1/DTD/svg11.dtd">
<!-- Generated by graphviz version 2.49.0 (20210828.1703)
 -->
<!-- Title: ATN Pages: 1 -->
<svg width="444pt" height="59pt"
 viewBox="0.00 0.00 444.00 59.00" xmlns="http://www.w3.org/2000/svg" xmlns:xlink="http://www.w3.org/1999/xlink">
<g id="graph0" class="graph" transform="scale(1 1) rotate(0) translate(4 55)">
<title>ATN</title>
<polygon fill="white" stroke="transparent" points="-4,4 -4,-55 440,-55 440,4 -4,4"/>
<!-- s3 -->
<g id="node1" class="node">
<title>s3</title>
<ellipse fill="none" stroke="black" cx="410.5" cy="-25.5" rx="21.5" ry="21.5"/>
<ellipse fill="none" stroke="black" cx="410.5" cy="-25.5" rx="25.5" ry="25.5"/>
<text text-anchor="middle" x="410.5" y="-22.7" font-family="Times,serif" font-size="11.00">3</text>
</g>
<!-- s2 -->
<g id="node2" class="node">
<title>s2</title>
<ellipse fill="none" stroke="black" cx="20" cy="-25.5" rx="20" ry="20"/>
<text text-anchor="middle" x="20" y="-22.7" font-family="Times,serif" font-size="11.00">2</text>
</g>
<!-- s20 -->
<g id="node3" class="node">
<title>s20</title>
<ellipse fill="none" stroke="black" cx="103" cy="-25.5" rx="20" ry="20"/>
<text text-anchor="middle" x="103" y="-22.7" font-family="Times,serif" font-size="11.00">20</text>
</g>
<!-- s2&#45;&gt;s20 -->
<g id="edge1" class="edge">
<title>s2&#45;&gt;s20</title>
<path fill="none" stroke="black" d="M40.2,-25.5C49.88,-25.5 61.84,-25.5 72.64,-25.5"/>
<polygon fill="black" stroke="black" points="72.94,-29 82.94,-25.5 72.94,-22 72.94,-29"/>
<text text-anchor="middle" x="61.5" y="-29.3" font-family="Times,serif" font-style="italic" font-size="14.00">ε</text>
</g>
<!-- s21 -->
<g id="node4" class="node">
<title>s21</title>
<ellipse fill="none" stroke="black" cx="226" cy="-25.5" rx="20" ry="20"/>
<text text-anchor="middle" x="226" y="-22.7" font-family="Times,serif" font-size="11.00">21</text>
</g>
<!-- s20&#45;&gt;s21 -->
<g id="edge2" class="edge">
<title>s20&#45;&gt;s21</title>
<path fill="none" stroke="black" d="M123.17,-25.5C143.62,-25.5 176.12,-25.5 198.89,-25.5"/>
<polygon fill="black" stroke="black" points="198.92,-27.95 205.92,-25.5 198.92,-23.05 198.92,-27.95"/>
<text text-anchor="middle" x="164.5" y="-28.7" font-family="Courier,monospace" font-size="11.00">&lt;stmts&gt;</text>
</g>
<!-- s22 -->
<g id="node5" class="node">
<title>s22</title>
<ellipse fill="none" stroke="black" cx="322" cy="-25.5" rx="20" ry="20"/>
<text text-anchor="middle" x="322" y="-22.7" font-family="Times,serif" font-size="11.00">22</text>
</g>
<!-- s21&#45;&gt;s22 -->
<g id="edge3" class="edge">
<title>s21&#45;&gt;s22</title>
<path fill="none" stroke="black" d="M246.02,-25.5C259.95,-25.5 279.02,-25.5 294.44,-25.5"/>
<polygon fill="black" stroke="black" points="294.68,-27.95 301.68,-25.5 294.68,-23.05 294.68,-27.95"/>
<text text-anchor="middle" x="274" y="-28.7" font-family="Courier,monospace" font-size="11.00">EOF</text>
</g>
<!-- s22&#45;&gt;s3 -->
<g id="edge4" class="edge">
<title>s22&#45;&gt;s3</title>
<path fill="none" stroke="black" d="M342.2,-25.5C351.7,-25.5 363.48,-25.5 374.51,-25.5"/>
<polygon fill="black" stroke="black" points="374.76,-29 384.76,-25.5 374.76,-22 374.76,-29"/>
<text text-anchor="middle" x="363.5" y="-29.3" font-family="Times,serif" font-style="italic" font-size="14.00">ε</text>
</g>
</g>
</svg>
