<?xml version="1.0" encoding="UTF-8" standalone="no"?>
<!DOCTYPE svg PUBLIC "-//W3C//DTD SVG 1.1//EN"
 "http://www.w3.org/Graphics/SVG/1.1/DTD/svg11.dtd">
<!-- Generated by graphviz version 2.49.0 (20210828.1703)
 -->
<!-- Title: ATN Pages: 1 -->
<svg width="417pt" height="59pt"
 viewBox="0.00 0.00 417.00 59.00" xmlns="http://www.w3.org/2000/svg" xmlns:xlink="http://www.w3.org/1999/xlink">
<g id="graph0" class="graph" transform="scale(1 1) rotate(0) translate(4 55)">
<title>ATN</title>
<polygon fill="white" stroke="transparent" points="-4,4 -4,-55 413,-55 413,4 -4,4"/>
<!-- s28 -->
<g id="node1" class="node">
<title>s28</title>
<ellipse fill="none" stroke="black" cx="383.5" cy="-25.5" rx="21.5" ry="21.5"/>
<ellipse fill="none" stroke="black" cx="383.5" cy="-25.5" rx="25.5" ry="25.5"/>
<text text-anchor="middle" x="383.5" y="-22.7" font-family="Times,serif" font-size="11.00">28</text>
</g>
<!-- s160 -->
<g id="node2" class="node">
<title>s160</title>
<ellipse fill="none" stroke="black" cx="295" cy="-25.5" rx="20" ry="20"/>
<text text-anchor="middle" x="295" y="-22.7" font-family="Times,serif" font-size="11.00">160</text>
</g>
<!-- s160&#45;&gt;s28 -->
<g id="edge4" class="edge">
<title>s160&#45;&gt;s28</title>
<path fill="none" stroke="black" d="M315.2,-25.5C324.7,-25.5 336.48,-25.5 347.51,-25.5"/>
<polygon fill="black" stroke="black" points="347.76,-29 357.76,-25.5 347.76,-22 347.76,-29"/>
<text text-anchor="middle" x="336.5" y="-29.3" font-family="Times,serif" font-style="italic" font-size="14.00">ε</text>
</g>
<!-- s27 -->
<g id="node3" class="node">
<title>s27</title>
<ellipse fill="none" stroke="black" cx="20" cy="-25.5" rx="20" ry="20"/>
<text text-anchor="middle" x="20" y="-22.7" font-family="Times,serif" font-size="11.00">27</text>
</g>
<!-- s158 -->
<g id="node4" class="node">
<title>s158</title>
<ellipse fill="none" stroke="black" cx="103" cy="-25.5" rx="20" ry="20"/>
<text text-anchor="middle" x="103" y="-22.7" font-family="Times,serif" font-size="11.00">158</text>
</g>
<!-- s27&#45;&gt;s158 -->
<g id="edge1" class="edge">
<title>s27&#45;&gt;s158</title>
<path fill="none" stroke="black" d="M40.2,-25.5C49.88,-25.5 61.84,-25.5 72.64,-25.5"/>
<polygon fill="black" stroke="black" points="72.94,-29 82.94,-25.5 72.94,-22 72.94,-29"/>
<text text-anchor="middle" x="61.5" y="-29.3" font-family="Times,serif" font-style="italic" font-size="14.00">ε</text>
</g>
<!-- s159 -->
<g id="node5" class="node">
<title>s159</title>
<ellipse fill="none" stroke="black" cx="199" cy="-25.5" rx="20" ry="20"/>
<text text-anchor="middle" x="199" y="-22.7" font-family="Times,serif" font-size="11.00">159</text>
</g>
<!-- s158&#45;&gt;s159 -->
<g id="edge2" class="edge">
<title>s158&#45;&gt;s159</title>
<path fill="none" stroke="black" d="M123.02,-25.5C136.95,-25.5 156.02,-25.5 171.44,-25.5"/>
<polygon fill="black" stroke="black" points="171.68,-27.95 178.68,-25.5 171.68,-23.05 171.68,-27.95"/>
<text text-anchor="middle" x="151" y="-28.7" font-family="Courier,monospace" font-size="11.00">&#39;!&#39;</text>
</g>
<!-- s159&#45;&gt;s160 -->
<g id="edge3" class="edge">
<title>s159&#45;&gt;s160</title>
<path fill="none" stroke="black" d="M219.02,-25.5C232.95,-25.5 252.02,-25.5 267.44,-25.5"/>
<polygon fill="black" stroke="black" points="267.68,-27.95 274.68,-25.5 267.68,-23.05 267.68,-27.95"/>
<text text-anchor="middle" x="247" y="-28.7" font-family="Courier,monospace" font-size="11.00">&#39;=&#39;</text>
</g>
</g>
</svg>
