<?xml version="1.0" encoding="UTF-8" standalone="no"?>
<!DOCTYPE svg PUBLIC "-//W3C//DTD SVG 1.1//EN"
 "http://www.w3.org/Graphics/SVG/1.1/DTD/svg11.dtd">
<!-- Generated by graphviz version 2.49.0 (20210828.1703)
 -->
<!-- Title: ATN Pages: 1 -->
<svg width="940pt" height="353pt"
 viewBox="0.00 0.00 940.00 352.50" xmlns="http://www.w3.org/2000/svg" xmlns:xlink="http://www.w3.org/1999/xlink">
<g id="graph0" class="graph" transform="scale(1 1) rotate(0) translate(4 348.5)">
<title>ATN</title>
<polygon fill="white" stroke="transparent" points="-4,4 -4,-348.5 936,-348.5 936,4 -4,4"/>
<!-- s64 -->
<g id="node1" class="node">
<title>s64</title>
<ellipse fill="none" stroke="black" cx="906.5" cy="-25.5" rx="21.5" ry="21.5"/>
<ellipse fill="none" stroke="black" cx="906.5" cy="-25.5" rx="25.5" ry="25.5"/>
<text text-anchor="middle" x="906.5" y="-22.7" font-family="Times,serif" font-size="11.00">64</text>
</g>
<!-- s230 -->
<g id="node2" class="node">
<title>s230</title>
<ellipse fill="none" stroke="black" cx="103" cy="-213.5" rx="20" ry="20"/>
<text text-anchor="middle" x="103" y="-210.7" font-family="Times,serif" font-size="11.00">230</text>
</g>
<!-- s235 -->
<g id="node7" class="node">
<title>s235</title>
<polygon fill="none" stroke="black" points="206,-193.5 206,-233.5 263,-233.5 263,-193.5 206,-193.5"/>
<text text-anchor="middle" x="225" y="-216.7" font-family="Times,serif" font-size="11.00">235*</text>
<text text-anchor="middle" x="225" y="-204.7" font-family="Times,serif" font-size="11.00">d=2</text>
<polyline fill="none" stroke="black" points="244,-193.5 244,-233.5 "/>
<text text-anchor="middle" x="253.5" y="-220.7" font-family="Times,serif" font-size="11.00"> </text>
<polyline fill="none" stroke="black" points="244,-213.5 263,-213.5 "/>
<text text-anchor="middle" x="253.5" y="-200.7" font-family="Times,serif" font-size="11.00"> </text>
</g>
<!-- s230&#45;&gt;s235 -->
<g id="edge2" class="edge">
<title>s230&#45;&gt;s235</title>
<path fill="none" stroke="black" d="M123.11,-213.5C142.87,-213.5 174.19,-213.5 198.42,-213.5"/>
<polygon fill="black" stroke="black" points="198.69,-215.95 205.69,-213.5 198.69,-211.05 198.69,-215.95"/>
<text text-anchor="middle" x="164.5" y="-216.7" font-family="Courier,monospace" font-size="11.00">&lt;DIGIT&gt;</text>
</g>
<!-- s231 -->
<g id="node3" class="node">
<title>s231</title>
<ellipse fill="none" stroke="black" cx="433" cy="-324.5" rx="20" ry="20"/>
<text text-anchor="middle" x="433" y="-321.7" font-family="Times,serif" font-size="11.00">231</text>
</g>
<!-- s234 -->
<g id="node6" class="node">
<title>s234</title>
<ellipse fill="none" stroke="black" cx="572" cy="-266.5" rx="20" ry="20"/>
<text text-anchor="middle" x="572" y="-269.7" font-family="Times,serif" font-size="11.00">←</text>
<text text-anchor="middle" x="572" y="-257.7" font-family="Times,serif" font-size="11.00">234</text>
</g>
<!-- s231&#45;&gt;s234 -->
<g id="edge8" class="edge">
<title>s231&#45;&gt;s234</title>
<path fill="none" stroke="black" d="M451.63,-317.04C475.75,-306.83 519.14,-288.46 546.43,-276.9"/>
<polygon fill="black" stroke="black" points="547.51,-279.1 553,-274.12 545.6,-274.59 547.51,-279.1"/>
<text text-anchor="middle" x="501.5" y="-308.7" font-family="Courier,monospace" font-size="11.00">&lt;DIGIT&gt;</text>
</g>
<!-- s232 -->
<g id="node4" class="node">
<title>s232</title>
<ellipse fill="none" stroke="black" cx="433" cy="-266.5" rx="20" ry="20"/>
<text text-anchor="middle" x="433" y="-263.7" font-family="Times,serif" font-size="11.00">232</text>
</g>
<!-- s232&#45;&gt;s234 -->
<g id="edge9" class="edge">
<title>s232&#45;&gt;s234</title>
<path fill="none" stroke="black" d="M453.05,-266.5C476.84,-266.5 517.67,-266.5 544.5,-266.5"/>
<polygon fill="black" stroke="black" points="544.67,-268.95 551.67,-266.5 544.67,-264.05 544.67,-268.95"/>
<text text-anchor="middle" x="501.5" y="-269.7" font-family="Courier,monospace" font-size="11.00">&#39;_&#39;</text>
</g>
<!-- s233 -->
<g id="node5" class="node">
<title>s233</title>
<polygon fill="none" stroke="black" points="306,-255.5 306,-299.5 363,-299.5 363,-255.5 306,-255.5"/>
<text text-anchor="middle" x="325" y="-286.7" font-family="Times,serif" font-size="11.00">→</text>
<text text-anchor="middle" x="325" y="-274.7" font-family="Times,serif" font-size="11.00">233*</text>
<text text-anchor="middle" x="325" y="-262.7" font-family="Times,serif" font-size="11.00">d=1</text>
<polyline fill="none" stroke="black" points="344,-255.5 344,-299.5 "/>
<text text-anchor="middle" x="353.5" y="-285.7" font-family="Times,serif" font-size="11.00"> </text>
<polyline fill="none" stroke="black" points="344,-277.5 363,-277.5 "/>
<text text-anchor="middle" x="353.5" y="-263.7" font-family="Times,serif" font-size="11.00"> </text>
</g>
<!-- s233&#45;&gt;s231 -->
<g id="edge5" class="edge">
<title>s233:p0&#45;&gt;s231</title>
<path fill="none" stroke="black" d="M363,-288.5C379.8,-288.5 396.55,-296.99 409.34,-305.72"/>
<polygon fill="black" stroke="black" points="407.38,-308.62 417.52,-311.71 411.52,-302.98 407.38,-308.62"/>
<text text-anchor="middle" x="384.5" y="-297.3" font-family="Times,serif" font-style="italic" font-size="14.00">ε</text>
</g>
<!-- s233&#45;&gt;s232 -->
<g id="edge6" class="edge">
<title>s233:p1&#45;&gt;s232</title>
<path fill="none" stroke="black" d="M363,-266.5C376.06,-266.5 390.52,-266.5 402.81,-266.5"/>
<polygon fill="black" stroke="black" points="402.96,-270 412.96,-266.5 402.96,-263 402.96,-270"/>
<text text-anchor="middle" x="384.5" y="-270.3" font-family="Times,serif" font-style="italic" font-size="14.00">ε</text>
</g>
<!-- s237 -->
<g id="node9" class="node">
<title>s237</title>
<ellipse fill="none" stroke="black" cx="686" cy="-243.5" rx="20" ry="20"/>
<text text-anchor="middle" x="686" y="-240.7" font-family="Times,serif" font-size="11.00">237*</text>
</g>
<!-- s234&#45;&gt;s237 -->
<g id="edge12" class="edge">
<title>s234&#45;&gt;s237</title>
<path fill="none" stroke="black" d="M591.75,-262.65C609.35,-259.03 635.95,-253.57 656.24,-249.41"/>
<polygon fill="black" stroke="black" points="657.1,-252.8 666.19,-247.36 655.69,-245.95 657.1,-252.8"/>
<text text-anchor="middle" x="629" y="-259.3" font-family="Times,serif" font-style="italic" font-size="14.00">ε</text>
</g>
<!-- s235&#45;&gt;s233 -->
<g id="edge3" class="edge">
<title>s235:p0&#45;&gt;s233</title>
<path fill="none" stroke="black" d="M253.5,-234.5C253.5,-255.5 275.16,-266.29 295.94,-271.81"/>
<polygon fill="black" stroke="black" points="295.44,-275.28 305.97,-274.11 297.01,-268.46 295.44,-275.28"/>
<text text-anchor="middle" x="284.5" y="-272.3" font-family="Times,serif" font-style="italic" font-size="14.00">ε</text>
</g>
<!-- s236 -->
<g id="node8" class="node">
<title>s236</title>
<ellipse fill="none" stroke="black" cx="334.5" cy="-162.5" rx="20" ry="20"/>
<text text-anchor="middle" x="334.5" y="-159.7" font-family="Times,serif" font-size="11.00">236</text>
</g>
<!-- s235&#45;&gt;s236 -->
<g id="edge4" class="edge">
<title>s235:p1&#45;&gt;s236</title>
<path fill="none" stroke="black" d="M253.5,-192.5C253.5,-170.12 281.29,-163.7 304.12,-162.2"/>
<polygon fill="black" stroke="black" points="304.27,-165.7 314.13,-161.82 304.01,-158.7 304.27,-165.7"/>
<text text-anchor="middle" x="284.5" y="-169.3" font-family="Times,serif" font-style="italic" font-size="14.00">ε</text>
</g>
<!-- s245 -->
<g id="node17" class="node">
<title>s245</title>
<polygon fill="none" stroke="black" points="406,-132.5 406,-176.5 460,-176.5 460,-132.5 406,-132.5"/>
<text text-anchor="middle" x="423" y="-163.7" font-family="Times,serif" font-size="11.00">→</text>
<text text-anchor="middle" x="423" y="-151.7" font-family="Times,serif" font-size="11.00">245</text>
<text text-anchor="middle" x="423" y="-139.7" font-family="Times,serif" font-size="11.00">d=5</text>
<polyline fill="none" stroke="black" points="440,-132.5 440,-176.5 "/>
<text text-anchor="middle" x="450" y="-162.7" font-family="Times,serif" font-size="11.00"> </text>
<polyline fill="none" stroke="black" points="440,-154.5 460,-154.5 "/>
<text text-anchor="middle" x="450" y="-140.7" font-family="Times,serif" font-size="11.00"> </text>
</g>
<!-- s236&#45;&gt;s245 -->
<g id="edge7" class="edge">
<title>s236&#45;&gt;s245</title>
<path fill="none" stroke="black" d="M354.57,-160.92C366.21,-159.95 381.48,-158.69 395.39,-157.54"/>
<polygon fill="black" stroke="black" points="395.99,-161 405.67,-156.68 395.41,-154.02 395.99,-161"/>
<text text-anchor="middle" x="384.5" y="-162.3" font-family="Times,serif" font-style="italic" font-size="14.00">ε</text>
</g>
<!-- s237&#45;&gt;s235 -->
<g id="edge15" class="edge">
<title>s237&#45;&gt;s235</title>
<path fill="none" stroke="black" stroke-dasharray="5,2" d="M667.54,-235.77C645.83,-226.89 607.42,-213.5 573,-213.5 333.5,-213.5 333.5,-213.5 333.5,-213.5 313.73,-213.5 291.72,-213.5 273.57,-213.5"/>
<polygon fill="black" stroke="black" points="273.38,-210 263.38,-213.5 273.38,-217 273.38,-210"/>
<text text-anchor="middle" x="433" y="-217.3" font-family="Times,serif" font-style="italic" font-size="14.00">ε</text>
</g>
<!-- s238 -->
<g id="node10" class="node">
<title>s238</title>
<ellipse fill="none" stroke="black" cx="572" cy="-165.5" rx="20" ry="20"/>
<text text-anchor="middle" x="572" y="-162.7" font-family="Times,serif" font-size="11.00">238</text>
</g>
<!-- s241 -->
<g id="node13" class="node">
<title>s241</title>
<polygon fill="none" stroke="black" points="657,-146.5 657,-190.5 715,-190.5 715,-146.5 657,-146.5"/>
<text text-anchor="middle" x="676.5" y="-177.7" font-family="Times,serif" font-size="11.00">→</text>
<text text-anchor="middle" x="676.5" y="-165.7" font-family="Times,serif" font-size="11.00">241+</text>
<text text-anchor="middle" x="676.5" y="-153.7" font-family="Times,serif" font-size="11.00">d=3</text>
<polyline fill="none" stroke="black" points="696,-146.5 696,-190.5 "/>
<text text-anchor="middle" x="705.5" y="-176.7" font-family="Times,serif" font-size="11.00"> </text>
<polyline fill="none" stroke="black" points="696,-168.5 715,-168.5 "/>
<text text-anchor="middle" x="705.5" y="-154.7" font-family="Times,serif" font-size="11.00"> </text>
</g>
<!-- s238&#45;&gt;s241 -->
<g id="edge13" class="edge">
<title>s238&#45;&gt;s241</title>
<path fill="none" stroke="black" d="M592,-166.01C607.72,-166.43 630.47,-167.04 649.54,-167.55"/>
<polygon fill="black" stroke="black" points="649.58,-170 656.64,-167.74 649.71,-165.1 649.58,-170"/>
<text text-anchor="middle" x="629" y="-169.7" font-family="Courier,monospace" font-size="11.00">&#39;.&#39;</text>
</g>
<!-- s239 -->
<g id="node11" class="node">
<title>s239</title>
<ellipse fill="none" stroke="black" cx="778" cy="-206.5" rx="20" ry="20"/>
<text text-anchor="middle" x="778" y="-203.7" font-family="Times,serif" font-size="11.00">239</text>
</g>
<!-- s242 -->
<g id="node14" class="node">
<title>s242</title>
<ellipse fill="none" stroke="black" cx="906.5" cy="-148.5" rx="20" ry="20"/>
<text text-anchor="middle" x="906.5" y="-151.7" font-family="Times,serif" font-size="11.00">←</text>
<text text-anchor="middle" x="906.5" y="-139.7" font-family="Times,serif" font-size="11.00">242</text>
</g>
<!-- s239&#45;&gt;s242 -->
<g id="edge18" class="edge">
<title>s239&#45;&gt;s242</title>
<path fill="none" stroke="black" d="M796.59,-198.44C818.68,-188.31 856.68,-170.88 881.45,-159.53"/>
<polygon fill="black" stroke="black" points="882.72,-161.64 888.06,-156.5 880.68,-157.19 882.72,-161.64"/>
<text text-anchor="middle" x="839.5" y="-191.7" font-family="Courier,monospace" font-size="11.00">&lt;DIGIT&gt;</text>
</g>
<!-- s240 -->
<g id="node12" class="node">
<title>s240</title>
<ellipse fill="none" stroke="black" cx="778" cy="-148.5" rx="20" ry="20"/>
<text text-anchor="middle" x="778" y="-145.7" font-family="Times,serif" font-size="11.00">240</text>
</g>
<!-- s240&#45;&gt;s242 -->
<g id="edge19" class="edge">
<title>s240&#45;&gt;s242</title>
<path fill="none" stroke="black" d="M798.21,-148.5C819.76,-148.5 854.84,-148.5 878.99,-148.5"/>
<polygon fill="black" stroke="black" points="879.11,-150.95 886.11,-148.5 879.11,-146.05 879.11,-150.95"/>
<text text-anchor="middle" x="839.5" y="-151.7" font-family="Courier,monospace" font-size="11.00">&#39;_&#39;</text>
</g>
<!-- s241&#45;&gt;s239 -->
<g id="edge16" class="edge">
<title>s241:p0&#45;&gt;s239</title>
<path fill="none" stroke="black" d="M715,-179.5C727.98,-179.5 741.32,-184.54 752.28,-190.26"/>
<polygon fill="black" stroke="black" points="750.82,-193.46 761.24,-195.36 754.28,-187.37 750.82,-193.46"/>
<text text-anchor="middle" x="736.5" y="-188.3" font-family="Times,serif" font-style="italic" font-size="14.00">ε</text>
</g>
<!-- s241&#45;&gt;s240 -->
<g id="edge17" class="edge">
<title>s241:p1&#45;&gt;s240</title>
<path fill="none" stroke="black" d="M715,-157.5C726.01,-157.5 738.01,-156.09 748.5,-154.39"/>
<polygon fill="black" stroke="black" points="749.15,-157.83 758.38,-152.63 747.92,-150.94 749.15,-157.83"/>
<text text-anchor="middle" x="736.5" y="-159.3" font-family="Times,serif" font-style="italic" font-size="14.00">ε</text>
</g>
<!-- s243 -->
<g id="node15" class="node">
<title>s243</title>
<polygon fill="none" stroke="black" points="543,-80.5 543,-120.5 601,-120.5 601,-80.5 543,-80.5"/>
<text text-anchor="middle" x="562.5" y="-103.7" font-family="Times,serif" font-size="11.00">243+</text>
<text text-anchor="middle" x="562.5" y="-91.7" font-family="Times,serif" font-size="11.00">d=4</text>
<polyline fill="none" stroke="black" points="582,-80.5 582,-120.5 "/>
<text text-anchor="middle" x="591.5" y="-107.7" font-family="Times,serif" font-size="11.00"> </text>
<polyline fill="none" stroke="black" points="582,-100.5 601,-100.5 "/>
<text text-anchor="middle" x="591.5" y="-87.7" font-family="Times,serif" font-size="11.00"> </text>
</g>
<!-- s242&#45;&gt;s243 -->
<g id="edge20" class="edge">
<title>s242&#45;&gt;s243</title>
<path fill="none" stroke="black" d="M887.08,-142.45C865.85,-135.72 829.79,-125.08 798,-119.5 733.12,-108.1 656.48,-103.48 611.46,-101.65"/>
<polygon fill="black" stroke="black" points="611.4,-98.15 601.27,-101.26 611.13,-105.14 611.4,-98.15"/>
<text text-anchor="middle" x="736.5" y="-114.3" font-family="Times,serif" font-style="italic" font-size="14.00">ε</text>
</g>
<!-- s243&#45;&gt;s241 -->
<g id="edge21" class="edge">
<title>s243:p0&#45;&gt;s241</title>
<path fill="none" stroke="black" stroke-dasharray="5,2" d="M601,-110.5C623.34,-110.5 644.04,-124.56 659.3,-138.83"/>
<polygon fill="black" stroke="black" points="657.2,-141.68 666.77,-146.24 662.14,-136.71 657.2,-141.68"/>
<text text-anchor="middle" x="629" y="-125.3" font-family="Times,serif" font-style="italic" font-size="14.00">ε</text>
</g>
<!-- s244 -->
<g id="node16" class="node">
<title>s244</title>
<ellipse fill="none" stroke="black" cx="686" cy="-52.5" rx="20" ry="20"/>
<text text-anchor="middle" x="686" y="-49.7" font-family="Times,serif" font-size="11.00">244</text>
</g>
<!-- s243&#45;&gt;s244 -->
<g id="edge22" class="edge">
<title>s243:p1&#45;&gt;s244</title>
<path fill="none" stroke="black" d="M601,-90.5C612.63,-90.5 609.06,-77.54 619,-71.5 630.19,-64.7 643.93,-60.23 655.96,-57.35"/>
<polygon fill="black" stroke="black" points="656.95,-60.72 666,-55.21 655.49,-53.88 656.95,-60.72"/>
<text text-anchor="middle" x="629" y="-75.3" font-family="Times,serif" font-style="italic" font-size="14.00">ε</text>
</g>
<!-- s246 -->
<g id="node18" class="node">
<title>s246</title>
<ellipse fill="none" stroke="black" cx="778" cy="-25.5" rx="20" ry="20"/>
<text text-anchor="middle" x="778" y="-28.7" font-family="Times,serif" font-size="11.00">←</text>
<text text-anchor="middle" x="778" y="-16.7" font-family="Times,serif" font-size="11.00">246</text>
</g>
<!-- s244&#45;&gt;s246 -->
<g id="edge23" class="edge">
<title>s244&#45;&gt;s246</title>
<path fill="none" stroke="black" d="M705.65,-46.91C718.16,-43.15 734.87,-38.14 748.97,-33.91"/>
<polygon fill="black" stroke="black" points="750.11,-37.22 758.68,-30.99 748.1,-30.52 750.11,-37.22"/>
<text text-anchor="middle" x="736.5" y="-42.3" font-family="Times,serif" font-style="italic" font-size="14.00">ε</text>
</g>
<!-- s245&#45;&gt;s238 -->
<g id="edge10" class="edge">
<title>s245:p0&#45;&gt;s238</title>
<path fill="none" stroke="black" d="M460,-165.5C487.66,-165.5 519.19,-165.5 541.56,-165.5"/>
<polygon fill="black" stroke="black" points="541.75,-169 551.75,-165.5 541.75,-162 541.75,-169"/>
<text text-anchor="middle" x="501.5" y="-169.3" font-family="Times,serif" font-style="italic" font-size="14.00">ε</text>
</g>
<!-- s245&#45;&gt;s246 -->
<g id="edge11" class="edge">
<title>s245:p1&#45;&gt;s246</title>
<path fill="none" stroke="black" d="M450,-131.5C450,-6.96 667.29,-15.03 747.62,-22.26"/>
<polygon fill="black" stroke="black" points="747.72,-25.79 758.01,-23.26 748.39,-18.82 747.72,-25.79"/>
<text text-anchor="middle" x="629" y="-25.3" font-family="Times,serif" font-style="italic" font-size="14.00">ε</text>
</g>
<!-- s246&#45;&gt;s64 -->
<g id="edge14" class="edge">
<title>s246&#45;&gt;s64</title>
<path fill="none" stroke="black" d="M798.21,-25.5C817.39,-25.5 847.3,-25.5 870.67,-25.5"/>
<polygon fill="black" stroke="black" points="870.88,-29 880.88,-25.5 870.88,-22 870.88,-29"/>
<text text-anchor="middle" x="839.5" y="-29.3" font-family="Times,serif" font-style="italic" font-size="14.00">ε</text>
</g>
<!-- s63 -->
<g id="node19" class="node">
<title>s63</title>
<ellipse fill="none" stroke="black" cx="20" cy="-213.5" rx="20" ry="20"/>
<text text-anchor="middle" x="20" y="-210.7" font-family="Times,serif" font-size="11.00">63</text>
</g>
<!-- s63&#45;&gt;s230 -->
<g id="edge1" class="edge">
<title>s63&#45;&gt;s230</title>
<path fill="none" stroke="black" d="M40.2,-213.5C49.88,-213.5 61.84,-213.5 72.64,-213.5"/>
<polygon fill="black" stroke="black" points="72.94,-217 82.94,-213.5 72.94,-210 72.94,-217"/>
<text text-anchor="middle" x="61.5" y="-217.3" font-family="Times,serif" font-style="italic" font-size="14.00">ε</text>
</g>
</g>
</svg>
