<?xml version="1.0" encoding="UTF-8" standalone="no"?>
<!DOCTYPE svg PUBLIC "-//W3C//DTD SVG 1.1//EN"
 "http://www.w3.org/Graphics/SVG/1.1/DTD/svg11.dtd">
<!-- Generated by graphviz version 2.49.0 (20210828.1703)
 -->
<!-- Title: ATN Pages: 1 -->
<svg width="650pt" height="106pt"
 viewBox="0.00 0.00 650.00 106.00" xmlns="http://www.w3.org/2000/svg" xmlns:xlink="http://www.w3.org/1999/xlink">
<g id="graph0" class="graph" transform="scale(1 1) rotate(0) translate(4 102)">
<title>ATN</title>
<polygon fill="white" stroke="transparent" points="-4,4 -4,-102 646,-102 646,4 -4,4"/>
<!-- s1 -->
<g id="node1" class="node">
<title>s1</title>
<ellipse fill="none" stroke="black" cx="616.5" cy="-49" rx="21.5" ry="21.5"/>
<ellipse fill="none" stroke="black" cx="616.5" cy="-49" rx="25.5" ry="25.5"/>
<text text-anchor="middle" x="616.5" y="-46.2" font-family="Times,serif" font-size="11.00">1</text>
</g>
<!-- s0 -->
<g id="node2" class="node">
<title>s0</title>
<ellipse fill="none" stroke="black" cx="20" cy="-49" rx="20" ry="20"/>
<text text-anchor="middle" x="20" y="-46.2" font-family="Times,serif" font-size="11.00">0</text>
</g>
<!-- s18 -->
<g id="node5" class="node">
<title>s18</title>
<polygon fill="none" stroke="black" points="83,-27 83,-71 137,-71 137,-27 83,-27"/>
<text text-anchor="middle" x="100" y="-58.2" font-family="Times,serif" font-size="11.00">→</text>
<text text-anchor="middle" x="100" y="-46.2" font-family="Times,serif" font-size="11.00">18</text>
<text text-anchor="middle" x="100" y="-34.2" font-family="Times,serif" font-size="11.00">d=0</text>
<polyline fill="none" stroke="black" points="117,-27 117,-71 "/>
<text text-anchor="middle" x="127" y="-57.2" font-family="Times,serif" font-size="11.00"> </text>
<polyline fill="none" stroke="black" points="117,-49 137,-49 "/>
<text text-anchor="middle" x="127" y="-35.2" font-family="Times,serif" font-size="11.00"> </text>
</g>
<!-- s0&#45;&gt;s18 -->
<g id="edge1" class="edge">
<title>s0&#45;&gt;s18</title>
<path fill="none" stroke="black" d="M40.09,-49C49.69,-49 61.65,-49 72.89,-49"/>
<polygon fill="black" stroke="black" points="72.93,-52.5 82.93,-49 72.93,-45.5 72.93,-52.5"/>
<text text-anchor="middle" x="61.5" y="-52.8" font-family="Times,serif" font-style="italic" font-size="14.00">ε</text>
</g>
<!-- s16 -->
<g id="node3" class="node">
<title>s16</title>
<ellipse fill="none" stroke="black" cx="349" cy="-20" rx="20" ry="20"/>
<text text-anchor="middle" x="349" y="-17.2" font-family="Times,serif" font-size="11.00">16</text>
</g>
<!-- s17 -->
<g id="node4" class="node">
<title>s17</title>
<ellipse fill="none" stroke="black" cx="445" cy="-20" rx="20" ry="20"/>
<text text-anchor="middle" x="445" y="-17.2" font-family="Times,serif" font-size="11.00">17</text>
</g>
<!-- s16&#45;&gt;s17 -->
<g id="edge7" class="edge">
<title>s16&#45;&gt;s17</title>
<path fill="none" stroke="black" d="M369.02,-20C382.95,-20 402.02,-20 417.44,-20"/>
<polygon fill="black" stroke="black" points="417.68,-22.45 424.68,-20 417.68,-17.55 417.68,-22.45"/>
<text text-anchor="middle" x="397" y="-23.2" font-family="Courier,monospace" font-size="11.00">EOF</text>
</g>
<!-- s19 -->
<g id="node6" class="node">
<title>s19</title>
<ellipse fill="none" stroke="black" cx="528" cy="-49" rx="20" ry="20"/>
<text text-anchor="middle" x="528" y="-52.2" font-family="Times,serif" font-size="11.00">←</text>
<text text-anchor="middle" x="528" y="-40.2" font-family="Times,serif" font-size="11.00">19</text>
</g>
<!-- s17&#45;&gt;s19 -->
<g id="edge9" class="edge">
<title>s17&#45;&gt;s19</title>
<path fill="none" stroke="black" d="M463.98,-26.44C474.29,-30.13 487.45,-34.84 499.08,-39"/>
<polygon fill="black" stroke="black" points="498.2,-42.41 508.79,-42.48 500.56,-35.82 498.2,-42.41"/>
<text text-anchor="middle" x="486.5" y="-39.8" font-family="Times,serif" font-style="italic" font-size="14.00">ε</text>
</g>
<!-- s12 -->
<g id="node7" class="node">
<title>s12</title>
<ellipse fill="none" stroke="black" cx="200" cy="-78" rx="20" ry="20"/>
<text text-anchor="middle" x="200" y="-75.2" font-family="Times,serif" font-size="11.00">12</text>
</g>
<!-- s18&#45;&gt;s12 -->
<g id="edge2" class="edge">
<title>s18:p0&#45;&gt;s12</title>
<path fill="none" stroke="black" d="M137,-60C148.72,-60 161.21,-63 171.89,-66.56"/>
<polygon fill="black" stroke="black" points="170.89,-69.92 181.48,-70.05 173.29,-63.34 170.89,-69.92"/>
<text text-anchor="middle" x="158.5" y="-66.8" font-family="Times,serif" font-style="italic" font-size="14.00">ε</text>
</g>
<!-- s15 -->
<g id="node10" class="node">
<title>s15</title>
<ellipse fill="none" stroke="black" cx="200" cy="-20" rx="20" ry="20"/>
<text text-anchor="middle" x="200" y="-17.2" font-family="Times,serif" font-size="11.00">15</text>
</g>
<!-- s18&#45;&gt;s15 -->
<g id="edge3" class="edge">
<title>s18:p1&#45;&gt;s15</title>
<path fill="none" stroke="black" d="M137,-38C148.72,-38 161.21,-35 171.89,-31.44"/>
<polygon fill="black" stroke="black" points="173.29,-34.66 181.48,-27.95 170.89,-28.08 173.29,-34.66"/>
<text text-anchor="middle" x="158.5" y="-39.8" font-family="Times,serif" font-style="italic" font-size="14.00">ε</text>
</g>
<!-- s19&#45;&gt;s1 -->
<g id="edge10" class="edge">
<title>s19&#45;&gt;s1</title>
<path fill="none" stroke="black" d="M548.2,-49C557.7,-49 569.48,-49 580.51,-49"/>
<polygon fill="black" stroke="black" points="580.76,-52.5 590.76,-49 580.76,-45.5 580.76,-52.5"/>
<text text-anchor="middle" x="569.5" y="-52.8" font-family="Times,serif" font-style="italic" font-size="14.00">ε</text>
</g>
<!-- s13 -->
<g id="node8" class="node">
<title>s13</title>
<ellipse fill="none" stroke="black" cx="349" cy="-78" rx="20" ry="20"/>
<text text-anchor="middle" x="349" y="-75.2" font-family="Times,serif" font-size="11.00">13</text>
</g>
<!-- s12&#45;&gt;s13 -->
<g id="edge4" class="edge">
<title>s12&#45;&gt;s13</title>
<path fill="none" stroke="black" d="M220.22,-78C246.19,-78 292.59,-78 321.76,-78"/>
<polygon fill="black" stroke="black" points="321.78,-80.45 328.78,-78 321.78,-75.55 321.78,-80.45"/>
<text text-anchor="middle" x="274.5" y="-81.2" font-family="Courier,monospace" font-size="11.00">&lt;stmts&gt;</text>
</g>
<!-- s14 -->
<g id="node9" class="node">
<title>s14</title>
<ellipse fill="none" stroke="black" cx="445" cy="-78" rx="20" ry="20"/>
<text text-anchor="middle" x="445" y="-75.2" font-family="Times,serif" font-size="11.00">14</text>
</g>
<!-- s13&#45;&gt;s14 -->
<g id="edge6" class="edge">
<title>s13&#45;&gt;s14</title>
<path fill="none" stroke="black" d="M369.02,-78C382.95,-78 402.02,-78 417.44,-78"/>
<polygon fill="black" stroke="black" points="417.68,-80.45 424.68,-78 417.68,-75.55 417.68,-80.45"/>
<text text-anchor="middle" x="397" y="-81.2" font-family="Courier,monospace" font-size="11.00">EOF</text>
</g>
<!-- s14&#45;&gt;s19 -->
<g id="edge8" class="edge">
<title>s14&#45;&gt;s19</title>
<path fill="none" stroke="black" d="M463.98,-71.56C474.29,-67.87 487.45,-63.16 499.08,-59"/>
<polygon fill="black" stroke="black" points="500.56,-62.18 508.79,-55.52 498.2,-55.59 500.56,-62.18"/>
<text text-anchor="middle" x="486.5" y="-67.8" font-family="Times,serif" font-style="italic" font-size="14.00">ε</text>
</g>
<!-- s15&#45;&gt;s16 -->
<g id="edge5" class="edge">
<title>s15&#45;&gt;s16</title>
<path fill="none" stroke="black" d="M220.22,-20C246.19,-20 292.59,-20 321.76,-20"/>
<polygon fill="black" stroke="black" points="321.78,-22.45 328.78,-20 321.78,-17.55 321.78,-22.45"/>
<text text-anchor="middle" x="274.5" y="-23.2" font-family="Courier,monospace" font-size="11.00">&lt;antlrUtil&gt;</text>
</g>
</g>
</svg>
