<?xml version="1.0" encoding="UTF-8" standalone="no"?>
<!DOCTYPE svg PUBLIC "-//W3C//DTD SVG 1.1//EN"
 "http://www.w3.org/Graphics/SVG/1.1/DTD/svg11.dtd">
<!-- Generated by graphviz version 2.49.0 (20210828.1703)
 -->
<!-- Title: ATN Pages: 1 -->
<svg width="693pt" height="163pt"
 viewBox="0.00 0.00 693.00 162.50" xmlns="http://www.w3.org/2000/svg" xmlns:xlink="http://www.w3.org/1999/xlink">
<g id="graph0" class="graph" transform="scale(1 1) rotate(0) translate(4 158.5)">
<title>ATN</title>
<polygon fill="white" stroke="transparent" points="-4,4 -4,-158.5 689,-158.5 689,4 -4,4"/>
<!-- s68 -->
<g id="node1" class="node">
<title>s68</title>
<ellipse fill="none" stroke="black" cx="659.5" cy="-129" rx="21.5" ry="21.5"/>
<ellipse fill="none" stroke="black" cx="659.5" cy="-129" rx="25.5" ry="25.5"/>
<text text-anchor="middle" x="659.5" y="-126.2" font-family="Times,serif" font-size="11.00">68</text>
</g>
<!-- s256 -->
<g id="node2" class="node">
<title>s256</title>
<ellipse fill="none" stroke="black" cx="306" cy="-26" rx="20" ry="20"/>
<text text-anchor="middle" x="306" y="-29.2" font-family="Times,serif" font-size="11.00">→</text>
<text text-anchor="middle" x="306" y="-17.2" font-family="Times,serif" font-size="11.00">256*</text>
</g>
<!-- s255 -->
<g id="node11" class="node">
<title>s255</title>
<ellipse fill="none" stroke="black" cx="389" cy="-20" rx="20" ry="20"/>
<text text-anchor="middle" x="389" y="-17.2" font-family="Times,serif" font-size="11.00">255</text>
</g>
<!-- s256&#45;&gt;s255 -->
<g id="edge6" class="edge">
<title>s256&#45;&gt;s255</title>
<path fill="none" stroke="black" d="M326.2,-24.58C335.88,-23.86 347.84,-22.98 358.64,-22.17"/>
<polygon fill="black" stroke="black" points="359.23,-25.64 368.94,-21.41 358.71,-18.66 359.23,-25.64"/>
<text text-anchor="middle" x="347.5" y="-27.8" font-family="Times,serif" font-style="italic" font-size="14.00">ε</text>
</g>
<!-- s257 -->
<g id="node3" class="node">
<title>s257</title>
<ellipse fill="none" stroke="black" cx="571" cy="-26" rx="20" ry="20"/>
<text text-anchor="middle" x="571" y="-29.2" font-family="Times,serif" font-size="11.00">←</text>
<text text-anchor="middle" x="571" y="-17.2" font-family="Times,serif" font-size="11.00">257</text>
</g>
<!-- s260 -->
<g id="node7" class="node">
<title>s260</title>
<ellipse fill="none" stroke="black" cx="659.5" cy="-50" rx="20" ry="20"/>
<text text-anchor="middle" x="659.5" y="-47.2" font-family="Times,serif" font-size="11.00">260*</text>
</g>
<!-- s257&#45;&gt;s260 -->
<g id="edge10" class="edge">
<title>s257&#45;&gt;s260</title>
<path fill="none" stroke="black" d="M590.34,-31.09C601.85,-34.28 616.92,-38.46 629.96,-42.08"/>
<polygon fill="black" stroke="black" points="629.31,-45.53 639.88,-44.83 631.18,-38.79 629.31,-45.53"/>
<text text-anchor="middle" x="612.5" y="-41.8" font-family="Times,serif" font-style="italic" font-size="14.00">ε</text>
</g>
<!-- s258 -->
<g id="node4" class="node">
<title>s258</title>
<polygon fill="none" stroke="black" points="186,-56 186,-96 243,-96 243,-56 186,-56"/>
<text text-anchor="middle" x="205" y="-79.2" font-family="Times,serif" font-size="11.00">258*</text>
<text text-anchor="middle" x="205" y="-67.2" font-family="Times,serif" font-size="11.00">d=7</text>
<polyline fill="none" stroke="black" points="224,-56 224,-96 "/>
<text text-anchor="middle" x="233.5" y="-83.2" font-family="Times,serif" font-size="11.00"> </text>
<polyline fill="none" stroke="black" points="224,-76 243,-76 "/>
<text text-anchor="middle" x="233.5" y="-63.2" font-family="Times,serif" font-size="11.00"> </text>
</g>
<!-- s258&#45;&gt;s256 -->
<g id="edge4" class="edge">
<title>s258:p1&#45;&gt;s256</title>
<path fill="none" stroke="black" d="M233.5,-55C233.5,-35.81 255.89,-29.02 275.61,-26.75"/>
<polygon fill="black" stroke="black" points="276.15,-30.22 285.84,-25.93 275.59,-23.24 276.15,-30.22"/>
<text text-anchor="middle" x="264.5" y="-32.8" font-family="Times,serif" font-style="italic" font-size="14.00">ε</text>
</g>
<!-- s259 -->
<g id="node6" class="node">
<title>s259</title>
<ellipse fill="none" stroke="black" cx="306" cy="-126" rx="20" ry="20"/>
<text text-anchor="middle" x="306" y="-123.2" font-family="Times,serif" font-size="11.00">259</text>
</g>
<!-- s258&#45;&gt;s259 -->
<g id="edge3" class="edge">
<title>s258:p0&#45;&gt;s259</title>
<path fill="none" stroke="black" d="M233.5,-97C233.5,-116.19 255.89,-122.98 275.61,-125.25"/>
<polygon fill="black" stroke="black" points="275.59,-128.76 285.84,-126.07 276.15,-121.78 275.59,-128.76"/>
<text text-anchor="middle" x="264.5" y="-126.8" font-family="Times,serif" font-style="italic" font-size="14.00">ε</text>
</g>
<!-- s67 -->
<g id="node5" class="node">
<title>s67</title>
<ellipse fill="none" stroke="black" cx="20" cy="-76" rx="20" ry="20"/>
<text text-anchor="middle" x="20" y="-73.2" font-family="Times,serif" font-size="11.00">67</text>
</g>
<!-- s254 -->
<g id="node10" class="node">
<title>s254</title>
<ellipse fill="none" stroke="black" cx="103" cy="-76" rx="20" ry="20"/>
<text text-anchor="middle" x="103" y="-73.2" font-family="Times,serif" font-size="11.00">254</text>
</g>
<!-- s67&#45;&gt;s254 -->
<g id="edge1" class="edge">
<title>s67&#45;&gt;s254</title>
<path fill="none" stroke="black" d="M40.2,-76C49.88,-76 61.84,-76 72.64,-76"/>
<polygon fill="black" stroke="black" points="72.94,-79.5 82.94,-76 72.94,-72.5 72.94,-79.5"/>
<text text-anchor="middle" x="61.5" y="-79.8" font-family="Times,serif" font-style="italic" font-size="14.00">ε</text>
</g>
<!-- s261 -->
<g id="node8" class="node">
<title>s261</title>
<ellipse fill="none" stroke="black" cx="389" cy="-129" rx="20" ry="20"/>
<text text-anchor="middle" x="389" y="-126.2" font-family="Times,serif" font-size="11.00">261</text>
</g>
<!-- s259&#45;&gt;s261 -->
<g id="edge5" class="edge">
<title>s259&#45;&gt;s261</title>
<path fill="none" stroke="black" d="M326.2,-126.71C335.88,-127.07 347.84,-127.51 358.64,-127.91"/>
<polygon fill="black" stroke="black" points="358.82,-131.42 368.94,-128.29 359.08,-124.43 358.82,-131.42"/>
<text text-anchor="middle" x="347.5" y="-130.8" font-family="Times,serif" font-style="italic" font-size="14.00">ε</text>
</g>
<!-- s260&#45;&gt;s258 -->
<g id="edge11" class="edge">
<title>s260&#45;&gt;s258</title>
<path fill="none" stroke="black" stroke-dasharray="5,2" d="M641.07,-58.51C623.92,-66.1 596.78,-76 572,-76 305,-76 305,-76 305,-76 288.05,-76 269.29,-76 253.34,-76"/>
<polygon fill="black" stroke="black" points="253.32,-72.5 243.32,-76 253.32,-79.5 253.32,-72.5"/>
<text text-anchor="middle" x="389" y="-79.8" font-family="Times,serif" font-style="italic" font-size="14.00">ε</text>
</g>
<!-- s262 -->
<g id="node9" class="node">
<title>s262</title>
<ellipse fill="none" stroke="black" cx="571" cy="-129" rx="20" ry="20"/>
<text text-anchor="middle" x="571" y="-126.2" font-family="Times,serif" font-size="11.00">262</text>
</g>
<!-- s261&#45;&gt;s262 -->
<g id="edge7" class="edge">
<title>s261&#45;&gt;s262</title>
<path fill="none" stroke="black" d="M409.26,-129C441.61,-129 506.88,-129 543.51,-129"/>
<polygon fill="black" stroke="black" points="543.88,-131.45 550.88,-129 543.88,-126.55 543.88,-131.45"/>
<text text-anchor="middle" x="480" y="-132.2" font-family="Courier,monospace" font-size="11.00">&#39;\&quot;&#39;</text>
</g>
<!-- s262&#45;&gt;s68 -->
<g id="edge9" class="edge">
<title>s262&#45;&gt;s68</title>
<path fill="none" stroke="black" d="M591.2,-129C600.7,-129 612.48,-129 623.51,-129"/>
<polygon fill="black" stroke="black" points="623.76,-132.5 633.76,-129 623.76,-125.5 623.76,-132.5"/>
<text text-anchor="middle" x="612.5" y="-132.8" font-family="Times,serif" font-style="italic" font-size="14.00">ε</text>
</g>
<!-- s254&#45;&gt;s258 -->
<g id="edge2" class="edge">
<title>s254&#45;&gt;s258</title>
<path fill="none" stroke="black" d="M123.07,-76C138.33,-76 160.13,-76 178.5,-76"/>
<polygon fill="black" stroke="black" points="178.61,-78.45 185.61,-76 178.61,-73.55 178.61,-78.45"/>
<text text-anchor="middle" x="154.5" y="-79.2" font-family="Courier,monospace" font-size="11.00">&#39;\&quot;&#39;</text>
</g>
<!-- s255&#45;&gt;s257 -->
<g id="edge8" class="edge">
<title>s255&#45;&gt;s257</title>
<path fill="none" stroke="black" d="M409.26,-20.64C441.61,-21.72 506.88,-23.9 543.51,-25.12"/>
<polygon fill="black" stroke="black" points="543.8,-27.58 550.88,-25.36 543.96,-22.68 543.8,-27.58"/>
<text text-anchor="middle" x="480" y="-28.2" font-family="Courier,monospace" font-size="11.00">&lt;STRING_CONTENT&gt;</text>
</g>
</g>
</svg>
