<?xml version="1.0" encoding="UTF-8" standalone="no"?>
<!DOCTYPE svg PUBLIC "-//W3C//DTD SVG 1.1//EN"
 "http://www.w3.org/Graphics/SVG/1.1/DTD/svg11.dtd">
<!-- Generated by graphviz version 2.49.0 (20210828.1703)
 -->
<!-- Title: ATN Pages: 1 -->
<svg width="705pt" height="59pt"
 viewBox="0.00 0.00 705.00 59.00" xmlns="http://www.w3.org/2000/svg" xmlns:xlink="http://www.w3.org/1999/xlink">
<g id="graph0" class="graph" transform="scale(1 1) rotate(0) translate(4 55)">
<title>ATN</title>
<polygon fill="white" stroke="transparent" points="-4,4 -4,-55 701,-55 701,4 -4,4"/>
<!-- s46 -->
<g id="node1" class="node">
<title>s46</title>
<ellipse fill="none" stroke="black" cx="671.5" cy="-25.5" rx="21.5" ry="21.5"/>
<ellipse fill="none" stroke="black" cx="671.5" cy="-25.5" rx="25.5" ry="25.5"/>
<text text-anchor="middle" x="671.5" y="-22.7" font-family="Times,serif" font-size="11.00">46</text>
</g>
<!-- s184 -->
<g id="node2" class="node">
<title>s184</title>
<ellipse fill="none" stroke="black" cx="103" cy="-25.5" rx="20" ry="20"/>
<text text-anchor="middle" x="103" y="-22.7" font-family="Times,serif" font-size="11.00">184</text>
</g>
<!-- s185 -->
<g id="node3" class="node">
<title>s185</title>
<ellipse fill="none" stroke="black" cx="199" cy="-25.5" rx="20" ry="20"/>
<text text-anchor="middle" x="199" y="-22.7" font-family="Times,serif" font-size="11.00">185</text>
</g>
<!-- s184&#45;&gt;s185 -->
<g id="edge2" class="edge">
<title>s184&#45;&gt;s185</title>
<path fill="none" stroke="black" d="M123.02,-25.5C136.95,-25.5 156.02,-25.5 171.44,-25.5"/>
<polygon fill="black" stroke="black" points="171.68,-27.95 178.68,-25.5 171.68,-23.05 171.68,-27.95"/>
<text text-anchor="middle" x="151" y="-28.7" font-family="Courier,monospace" font-size="11.00">&lt;F&gt;</text>
</g>
<!-- s186 -->
<g id="node4" class="node">
<title>s186</title>
<ellipse fill="none" stroke="black" cx="295" cy="-25.5" rx="20" ry="20"/>
<text text-anchor="middle" x="295" y="-22.7" font-family="Times,serif" font-size="11.00">186</text>
</g>
<!-- s185&#45;&gt;s186 -->
<g id="edge3" class="edge">
<title>s185&#45;&gt;s186</title>
<path fill="none" stroke="black" d="M219.02,-25.5C232.95,-25.5 252.02,-25.5 267.44,-25.5"/>
<polygon fill="black" stroke="black" points="267.68,-27.95 274.68,-25.5 267.68,-23.05 267.68,-27.95"/>
<text text-anchor="middle" x="247" y="-28.7" font-family="Courier,monospace" font-size="11.00">&lt;A&gt;</text>
</g>
<!-- s187 -->
<g id="node5" class="node">
<title>s187</title>
<ellipse fill="none" stroke="black" cx="391" cy="-25.5" rx="20" ry="20"/>
<text text-anchor="middle" x="391" y="-22.7" font-family="Times,serif" font-size="11.00">187</text>
</g>
<!-- s186&#45;&gt;s187 -->
<g id="edge4" class="edge">
<title>s186&#45;&gt;s187</title>
<path fill="none" stroke="black" d="M315.02,-25.5C328.95,-25.5 348.02,-25.5 363.44,-25.5"/>
<polygon fill="black" stroke="black" points="363.68,-27.95 370.68,-25.5 363.68,-23.05 363.68,-27.95"/>
<text text-anchor="middle" x="343" y="-28.7" font-family="Courier,monospace" font-size="11.00">&lt;L&gt;</text>
</g>
<!-- s188 -->
<g id="node6" class="node">
<title>s188</title>
<ellipse fill="none" stroke="black" cx="487" cy="-25.5" rx="20" ry="20"/>
<text text-anchor="middle" x="487" y="-22.7" font-family="Times,serif" font-size="11.00">188</text>
</g>
<!-- s187&#45;&gt;s188 -->
<g id="edge5" class="edge">
<title>s187&#45;&gt;s188</title>
<path fill="none" stroke="black" d="M411.02,-25.5C424.95,-25.5 444.02,-25.5 459.44,-25.5"/>
<polygon fill="black" stroke="black" points="459.68,-27.95 466.68,-25.5 459.68,-23.05 459.68,-27.95"/>
<text text-anchor="middle" x="439" y="-28.7" font-family="Courier,monospace" font-size="11.00">&lt;S&gt;</text>
</g>
<!-- s189 -->
<g id="node8" class="node">
<title>s189</title>
<ellipse fill="none" stroke="black" cx="583" cy="-25.5" rx="20" ry="20"/>
<text text-anchor="middle" x="583" y="-22.7" font-family="Times,serif" font-size="11.00">189</text>
</g>
<!-- s188&#45;&gt;s189 -->
<g id="edge6" class="edge">
<title>s188&#45;&gt;s189</title>
<path fill="none" stroke="black" d="M507.02,-25.5C520.95,-25.5 540.02,-25.5 555.44,-25.5"/>
<polygon fill="black" stroke="black" points="555.68,-27.95 562.68,-25.5 555.68,-23.05 555.68,-27.95"/>
<text text-anchor="middle" x="535" y="-28.7" font-family="Courier,monospace" font-size="11.00">&lt;E&gt;</text>
</g>
<!-- s45 -->
<g id="node7" class="node">
<title>s45</title>
<ellipse fill="none" stroke="black" cx="20" cy="-25.5" rx="20" ry="20"/>
<text text-anchor="middle" x="20" y="-22.7" font-family="Times,serif" font-size="11.00">45</text>
</g>
<!-- s45&#45;&gt;s184 -->
<g id="edge1" class="edge">
<title>s45&#45;&gt;s184</title>
<path fill="none" stroke="black" d="M40.2,-25.5C49.88,-25.5 61.84,-25.5 72.64,-25.5"/>
<polygon fill="black" stroke="black" points="72.94,-29 82.94,-25.5 72.94,-22 72.94,-29"/>
<text text-anchor="middle" x="61.5" y="-29.3" font-family="Times,serif" font-style="italic" font-size="14.00">ε</text>
</g>
<!-- s189&#45;&gt;s46 -->
<g id="edge7" class="edge">
<title>s189&#45;&gt;s46</title>
<path fill="none" stroke="black" d="M603.2,-25.5C612.7,-25.5 624.48,-25.5 635.51,-25.5"/>
<polygon fill="black" stroke="black" points="635.76,-29 645.76,-25.5 635.76,-22 635.76,-29"/>
<text text-anchor="middle" x="624.5" y="-29.3" font-family="Times,serif" font-style="italic" font-size="14.00">ε</text>
</g>
</g>
</svg>
