<?xml version="1.0" encoding="UTF-8" standalone="no"?>
<!DOCTYPE svg PUBLIC "-//W3C//DTD SVG 1.1//EN"
 "http://www.w3.org/Graphics/SVG/1.1/DTD/svg11.dtd">
<!-- Generated by graphviz version 2.49.0 (20210828.1703)
 -->
<!-- Title: ATN Pages: 1 -->
<svg width="993pt" height="59pt"
 viewBox="0.00 0.00 993.00 59.00" xmlns="http://www.w3.org/2000/svg" xmlns:xlink="http://www.w3.org/1999/xlink">
<g id="graph0" class="graph" transform="scale(1 1) rotate(0) translate(4 55)">
<title>ATN</title>
<polygon fill="white" stroke="transparent" points="-4,4 -4,-55 989,-55 989,4 -4,4"/>
<!-- s56 -->
<g id="node1" class="node">
<title>s56</title>
<ellipse fill="none" stroke="black" cx="959.5" cy="-25.5" rx="21.5" ry="21.5"/>
<ellipse fill="none" stroke="black" cx="959.5" cy="-25.5" rx="25.5" ry="25.5"/>
<text text-anchor="middle" x="959.5" y="-22.7" font-family="Times,serif" font-size="11.00">56</text>
</g>
<!-- s210 -->
<g id="node2" class="node">
<title>s210</title>
<ellipse fill="none" stroke="black" cx="103" cy="-25.5" rx="20" ry="20"/>
<text text-anchor="middle" x="103" y="-22.7" font-family="Times,serif" font-size="11.00">210</text>
</g>
<!-- s211 -->
<g id="node3" class="node">
<title>s211</title>
<ellipse fill="none" stroke="black" cx="199" cy="-25.5" rx="20" ry="20"/>
<text text-anchor="middle" x="199" y="-22.7" font-family="Times,serif" font-size="11.00">211</text>
</g>
<!-- s210&#45;&gt;s211 -->
<g id="edge2" class="edge">
<title>s210&#45;&gt;s211</title>
<path fill="none" stroke="black" d="M123.02,-25.5C136.95,-25.5 156.02,-25.5 171.44,-25.5"/>
<polygon fill="black" stroke="black" points="171.68,-27.95 178.68,-25.5 171.68,-23.05 171.68,-27.95"/>
<text text-anchor="middle" x="151" y="-28.7" font-family="Courier,monospace" font-size="11.00">&lt;R&gt;</text>
</g>
<!-- s212 -->
<g id="node4" class="node">
<title>s212</title>
<ellipse fill="none" stroke="black" cx="295" cy="-25.5" rx="20" ry="20"/>
<text text-anchor="middle" x="295" y="-22.7" font-family="Times,serif" font-size="11.00">212</text>
</g>
<!-- s211&#45;&gt;s212 -->
<g id="edge3" class="edge">
<title>s211&#45;&gt;s212</title>
<path fill="none" stroke="black" d="M219.02,-25.5C232.95,-25.5 252.02,-25.5 267.44,-25.5"/>
<polygon fill="black" stroke="black" points="267.68,-27.95 274.68,-25.5 267.68,-23.05 267.68,-27.95"/>
<text text-anchor="middle" x="247" y="-28.7" font-family="Courier,monospace" font-size="11.00">&lt;E&gt;</text>
</g>
<!-- s213 -->
<g id="node5" class="node">
<title>s213</title>
<ellipse fill="none" stroke="black" cx="391" cy="-25.5" rx="20" ry="20"/>
<text text-anchor="middle" x="391" y="-22.7" font-family="Times,serif" font-size="11.00">213</text>
</g>
<!-- s212&#45;&gt;s213 -->
<g id="edge4" class="edge">
<title>s212&#45;&gt;s213</title>
<path fill="none" stroke="black" d="M315.02,-25.5C328.95,-25.5 348.02,-25.5 363.44,-25.5"/>
<polygon fill="black" stroke="black" points="363.68,-27.95 370.68,-25.5 363.68,-23.05 363.68,-27.95"/>
<text text-anchor="middle" x="343" y="-28.7" font-family="Courier,monospace" font-size="11.00">&lt;F&gt;</text>
</g>
<!-- s214 -->
<g id="node6" class="node">
<title>s214</title>
<ellipse fill="none" stroke="black" cx="487" cy="-25.5" rx="20" ry="20"/>
<text text-anchor="middle" x="487" y="-22.7" font-family="Times,serif" font-size="11.00">214</text>
</g>
<!-- s213&#45;&gt;s214 -->
<g id="edge5" class="edge">
<title>s213&#45;&gt;s214</title>
<path fill="none" stroke="black" d="M411.02,-25.5C424.95,-25.5 444.02,-25.5 459.44,-25.5"/>
<polygon fill="black" stroke="black" points="459.68,-27.95 466.68,-25.5 459.68,-23.05 459.68,-27.95"/>
<text text-anchor="middle" x="439" y="-28.7" font-family="Courier,monospace" font-size="11.00">&lt;A&gt;</text>
</g>
<!-- s215 -->
<g id="node8" class="node">
<title>s215</title>
<ellipse fill="none" stroke="black" cx="583" cy="-25.5" rx="20" ry="20"/>
<text text-anchor="middle" x="583" y="-22.7" font-family="Times,serif" font-size="11.00">215</text>
</g>
<!-- s214&#45;&gt;s215 -->
<g id="edge6" class="edge">
<title>s214&#45;&gt;s215</title>
<path fill="none" stroke="black" d="M507.02,-25.5C520.95,-25.5 540.02,-25.5 555.44,-25.5"/>
<polygon fill="black" stroke="black" points="555.68,-27.95 562.68,-25.5 555.68,-23.05 555.68,-27.95"/>
<text text-anchor="middle" x="535" y="-28.7" font-family="Courier,monospace" font-size="11.00">&lt;C&gt;</text>
</g>
<!-- s55 -->
<g id="node7" class="node">
<title>s55</title>
<ellipse fill="none" stroke="black" cx="20" cy="-25.5" rx="20" ry="20"/>
<text text-anchor="middle" x="20" y="-22.7" font-family="Times,serif" font-size="11.00">55</text>
</g>
<!-- s55&#45;&gt;s210 -->
<g id="edge1" class="edge">
<title>s55&#45;&gt;s210</title>
<path fill="none" stroke="black" d="M40.2,-25.5C49.88,-25.5 61.84,-25.5 72.64,-25.5"/>
<polygon fill="black" stroke="black" points="72.94,-29 82.94,-25.5 72.94,-22 72.94,-29"/>
<text text-anchor="middle" x="61.5" y="-29.3" font-family="Times,serif" font-style="italic" font-size="14.00">ε</text>
</g>
<!-- s216 -->
<g id="node9" class="node">
<title>s216</title>
<ellipse fill="none" stroke="black" cx="679" cy="-25.5" rx="20" ry="20"/>
<text text-anchor="middle" x="679" y="-22.7" font-family="Times,serif" font-size="11.00">216</text>
</g>
<!-- s215&#45;&gt;s216 -->
<g id="edge7" class="edge">
<title>s215&#45;&gt;s216</title>
<path fill="none" stroke="black" d="M603.02,-25.5C616.95,-25.5 636.02,-25.5 651.44,-25.5"/>
<polygon fill="black" stroke="black" points="651.68,-27.95 658.68,-25.5 651.68,-23.05 651.68,-27.95"/>
<text text-anchor="middle" x="631" y="-28.7" font-family="Courier,monospace" font-size="11.00">&lt;T&gt;</text>
</g>
<!-- s217 -->
<g id="node10" class="node">
<title>s217</title>
<ellipse fill="none" stroke="black" cx="775" cy="-25.5" rx="20" ry="20"/>
<text text-anchor="middle" x="775" y="-22.7" font-family="Times,serif" font-size="11.00">217</text>
</g>
<!-- s216&#45;&gt;s217 -->
<g id="edge8" class="edge">
<title>s216&#45;&gt;s217</title>
<path fill="none" stroke="black" d="M699.02,-25.5C712.95,-25.5 732.02,-25.5 747.44,-25.5"/>
<polygon fill="black" stroke="black" points="747.68,-27.95 754.68,-25.5 747.68,-23.05 747.68,-27.95"/>
<text text-anchor="middle" x="727" y="-28.7" font-family="Courier,monospace" font-size="11.00">&lt;O&gt;</text>
</g>
<!-- s218 -->
<g id="node11" class="node">
<title>s218</title>
<ellipse fill="none" stroke="black" cx="871" cy="-25.5" rx="20" ry="20"/>
<text text-anchor="middle" x="871" y="-22.7" font-family="Times,serif" font-size="11.00">218</text>
</g>
<!-- s217&#45;&gt;s218 -->
<g id="edge9" class="edge">
<title>s217&#45;&gt;s218</title>
<path fill="none" stroke="black" d="M795.02,-25.5C808.95,-25.5 828.02,-25.5 843.44,-25.5"/>
<polygon fill="black" stroke="black" points="843.68,-27.95 850.68,-25.5 843.68,-23.05 843.68,-27.95"/>
<text text-anchor="middle" x="823" y="-28.7" font-family="Courier,monospace" font-size="11.00">&lt;R&gt;</text>
</g>
<!-- s218&#45;&gt;s56 -->
<g id="edge10" class="edge">
<title>s218&#45;&gt;s56</title>
<path fill="none" stroke="black" d="M891.2,-25.5C900.7,-25.5 912.48,-25.5 923.51,-25.5"/>
<polygon fill="black" stroke="black" points="923.76,-29 933.76,-25.5 923.76,-22 923.76,-29"/>
<text text-anchor="middle" x="912.5" y="-29.3" font-family="Times,serif" font-style="italic" font-size="14.00">ε</text>
</g>
</g>
</svg>
