<?xml version="1.0" encoding="UTF-8" standalone="no"?>
<!DOCTYPE svg PUBLIC "-//W3C//DTD SVG 1.1//EN"
 "http://www.w3.org/Graphics/SVG/1.1/DTD/svg11.dtd">
<!-- Generated by graphviz version 2.49.0 (20210828.1703)
 -->
<!-- Title: ATN Pages: 1 -->
<svg width="1055pt" height="454pt"
 viewBox="0.00 0.00 1055.00 454.00" xmlns="http://www.w3.org/2000/svg" xmlns:xlink="http://www.w3.org/1999/xlink">
<g id="graph0" class="graph" transform="scale(1 1) rotate(0) translate(4 450)">
<title>ATN</title>
<polygon fill="white" stroke="transparent" points="-4,4 -4,-450 1051,-450 1051,4 -4,4"/>
<!-- s9 -->
<g id="node1" class="node">
<title>s9</title>
<ellipse fill="none" stroke="black" cx="1021.5" cy="-223" rx="21.5" ry="21.5"/>
<ellipse fill="none" stroke="black" cx="1021.5" cy="-223" rx="25.5" ry="25.5"/>
<text text-anchor="middle" x="1021.5" y="-220.2" font-family="Times,serif" font-size="11.00">9</text>
</g>
<!-- s64 -->
<g id="node2" class="node">
<title>s64</title>
<ellipse fill="none" stroke="black" cx="671" cy="-194" rx="20" ry="20"/>
<text text-anchor="middle" x="671" y="-197.2" font-family="Times,serif" font-size="11.00">←</text>
<text text-anchor="middle" x="671" y="-185.2" font-family="Times,serif" font-size="11.00">64</text>
</g>
<!-- s65 -->
<g id="node3" class="node">
<title>s65</title>
<ellipse fill="none" stroke="black" cx="754" cy="-194" rx="20" ry="20"/>
<text text-anchor="middle" x="754" y="-191.2" font-family="Times,serif" font-size="11.00">65</text>
</g>
<!-- s64&#45;&gt;s65 -->
<g id="edge32" class="edge">
<title>s64&#45;&gt;s65</title>
<path fill="none" stroke="black" d="M691.2,-194C700.88,-194 712.84,-194 723.64,-194"/>
<polygon fill="black" stroke="black" points="723.94,-197.5 733.94,-194 723.94,-190.5 723.94,-197.5"/>
<text text-anchor="middle" x="712.5" y="-197.8" font-family="Times,serif" font-style="italic" font-size="14.00">ε</text>
</g>
<!-- s66 -->
<g id="node4" class="node">
<title>s66</title>
<ellipse fill="none" stroke="black" cx="850" cy="-194" rx="20" ry="20"/>
<text text-anchor="middle" x="850" y="-191.2" font-family="Times,serif" font-size="11.00">66</text>
</g>
<!-- s65&#45;&gt;s66 -->
<g id="edge36" class="edge">
<title>s65&#45;&gt;s66</title>
<path fill="none" stroke="black" d="M774.02,-194C787.95,-194 807.02,-194 822.44,-194"/>
<polygon fill="black" stroke="black" points="822.68,-196.45 829.68,-194 822.68,-191.55 822.68,-196.45"/>
<text text-anchor="middle" x="802" y="-197.2" font-family="Courier,monospace" font-size="11.00">&#39;}&#39;</text>
</g>
<!-- s76 -->
<g id="node15" class="node">
<title>s76</title>
<ellipse fill="none" stroke="black" cx="933" cy="-223" rx="20" ry="20"/>
<text text-anchor="middle" x="933" y="-226.2" font-family="Times,serif" font-size="11.00">←</text>
<text text-anchor="middle" x="933" y="-214.2" font-family="Times,serif" font-size="11.00">76</text>
</g>
<!-- s66&#45;&gt;s76 -->
<g id="edge40" class="edge">
<title>s66&#45;&gt;s76</title>
<path fill="none" stroke="black" d="M868.98,-200.44C879.29,-204.13 892.45,-208.84 904.08,-213"/>
<polygon fill="black" stroke="black" points="903.2,-216.41 913.79,-216.48 905.56,-209.82 903.2,-216.41"/>
<text text-anchor="middle" x="891.5" y="-212.8" font-family="Times,serif" font-style="italic" font-size="14.00">ε</text>
</g>
<!-- s67 -->
<g id="node5" class="node">
<title>s67</title>
<ellipse fill="none" stroke="black" cx="200" cy="-137" rx="20" ry="20"/>
<text text-anchor="middle" x="200" y="-134.2" font-family="Times,serif" font-size="11.00">67</text>
</g>
<!-- s68 -->
<g id="node6" class="node">
<title>s68</title>
<ellipse fill="none" stroke="black" cx="329" cy="-116" rx="20" ry="20"/>
<text text-anchor="middle" x="329" y="-113.2" font-family="Times,serif" font-size="11.00">68</text>
</g>
<!-- s67&#45;&gt;s68 -->
<g id="edge9" class="edge">
<title>s67&#45;&gt;s68</title>
<path fill="none" stroke="black" d="M220.01,-133.86C241.71,-130.27 277.33,-124.38 301.69,-120.35"/>
<polygon fill="black" stroke="black" points="302.35,-122.72 308.86,-119.17 301.55,-117.89 302.35,-122.72"/>
<text text-anchor="middle" x="264.5" y="-134.2" font-family="Courier,monospace" font-size="11.00">TOKENS</text>
</g>
<!-- s71 -->
<g id="node9" class="node">
<title>s71</title>
<polygon fill="none" stroke="black" points="405,-45 405,-89 459,-89 459,-45 405,-45"/>
<text text-anchor="middle" x="422" y="-76.2" font-family="Times,serif" font-size="11.00">→</text>
<text text-anchor="middle" x="422" y="-64.2" font-family="Times,serif" font-size="11.00">71</text>
<text text-anchor="middle" x="422" y="-52.2" font-family="Times,serif" font-size="11.00">d=7</text>
<polyline fill="none" stroke="black" points="439,-45 439,-89 "/>
<text text-anchor="middle" x="449" y="-75.2" font-family="Times,serif" font-size="11.00"> </text>
<polyline fill="none" stroke="black" points="439,-67 459,-67 "/>
<text text-anchor="middle" x="449" y="-53.2" font-family="Times,serif" font-size="11.00"> </text>
</g>
<!-- s68&#45;&gt;s71 -->
<g id="edge13" class="edge">
<title>s68&#45;&gt;s71</title>
<path fill="none" stroke="black" d="M347.59,-107.46C361.56,-100.69 381.49,-91.02 398.36,-82.84"/>
<polygon fill="black" stroke="black" points="399.66,-84.93 404.89,-79.67 397.52,-80.52 399.66,-84.93"/>
<text text-anchor="middle" x="377" y="-101.2" font-family="Courier,monospace" font-size="11.00">&#39;{&#39;</text>
</g>
<!-- s69 -->
<g id="node7" class="node">
<title>s69</title>
<ellipse fill="none" stroke="black" cx="522" cy="-78" rx="20" ry="20"/>
<text text-anchor="middle" x="522" y="-75.2" font-family="Times,serif" font-size="11.00">69</text>
</g>
<!-- s72 -->
<g id="node11" class="node">
<title>s72</title>
<ellipse fill="none" stroke="black" cx="671" cy="-78" rx="20" ry="20"/>
<text text-anchor="middle" x="671" y="-81.2" font-family="Times,serif" font-size="11.00">←</text>
<text text-anchor="middle" x="671" y="-69.2" font-family="Times,serif" font-size="11.00">72</text>
</g>
<!-- s69&#45;&gt;s72 -->
<g id="edge28" class="edge">
<title>s69&#45;&gt;s72</title>
<path fill="none" stroke="black" d="M542.22,-78C568.19,-78 614.59,-78 643.76,-78"/>
<polygon fill="black" stroke="black" points="643.78,-80.45 650.78,-78 643.78,-75.55 643.78,-80.45"/>
<text text-anchor="middle" x="596.5" y="-81.2" font-family="Courier,monospace" font-size="11.00">&lt;stmts&gt;</text>
</g>
<!-- s70 -->
<g id="node8" class="node">
<title>s70</title>
<ellipse fill="none" stroke="black" cx="522" cy="-20" rx="20" ry="20"/>
<text text-anchor="middle" x="522" y="-17.2" font-family="Times,serif" font-size="11.00">70</text>
</g>
<!-- s70&#45;&gt;s72 -->
<g id="edge29" class="edge">
<title>s70&#45;&gt;s72</title>
<path fill="none" stroke="black" d="M541,-26.6C562.87,-34.68 600.81,-48.9 633,-62 637.17,-63.7 641.58,-65.55 645.84,-67.38"/>
<polygon fill="black" stroke="black" points="644.98,-69.67 652.37,-70.19 646.92,-65.17 644.98,-69.67"/>
<text text-anchor="middle" x="596.5" y="-65.2" font-family="Courier,monospace" font-size="11.00">&lt;antlrUtil&gt;</text>
</g>
<!-- s71&#45;&gt;s69 -->
<g id="edge20" class="edge">
<title>s71:p0&#45;&gt;s69</title>
<path fill="none" stroke="black" d="M459,-78C469.63,-78 481.27,-78 491.58,-78"/>
<polygon fill="black" stroke="black" points="491.73,-81.5 501.73,-78 491.73,-74.5 491.73,-81.5"/>
<text text-anchor="middle" x="480.5" y="-81.8" font-family="Times,serif" font-style="italic" font-size="14.00">ε</text>
</g>
<!-- s71&#45;&gt;s70 -->
<g id="edge21" class="edge">
<title>s71:p1&#45;&gt;s70</title>
<path fill="none" stroke="black" d="M459,-56C473.68,-56 487.99,-48.36 499.16,-40.12"/>
<polygon fill="black" stroke="black" points="501.42,-42.79 507.04,-33.82 497.05,-37.33 501.42,-42.79"/>
<text text-anchor="middle" x="480.5" y="-56.8" font-family="Times,serif" font-style="italic" font-size="14.00">ε</text>
</g>
<!-- s8 -->
<g id="node10" class="node">
<title>s8</title>
<ellipse fill="none" stroke="black" cx="20" cy="-228" rx="20" ry="20"/>
<text text-anchor="middle" x="20" y="-225.2" font-family="Times,serif" font-size="11.00">8</text>
</g>
<!-- s75 -->
<g id="node14" class="node">
<title>s75</title>
<polygon fill="none" stroke="black" points="83,-188 83,-268 137,-268 137,-188 83,-188"/>
<text text-anchor="middle" x="100" y="-237.2" font-family="Times,serif" font-size="11.00">→</text>
<text text-anchor="middle" x="100" y="-225.2" font-family="Times,serif" font-size="11.00">75</text>
<text text-anchor="middle" x="100" y="-213.2" font-family="Times,serif" font-size="11.00">d=8</text>
<polyline fill="none" stroke="black" points="117,-188 117,-268 "/>
<text text-anchor="middle" x="127" y="-255.2" font-family="Times,serif" font-size="11.00"> </text>
<polyline fill="none" stroke="black" points="117,-248 137,-248 "/>
<text text-anchor="middle" x="127" y="-235.2" font-family="Times,serif" font-size="11.00"> </text>
<polyline fill="none" stroke="black" points="117,-228 137,-228 "/>
<text text-anchor="middle" x="127" y="-215.2" font-family="Times,serif" font-size="11.00"> </text>
<polyline fill="none" stroke="black" points="117,-208 137,-208 "/>
<text text-anchor="middle" x="127" y="-195.2" font-family="Times,serif" font-size="11.00"> </text>
</g>
<!-- s8&#45;&gt;s75 -->
<g id="edge1" class="edge">
<title>s8&#45;&gt;s75</title>
<path fill="none" stroke="black" d="M40.09,-228C49.69,-228 61.65,-228 72.89,-228"/>
<polygon fill="black" stroke="black" points="72.93,-231.5 82.93,-228 72.93,-224.5 72.93,-231.5"/>
<text text-anchor="middle" x="61.5" y="-231.8" font-family="Times,serif" font-style="italic" font-size="14.00">ε</text>
</g>
<!-- s73 -->
<g id="node12" class="node">
<title>s73</title>
<ellipse fill="none" stroke="black" cx="754" cy="-122" rx="20" ry="20"/>
<text text-anchor="middle" x="754" y="-119.2" font-family="Times,serif" font-size="11.00">73</text>
</g>
<!-- s72&#45;&gt;s73 -->
<g id="edge33" class="edge">
<title>s72&#45;&gt;s73</title>
<path fill="none" stroke="black" d="M689.18,-87.33C700.21,-93.32 714.73,-101.21 727.14,-107.95"/>
<polygon fill="black" stroke="black" points="725.67,-111.14 736.12,-112.83 729.01,-104.98 725.67,-111.14"/>
<text text-anchor="middle" x="712.5" y="-105.8" font-family="Times,serif" font-style="italic" font-size="14.00">ε</text>
</g>
<!-- s74 -->
<g id="node13" class="node">
<title>s74</title>
<ellipse fill="none" stroke="black" cx="850" cy="-136" rx="20" ry="20"/>
<text text-anchor="middle" x="850" y="-133.2" font-family="Times,serif" font-size="11.00">74</text>
</g>
<!-- s73&#45;&gt;s74 -->
<g id="edge37" class="edge">
<title>s73&#45;&gt;s74</title>
<path fill="none" stroke="black" d="M774.02,-124.83C788.04,-126.92 807.27,-129.79 822.75,-132.09"/>
<polygon fill="black" stroke="black" points="822.72,-134.56 830.01,-133.17 823.44,-129.72 822.72,-134.56"/>
<text text-anchor="middle" x="802" y="-134.2" font-family="Courier,monospace" font-size="11.00">&#39;}&#39;</text>
</g>
<!-- s74&#45;&gt;s76 -->
<g id="edge41" class="edge">
<title>s74&#45;&gt;s76</title>
<path fill="none" stroke="black" d="M864.38,-150.37C877.27,-164.22 896.96,-185.37 911.78,-201.28"/>
<polygon fill="black" stroke="black" points="909.23,-203.68 918.6,-208.61 914.35,-198.91 909.23,-203.68"/>
<text text-anchor="middle" x="891.5" y="-186.8" font-family="Times,serif" font-style="italic" font-size="14.00">ε</text>
</g>
<!-- s75&#45;&gt;s67 -->
<g id="edge5" class="edge">
<title>s75:p3&#45;&gt;s67</title>
<path fill="none" stroke="black" d="M127,-187C127,-164.74 150.51,-151.59 170.66,-144.41"/>
<polygon fill="black" stroke="black" points="172.01,-147.66 180.46,-141.27 169.87,-140.99 172.01,-147.66"/>
<text text-anchor="middle" x="158.5" y="-154.8" font-family="Times,serif" font-style="italic" font-size="14.00">ε</text>
</g>
<!-- s43 -->
<g id="node16" class="node">
<title>s43</title>
<ellipse fill="none" stroke="black" cx="200" cy="-315" rx="20" ry="20"/>
<text text-anchor="middle" x="200" y="-312.2" font-family="Times,serif" font-size="11.00">43</text>
</g>
<!-- s75&#45;&gt;s43 -->
<g id="edge2" class="edge">
<title>s75:p0&#45;&gt;s43</title>
<path fill="none" stroke="black" d="M127,-269C127,-290.57 150.24,-302.48 170.31,-308.74"/>
<polygon fill="black" stroke="black" points="169.51,-312.15 180.08,-311.45 171.38,-305.41 169.51,-312.15"/>
<text text-anchor="middle" x="158.5" y="-308.8" font-family="Times,serif" font-style="italic" font-size="14.00">ε</text>
</g>
<!-- s51 -->
<g id="node24" class="node">
<title>s51</title>
<ellipse fill="none" stroke="black" cx="200" cy="-257" rx="20" ry="20"/>
<text text-anchor="middle" x="200" y="-254.2" font-family="Times,serif" font-size="11.00">51</text>
</g>
<!-- s75&#45;&gt;s51 -->
<g id="edge3" class="edge">
<title>s75:p1&#45;&gt;s51</title>
<path fill="none" stroke="black" d="M137,-238C148.86,-238 161.46,-241.22 172.18,-245"/>
<polygon fill="black" stroke="black" points="171.2,-248.38 181.79,-248.72 173.73,-241.85 171.2,-248.38"/>
<text text-anchor="middle" x="158.5" y="-244.8" font-family="Times,serif" font-style="italic" font-size="14.00">ε</text>
</g>
<!-- s59 -->
<g id="node32" class="node">
<title>s59</title>
<ellipse fill="none" stroke="black" cx="200" cy="-199" rx="20" ry="20"/>
<text text-anchor="middle" x="200" y="-196.2" font-family="Times,serif" font-size="11.00">59</text>
</g>
<!-- s75&#45;&gt;s59 -->
<g id="edge4" class="edge">
<title>s75:p2&#45;&gt;s59</title>
<path fill="none" stroke="black" d="M137,-218C148.86,-218 161.46,-214.78 172.18,-211"/>
<polygon fill="black" stroke="black" points="173.73,-214.15 181.79,-207.28 171.2,-207.62 173.73,-214.15"/>
<text text-anchor="middle" x="158.5" y="-218.8" font-family="Times,serif" font-style="italic" font-size="14.00">ε</text>
</g>
<!-- s76&#45;&gt;s9 -->
<g id="edge42" class="edge">
<title>s76&#45;&gt;s9</title>
<path fill="none" stroke="black" d="M953.2,-223C962.7,-223 974.48,-223 985.51,-223"/>
<polygon fill="black" stroke="black" points="985.76,-226.5 995.76,-223 985.76,-219.5 985.76,-226.5"/>
<text text-anchor="middle" x="974.5" y="-226.8" font-family="Times,serif" font-style="italic" font-size="14.00">ε</text>
</g>
<!-- s44 -->
<g id="node17" class="node">
<title>s44</title>
<ellipse fill="none" stroke="black" cx="329" cy="-356" rx="20" ry="20"/>
<text text-anchor="middle" x="329" y="-353.2" font-family="Times,serif" font-size="11.00">44</text>
</g>
<!-- s43&#45;&gt;s44 -->
<g id="edge6" class="edge">
<title>s43&#45;&gt;s44</title>
<path fill="none" stroke="black" d="M219.2,-320.87C241.17,-327.97 278.25,-339.94 302.92,-347.9"/>
<polygon fill="black" stroke="black" points="302.42,-350.32 309.84,-350.14 303.93,-345.65 302.42,-350.32"/>
<text text-anchor="middle" x="264.5" y="-346.2" font-family="Courier,monospace" font-size="11.00">TREE</text>
</g>
<!-- s47 -->
<g id="node20" class="node">
<title>s47</title>
<polygon fill="none" stroke="black" points="405,-357 405,-401 459,-401 459,-357 405,-357"/>
<text text-anchor="middle" x="422" y="-388.2" font-family="Times,serif" font-size="11.00">→</text>
<text text-anchor="middle" x="422" y="-376.2" font-family="Times,serif" font-size="11.00">47</text>
<text text-anchor="middle" x="422" y="-364.2" font-family="Times,serif" font-size="11.00">d=4</text>
<polyline fill="none" stroke="black" points="439,-357 439,-401 "/>
<text text-anchor="middle" x="449" y="-387.2" font-family="Times,serif" font-size="11.00"> </text>
<polyline fill="none" stroke="black" points="439,-379 459,-379 "/>
<text text-anchor="middle" x="449" y="-365.2" font-family="Times,serif" font-size="11.00"> </text>
</g>
<!-- s44&#45;&gt;s47 -->
<g id="edge10" class="edge">
<title>s44&#45;&gt;s47</title>
<path fill="none" stroke="black" d="M349,-360.33C362.67,-363.44 381.48,-367.72 397.64,-371.4"/>
<polygon fill="black" stroke="black" points="397.48,-373.88 404.85,-373.04 398.57,-369.1 397.48,-373.88"/>
<text text-anchor="middle" x="377" y="-371.2" font-family="Courier,monospace" font-size="11.00">&#39;{&#39;</text>
</g>
<!-- s45 -->
<g id="node18" class="node">
<title>s45</title>
<ellipse fill="none" stroke="black" cx="522" cy="-426" rx="20" ry="20"/>
<text text-anchor="middle" x="522" y="-423.2" font-family="Times,serif" font-size="11.00">45</text>
</g>
<!-- s48 -->
<g id="node21" class="node">
<title>s48</title>
<ellipse fill="none" stroke="black" cx="671" cy="-368" rx="20" ry="20"/>
<text text-anchor="middle" x="671" y="-371.2" font-family="Times,serif" font-size="11.00">←</text>
<text text-anchor="middle" x="671" y="-359.2" font-family="Times,serif" font-size="11.00">48</text>
</g>
<!-- s45&#45;&gt;s48 -->
<g id="edge22" class="edge">
<title>s45&#45;&gt;s48</title>
<path fill="none" stroke="black" d="M541,-419.4C562.87,-411.32 600.81,-397.1 633,-384 637.17,-382.3 641.58,-380.45 645.84,-378.62"/>
<polygon fill="black" stroke="black" points="646.92,-380.83 652.37,-375.81 644.98,-376.33 646.92,-380.83"/>
<text text-anchor="middle" x="596.5" y="-414.2" font-family="Courier,monospace" font-size="11.00">&lt;stmts&gt;</text>
</g>
<!-- s46 -->
<g id="node19" class="node">
<title>s46</title>
<ellipse fill="none" stroke="black" cx="522" cy="-368" rx="20" ry="20"/>
<text text-anchor="middle" x="522" y="-365.2" font-family="Times,serif" font-size="11.00">46</text>
</g>
<!-- s46&#45;&gt;s48 -->
<g id="edge23" class="edge">
<title>s46&#45;&gt;s48</title>
<path fill="none" stroke="black" d="M542.22,-368C568.19,-368 614.59,-368 643.76,-368"/>
<polygon fill="black" stroke="black" points="643.78,-370.45 650.78,-368 643.78,-365.55 643.78,-370.45"/>
<text text-anchor="middle" x="596.5" y="-371.2" font-family="Courier,monospace" font-size="11.00">&lt;antlrUtil&gt;</text>
</g>
<!-- s47&#45;&gt;s45 -->
<g id="edge14" class="edge">
<title>s47:p0&#45;&gt;s45</title>
<path fill="none" stroke="black" d="M459,-390C473.68,-390 487.99,-397.64 499.16,-405.88"/>
<polygon fill="black" stroke="black" points="497.05,-408.67 507.04,-412.18 501.42,-403.21 497.05,-408.67"/>
<text text-anchor="middle" x="480.5" y="-399.8" font-family="Times,serif" font-style="italic" font-size="14.00">ε</text>
</g>
<!-- s47&#45;&gt;s46 -->
<g id="edge15" class="edge">
<title>s47:p1&#45;&gt;s46</title>
<path fill="none" stroke="black" d="M459,-368C469.63,-368 481.27,-368 491.58,-368"/>
<polygon fill="black" stroke="black" points="491.73,-371.5 501.73,-368 491.73,-364.5 491.73,-371.5"/>
<text text-anchor="middle" x="480.5" y="-371.8" font-family="Times,serif" font-style="italic" font-size="14.00">ε</text>
</g>
<!-- s49 -->
<g id="node22" class="node">
<title>s49</title>
<ellipse fill="none" stroke="black" cx="754" cy="-339" rx="20" ry="20"/>
<text text-anchor="middle" x="754" y="-336.2" font-family="Times,serif" font-size="11.00">49</text>
</g>
<!-- s48&#45;&gt;s49 -->
<g id="edge30" class="edge">
<title>s48&#45;&gt;s49</title>
<path fill="none" stroke="black" d="M689.98,-361.56C700.29,-357.87 713.45,-353.16 725.08,-349"/>
<polygon fill="black" stroke="black" points="726.56,-352.18 734.79,-345.52 724.2,-345.59 726.56,-352.18"/>
<text text-anchor="middle" x="712.5" y="-357.8" font-family="Times,serif" font-style="italic" font-size="14.00">ε</text>
</g>
<!-- s50 -->
<g id="node23" class="node">
<title>s50</title>
<ellipse fill="none" stroke="black" cx="850" cy="-310" rx="20" ry="20"/>
<text text-anchor="middle" x="850" y="-307.2" font-family="Times,serif" font-size="11.00">50</text>
</g>
<!-- s49&#45;&gt;s50 -->
<g id="edge34" class="edge">
<title>s49&#45;&gt;s50</title>
<path fill="none" stroke="black" d="M773.57,-333.27C787.95,-328.83 808.03,-322.64 823.85,-317.76"/>
<polygon fill="black" stroke="black" points="824.82,-320.02 830.79,-315.62 823.38,-315.34 824.82,-320.02"/>
<text text-anchor="middle" x="802" y="-330.2" font-family="Courier,monospace" font-size="11.00">&#39;}&#39;</text>
</g>
<!-- s50&#45;&gt;s76 -->
<g id="edge38" class="edge">
<title>s50&#45;&gt;s76</title>
<path fill="none" stroke="black" d="M864.38,-295.63C877.27,-281.78 896.96,-260.63 911.78,-244.72"/>
<polygon fill="black" stroke="black" points="914.35,-247.09 918.6,-237.39 909.23,-242.32 914.35,-247.09"/>
<text text-anchor="middle" x="891.5" y="-272.8" font-family="Times,serif" font-style="italic" font-size="14.00">ε</text>
</g>
<!-- s52 -->
<g id="node25" class="node">
<title>s52</title>
<ellipse fill="none" stroke="black" cx="329" cy="-258" rx="20" ry="20"/>
<text text-anchor="middle" x="329" y="-255.2" font-family="Times,serif" font-size="11.00">52</text>
</g>
<!-- s51&#45;&gt;s52 -->
<g id="edge7" class="edge">
<title>s51&#45;&gt;s52</title>
<path fill="none" stroke="black" d="M220.01,-257.15C241.71,-257.32 277.33,-257.6 301.69,-257.79"/>
<polygon fill="black" stroke="black" points="301.84,-260.24 308.86,-257.85 301.88,-255.34 301.84,-260.24"/>
<text text-anchor="middle" x="264.5" y="-260.2" font-family="Courier,monospace" font-size="11.00">GUI</text>
</g>
<!-- s55 -->
<g id="node28" class="node">
<title>s55</title>
<polygon fill="none" stroke="black" points="405,-241 405,-285 459,-285 459,-241 405,-241"/>
<text text-anchor="middle" x="422" y="-272.2" font-family="Times,serif" font-size="11.00">→</text>
<text text-anchor="middle" x="422" y="-260.2" font-family="Times,serif" font-size="11.00">55</text>
<text text-anchor="middle" x="422" y="-248.2" font-family="Times,serif" font-size="11.00">d=5</text>
<polyline fill="none" stroke="black" points="439,-241 439,-285 "/>
<text text-anchor="middle" x="449" y="-271.2" font-family="Times,serif" font-size="11.00"> </text>
<polyline fill="none" stroke="black" points="439,-263 459,-263 "/>
<text text-anchor="middle" x="449" y="-249.2" font-family="Times,serif" font-size="11.00"> </text>
</g>
<!-- s52&#45;&gt;s55 -->
<g id="edge11" class="edge">
<title>s52&#45;&gt;s55</title>
<path fill="none" stroke="black" d="M349,-258.94C362.67,-259.62 381.48,-260.55 397.64,-261.35"/>
<polygon fill="black" stroke="black" points="397.73,-263.81 404.85,-261.71 397.98,-258.91 397.73,-263.81"/>
<text text-anchor="middle" x="377" y="-263.2" font-family="Courier,monospace" font-size="11.00">&#39;{&#39;</text>
</g>
<!-- s53 -->
<g id="node26" class="node">
<title>s53</title>
<ellipse fill="none" stroke="black" cx="522" cy="-310" rx="20" ry="20"/>
<text text-anchor="middle" x="522" y="-307.2" font-family="Times,serif" font-size="11.00">53</text>
</g>
<!-- s56 -->
<g id="node29" class="node">
<title>s56</title>
<ellipse fill="none" stroke="black" cx="671" cy="-252" rx="20" ry="20"/>
<text text-anchor="middle" x="671" y="-255.2" font-family="Times,serif" font-size="11.00">←</text>
<text text-anchor="middle" x="671" y="-243.2" font-family="Times,serif" font-size="11.00">56</text>
</g>
<!-- s53&#45;&gt;s56 -->
<g id="edge24" class="edge">
<title>s53&#45;&gt;s56</title>
<path fill="none" stroke="black" d="M541,-303.4C562.87,-295.32 600.81,-281.1 633,-268 637.17,-266.3 641.58,-264.45 645.84,-262.62"/>
<polygon fill="black" stroke="black" points="646.92,-264.83 652.37,-259.81 644.98,-260.33 646.92,-264.83"/>
<text text-anchor="middle" x="596.5" y="-298.2" font-family="Courier,monospace" font-size="11.00">&lt;stmts&gt;</text>
</g>
<!-- s54 -->
<g id="node27" class="node">
<title>s54</title>
<ellipse fill="none" stroke="black" cx="522" cy="-252" rx="20" ry="20"/>
<text text-anchor="middle" x="522" y="-249.2" font-family="Times,serif" font-size="11.00">54</text>
</g>
<!-- s54&#45;&gt;s56 -->
<g id="edge25" class="edge">
<title>s54&#45;&gt;s56</title>
<path fill="none" stroke="black" d="M542.22,-252C568.19,-252 614.59,-252 643.76,-252"/>
<polygon fill="black" stroke="black" points="643.78,-254.45 650.78,-252 643.78,-249.55 643.78,-254.45"/>
<text text-anchor="middle" x="596.5" y="-255.2" font-family="Courier,monospace" font-size="11.00">&lt;antlrUtil&gt;</text>
</g>
<!-- s55&#45;&gt;s53 -->
<g id="edge16" class="edge">
<title>s55:p0&#45;&gt;s53</title>
<path fill="none" stroke="black" d="M459,-274C473.68,-274 487.99,-281.64 499.16,-289.88"/>
<polygon fill="black" stroke="black" points="497.05,-292.67 507.04,-296.18 501.42,-287.21 497.05,-292.67"/>
<text text-anchor="middle" x="480.5" y="-283.8" font-family="Times,serif" font-style="italic" font-size="14.00">ε</text>
</g>
<!-- s55&#45;&gt;s54 -->
<g id="edge17" class="edge">
<title>s55:p1&#45;&gt;s54</title>
<path fill="none" stroke="black" d="M459,-252C469.63,-252 481.27,-252 491.58,-252"/>
<polygon fill="black" stroke="black" points="491.73,-255.5 501.73,-252 491.73,-248.5 491.73,-255.5"/>
<text text-anchor="middle" x="480.5" y="-255.8" font-family="Times,serif" font-style="italic" font-size="14.00">ε</text>
</g>
<!-- s57 -->
<g id="node30" class="node">
<title>s57</title>
<ellipse fill="none" stroke="black" cx="754" cy="-252" rx="20" ry="20"/>
<text text-anchor="middle" x="754" y="-249.2" font-family="Times,serif" font-size="11.00">57</text>
</g>
<!-- s56&#45;&gt;s57 -->
<g id="edge31" class="edge">
<title>s56&#45;&gt;s57</title>
<path fill="none" stroke="black" d="M691.2,-252C700.88,-252 712.84,-252 723.64,-252"/>
<polygon fill="black" stroke="black" points="723.94,-255.5 733.94,-252 723.94,-248.5 723.94,-255.5"/>
<text text-anchor="middle" x="712.5" y="-255.8" font-family="Times,serif" font-style="italic" font-size="14.00">ε</text>
</g>
<!-- s58 -->
<g id="node31" class="node">
<title>s58</title>
<ellipse fill="none" stroke="black" cx="850" cy="-252" rx="20" ry="20"/>
<text text-anchor="middle" x="850" y="-249.2" font-family="Times,serif" font-size="11.00">58</text>
</g>
<!-- s57&#45;&gt;s58 -->
<g id="edge35" class="edge">
<title>s57&#45;&gt;s58</title>
<path fill="none" stroke="black" d="M774.02,-252C787.95,-252 807.02,-252 822.44,-252"/>
<polygon fill="black" stroke="black" points="822.68,-254.45 829.68,-252 822.68,-249.55 822.68,-254.45"/>
<text text-anchor="middle" x="802" y="-255.2" font-family="Courier,monospace" font-size="11.00">&#39;}&#39;</text>
</g>
<!-- s58&#45;&gt;s76 -->
<g id="edge39" class="edge">
<title>s58&#45;&gt;s76</title>
<path fill="none" stroke="black" d="M868.98,-245.56C879.29,-241.87 892.45,-237.16 904.08,-233"/>
<polygon fill="black" stroke="black" points="905.56,-236.18 913.79,-229.52 903.2,-229.59 905.56,-236.18"/>
<text text-anchor="middle" x="891.5" y="-241.8" font-family="Times,serif" font-style="italic" font-size="14.00">ε</text>
</g>
<!-- s60 -->
<g id="node33" class="node">
<title>s60</title>
<ellipse fill="none" stroke="black" cx="329" cy="-199" rx="20" ry="20"/>
<text text-anchor="middle" x="329" y="-196.2" font-family="Times,serif" font-size="11.00">60</text>
</g>
<!-- s59&#45;&gt;s60 -->
<g id="edge8" class="edge">
<title>s59&#45;&gt;s60</title>
<path fill="none" stroke="black" d="M220.01,-199C241.71,-199 277.33,-199 301.69,-199"/>
<polygon fill="black" stroke="black" points="301.86,-201.45 308.86,-199 301.86,-196.55 301.86,-201.45"/>
<text text-anchor="middle" x="264.5" y="-202.2" font-family="Courier,monospace" font-size="11.00">REFACTOR</text>
</g>
<!-- s63 -->
<g id="node36" class="node">
<title>s63</title>
<polygon fill="none" stroke="black" points="405,-161 405,-205 459,-205 459,-161 405,-161"/>
<text text-anchor="middle" x="422" y="-192.2" font-family="Times,serif" font-size="11.00">→</text>
<text text-anchor="middle" x="422" y="-180.2" font-family="Times,serif" font-size="11.00">63</text>
<text text-anchor="middle" x="422" y="-168.2" font-family="Times,serif" font-size="11.00">d=6</text>
<polyline fill="none" stroke="black" points="439,-161 439,-205 "/>
<text text-anchor="middle" x="449" y="-191.2" font-family="Times,serif" font-size="11.00"> </text>
<polyline fill="none" stroke="black" points="439,-183 459,-183 "/>
<text text-anchor="middle" x="449" y="-169.2" font-family="Times,serif" font-size="11.00"> </text>
</g>
<!-- s60&#45;&gt;s63 -->
<g id="edge12" class="edge">
<title>s60&#45;&gt;s63</title>
<path fill="none" stroke="black" d="M349,-195.99C362.67,-193.82 381.48,-190.84 397.64,-188.28"/>
<polygon fill="black" stroke="black" points="398.32,-190.66 404.85,-187.14 397.55,-185.82 398.32,-190.66"/>
<text text-anchor="middle" x="377" y="-195.2" font-family="Courier,monospace" font-size="11.00">&#39;{&#39;</text>
</g>
<!-- s61 -->
<g id="node34" class="node">
<title>s61</title>
<ellipse fill="none" stroke="black" cx="522" cy="-194" rx="20" ry="20"/>
<text text-anchor="middle" x="522" y="-191.2" font-family="Times,serif" font-size="11.00">61</text>
</g>
<!-- s61&#45;&gt;s64 -->
<g id="edge26" class="edge">
<title>s61&#45;&gt;s64</title>
<path fill="none" stroke="black" d="M542.22,-194C568.19,-194 614.59,-194 643.76,-194"/>
<polygon fill="black" stroke="black" points="643.78,-196.45 650.78,-194 643.78,-191.55 643.78,-196.45"/>
<text text-anchor="middle" x="596.5" y="-197.2" font-family="Courier,monospace" font-size="11.00">&lt;stmts&gt;</text>
</g>
<!-- s62 -->
<g id="node35" class="node">
<title>s62</title>
<ellipse fill="none" stroke="black" cx="522" cy="-136" rx="20" ry="20"/>
<text text-anchor="middle" x="522" y="-133.2" font-family="Times,serif" font-size="11.00">62</text>
</g>
<!-- s62&#45;&gt;s64 -->
<g id="edge27" class="edge">
<title>s62&#45;&gt;s64</title>
<path fill="none" stroke="black" d="M541,-142.6C562.87,-150.68 600.81,-164.9 633,-178 637.17,-179.7 641.58,-181.55 645.84,-183.38"/>
<polygon fill="black" stroke="black" points="644.98,-185.67 652.37,-186.19 646.92,-181.17 644.98,-185.67"/>
<text text-anchor="middle" x="596.5" y="-181.2" font-family="Courier,monospace" font-size="11.00">&lt;antlrUtil&gt;</text>
</g>
<!-- s63&#45;&gt;s61 -->
<g id="edge18" class="edge">
<title>s63:p0&#45;&gt;s61</title>
<path fill="none" stroke="black" d="M459,-194C469.63,-194 481.27,-194 491.58,-194"/>
<polygon fill="black" stroke="black" points="491.73,-197.5 501.73,-194 491.73,-190.5 491.73,-197.5"/>
<text text-anchor="middle" x="480.5" y="-197.8" font-family="Times,serif" font-style="italic" font-size="14.00">ε</text>
</g>
<!-- s63&#45;&gt;s62 -->
<g id="edge19" class="edge">
<title>s63:p1&#45;&gt;s62</title>
<path fill="none" stroke="black" d="M459,-172C473.68,-172 487.99,-164.36 499.16,-156.12"/>
<polygon fill="black" stroke="black" points="501.42,-158.79 507.04,-149.82 497.05,-153.33 501.42,-158.79"/>
<text text-anchor="middle" x="480.5" y="-172.8" font-family="Times,serif" font-style="italic" font-size="14.00">ε</text>
</g>
</g>
</svg>
