<?xml version="1.0" encoding="UTF-8" standalone="no"?>
<!DOCTYPE svg PUBLIC "-//W3C//DTD SVG 1.1//EN"
 "http://www.w3.org/Graphics/SVG/1.1/DTD/svg11.dtd">
<!-- Generated by graphviz version 2.49.0 (20210828.1703)
 -->
<!-- Title: ATN Pages: 1 -->
<svg width="521pt" height="169pt"
 viewBox="0.00 0.00 521.00 168.50" xmlns="http://www.w3.org/2000/svg" xmlns:xlink="http://www.w3.org/1999/xlink">
<g id="graph0" class="graph" transform="scale(1 1) rotate(0) translate(4 164.5)">
<title>ATN</title>
<polygon fill="white" stroke="transparent" points="-4,4 -4,-164.5 517,-164.5 517,4 -4,4"/>
<!-- s5 -->
<g id="node1" class="node">
<title>s5</title>
<ellipse fill="none" stroke="black" cx="288.5" cy="-25.5" rx="21.5" ry="21.5"/>
<ellipse fill="none" stroke="black" cx="288.5" cy="-25.5" rx="25.5" ry="25.5"/>
<text text-anchor="middle" x="288.5" y="-22.7" font-family="Times,serif" font-size="11.00">5</text>
</g>
<!-- s4 -->
<g id="node2" class="node">
<title>s4</title>
<ellipse fill="none" stroke="black" cx="20" cy="-87.5" rx="20" ry="20"/>
<text text-anchor="middle" x="20" y="-84.7" font-family="Times,serif" font-size="11.00">4</text>
</g>
<!-- s26 -->
<g id="node6" class="node">
<title>s26</title>
<polygon fill="none" stroke="black" points="83,-67.5 83,-107.5 137,-107.5 137,-67.5 83,-67.5"/>
<text text-anchor="middle" x="100" y="-90.7" font-family="Times,serif" font-size="11.00">26*</text>
<text text-anchor="middle" x="100" y="-78.7" font-family="Times,serif" font-size="11.00">d=1</text>
<polyline fill="none" stroke="black" points="117,-67.5 117,-107.5 "/>
<text text-anchor="middle" x="127" y="-94.7" font-family="Times,serif" font-size="11.00"> </text>
<polyline fill="none" stroke="black" points="117,-87.5 137,-87.5 "/>
<text text-anchor="middle" x="127" y="-74.7" font-family="Times,serif" font-size="11.00"> </text>
</g>
<!-- s4&#45;&gt;s26 -->
<g id="edge1" class="edge">
<title>s4&#45;&gt;s26</title>
<path fill="none" stroke="black" d="M40.09,-87.5C49.69,-87.5 61.65,-87.5 72.89,-87.5"/>
<polygon fill="black" stroke="black" points="72.93,-91 82.93,-87.5 72.93,-84 72.93,-91"/>
<text text-anchor="middle" x="61.5" y="-91.3" font-family="Times,serif" font-style="italic" font-size="14.00">ε</text>
</g>
<!-- s23 -->
<g id="node3" class="node">
<title>s23</title>
<ellipse fill="none" stroke="black" cx="288.5" cy="-140.5" rx="20" ry="20"/>
<text text-anchor="middle" x="288.5" y="-137.7" font-family="Times,serif" font-size="11.00">23</text>
</g>
<!-- s25 -->
<g id="node5" class="node">
<title>s25</title>
<ellipse fill="none" stroke="black" cx="410" cy="-137.5" rx="20" ry="20"/>
<text text-anchor="middle" x="410" y="-140.7" font-family="Times,serif" font-size="11.00">←</text>
<text text-anchor="middle" x="410" y="-128.7" font-family="Times,serif" font-size="11.00">25</text>
</g>
<!-- s23&#45;&gt;s25 -->
<g id="edge6" class="edge">
<title>s23&#45;&gt;s25</title>
<path fill="none" stroke="black" d="M308.7,-140.02C328.73,-139.52 360.29,-138.72 382.65,-138.16"/>
<polygon fill="black" stroke="black" points="382.91,-140.61 389.85,-137.98 382.79,-135.71 382.91,-140.61"/>
<text text-anchor="middle" x="352" y="-141.7" font-family="Courier,monospace" font-size="11.00">&lt;stmt&gt;</text>
</g>
<!-- s24 -->
<g id="node4" class="node">
<title>s24</title>
<ellipse fill="none" stroke="black" cx="200" cy="-137.5" rx="20" ry="20"/>
<text text-anchor="middle" x="200" y="-140.7" font-family="Times,serif" font-size="11.00">→</text>
<text text-anchor="middle" x="200" y="-128.7" font-family="Times,serif" font-size="11.00">24*</text>
</g>
<!-- s24&#45;&gt;s23 -->
<g id="edge4" class="edge">
<title>s24&#45;&gt;s23</title>
<path fill="none" stroke="black" d="M220.2,-138.17C231.4,-138.55 245.75,-139.05 258.32,-139.49"/>
<polygon fill="black" stroke="black" points="258.24,-142.99 268.36,-139.84 258.48,-135.99 258.24,-142.99"/>
<text text-anchor="middle" x="241.5" y="-142.3" font-family="Times,serif" font-style="italic" font-size="14.00">ε</text>
</g>
<!-- s28 -->
<g id="node8" class="node">
<title>s28</title>
<ellipse fill="none" stroke="black" cx="493" cy="-103.5" rx="20" ry="20"/>
<text text-anchor="middle" x="493" y="-100.7" font-family="Times,serif" font-size="11.00">28*</text>
</g>
<!-- s25&#45;&gt;s28 -->
<g id="edge7" class="edge">
<title>s25&#45;&gt;s28</title>
<path fill="none" stroke="black" d="M428.98,-129.95C439.54,-125.52 453.09,-119.83 464.92,-114.87"/>
<polygon fill="black" stroke="black" points="466.49,-118.01 474.35,-110.91 463.78,-111.55 466.49,-118.01"/>
<text text-anchor="middle" x="451.5" y="-125.3" font-family="Times,serif" font-style="italic" font-size="14.00">ε</text>
</g>
<!-- s26&#45;&gt;s24 -->
<g id="edge2" class="edge">
<title>s26:p0&#45;&gt;s24</title>
<path fill="none" stroke="black" d="M137,-97.5C145.54,-97.5 162,-108.35 175.82,-118.75"/>
<polygon fill="black" stroke="black" points="173.93,-121.71 183.98,-125.06 178.21,-116.18 173.93,-121.71"/>
<text text-anchor="middle" x="158.5" y="-111.3" font-family="Times,serif" font-style="italic" font-size="14.00">ε</text>
</g>
<!-- s27 -->
<g id="node7" class="node">
<title>s27</title>
<ellipse fill="none" stroke="black" cx="200" cy="-32.5" rx="20" ry="20"/>
<text text-anchor="middle" x="200" y="-29.7" font-family="Times,serif" font-size="11.00">27</text>
</g>
<!-- s26&#45;&gt;s27 -->
<g id="edge3" class="edge">
<title>s26:p1&#45;&gt;s27</title>
<path fill="none" stroke="black" d="M127,-66.5C127,-46.61 149.75,-38.33 169.68,-34.9"/>
<polygon fill="black" stroke="black" points="170.28,-38.36 179.71,-33.52 169.32,-31.42 170.28,-38.36"/>
<text text-anchor="middle" x="158.5" y="-42.3" font-family="Times,serif" font-style="italic" font-size="14.00">ε</text>
</g>
<!-- s27&#45;&gt;s5 -->
<g id="edge5" class="edge">
<title>s27&#45;&gt;s5</title>
<path fill="none" stroke="black" d="M220.2,-30.95C229.7,-30.18 241.48,-29.22 252.51,-28.33"/>
<polygon fill="black" stroke="black" points="253.08,-31.8 262.76,-27.5 252.51,-24.82 253.08,-31.8"/>
<text text-anchor="middle" x="241.5" y="-33.3" font-family="Times,serif" font-style="italic" font-size="14.00">ε</text>
</g>
<!-- s28&#45;&gt;s26 -->
<g id="edge8" class="edge">
<title>s28&#45;&gt;s26</title>
<path fill="none" stroke="black" stroke-dasharray="5,2" d="M473.54,-97.72C457.26,-93.14 432.79,-87.5 411,-87.5 199,-87.5 199,-87.5 199,-87.5 182.12,-87.5 163.41,-87.5 147.61,-87.5"/>
<polygon fill="black" stroke="black" points="147.18,-84 137.18,-87.5 147.18,-91 147.18,-84"/>
<text text-anchor="middle" x="288.5" y="-91.3" font-family="Times,serif" font-style="italic" font-size="14.00">ε</text>
</g>
</g>
</svg>
