<?xml version="1.0" encoding="UTF-8" standalone="no"?>
<!DOCTYPE svg PUBLIC "-//W3C//DTD SVG 1.1//EN"
 "http://www.w3.org/Graphics/SVG/1.1/DTD/svg11.dtd">
<!-- Generated by graphviz version 2.49.0 (20210828.1703)
 -->
<!-- Title: ATN Pages: 1 -->
<svg width="541pt" height="155pt"
 viewBox="0.00 0.00 541.00 155.00" xmlns="http://www.w3.org/2000/svg" xmlns:xlink="http://www.w3.org/1999/xlink">
<g id="graph0" class="graph" transform="scale(1 1) rotate(0) translate(4 151)">
<title>ATN</title>
<polygon fill="white" stroke="transparent" points="-4,4 -4,-151 537,-151 537,4 -4,4"/>
<!-- s66 -->
<g id="node1" class="node">
<title>s66</title>
<ellipse fill="none" stroke="black" cx="507.5" cy="-69" rx="21.5" ry="21.5"/>
<ellipse fill="none" stroke="black" cx="507.5" cy="-69" rx="25.5" ry="25.5"/>
<text text-anchor="middle" x="507.5" y="-66.2" font-family="Times,serif" font-size="11.00">66</text>
</g>
<!-- s65 -->
<g id="node2" class="node">
<title>s65</title>
<ellipse fill="none" stroke="black" cx="20" cy="-69" rx="20" ry="20"/>
<text text-anchor="middle" x="20" y="-66.2" font-family="Times,serif" font-size="11.00">65</text>
</g>
<!-- s252 -->
<g id="node8" class="node">
<title>s252</title>
<polygon fill="none" stroke="black" points="83,-39 83,-99 137,-99 137,-39 83,-39"/>
<text text-anchor="middle" x="100" y="-78.2" font-family="Times,serif" font-size="11.00">→</text>
<text text-anchor="middle" x="100" y="-66.2" font-family="Times,serif" font-size="11.00">252</text>
<text text-anchor="middle" x="100" y="-54.2" font-family="Times,serif" font-size="11.00">d=6</text>
<polyline fill="none" stroke="black" points="117,-39 117,-99 "/>
<text text-anchor="middle" x="127" y="-86.2" font-family="Times,serif" font-size="11.00"> </text>
<polyline fill="none" stroke="black" points="117,-79 137,-79 "/>
<text text-anchor="middle" x="127" y="-66.2" font-family="Times,serif" font-size="11.00"> </text>
<polyline fill="none" stroke="black" points="117,-59 137,-59 "/>
<text text-anchor="middle" x="127" y="-46.2" font-family="Times,serif" font-size="11.00"> </text>
</g>
<!-- s65&#45;&gt;s252 -->
<g id="edge1" class="edge">
<title>s65&#45;&gt;s252</title>
<path fill="none" stroke="black" d="M40.09,-69C49.69,-69 61.65,-69 72.89,-69"/>
<polygon fill="black" stroke="black" points="72.93,-72.5 82.93,-69 72.93,-65.5 72.93,-72.5"/>
<text text-anchor="middle" x="61.5" y="-72.8" font-family="Times,serif" font-style="italic" font-size="14.00">ε</text>
</g>
<!-- s247 -->
<g id="node3" class="node">
<title>s247</title>
<ellipse fill="none" stroke="black" cx="200" cy="-127" rx="20" ry="20"/>
<text text-anchor="middle" x="200" y="-124.2" font-family="Times,serif" font-size="11.00">247</text>
</g>
<!-- s248 -->
<g id="node4" class="node">
<title>s248</title>
<ellipse fill="none" stroke="black" cx="316" cy="-127" rx="20" ry="20"/>
<text text-anchor="middle" x="316" y="-124.2" font-family="Times,serif" font-size="11.00">248</text>
</g>
<!-- s247&#45;&gt;s248 -->
<g id="edge5" class="edge">
<title>s247&#45;&gt;s248</title>
<path fill="none" stroke="black" d="M220.08,-127C238.91,-127 267.83,-127 288.8,-127"/>
<polygon fill="black" stroke="black" points="288.86,-129.45 295.86,-127 288.86,-124.55 288.86,-129.45"/>
<text text-anchor="middle" x="258" y="-130.2" font-family="Courier,monospace" font-size="11.00">&#39;\\&#39;</text>
</g>
<!-- s253 -->
<g id="node9" class="node">
<title>s253</title>
<ellipse fill="none" stroke="black" cx="419" cy="-69" rx="20" ry="20"/>
<text text-anchor="middle" x="419" y="-72.2" font-family="Times,serif" font-size="11.00">←</text>
<text text-anchor="middle" x="419" y="-60.2" font-family="Times,serif" font-size="11.00">253</text>
</g>
<!-- s248&#45;&gt;s253 -->
<g id="edge8" class="edge">
<title>s248&#45;&gt;s253</title>
<path fill="none" stroke="black" d="M333.68,-117.42C350.34,-107.85 376.11,-93.06 394.77,-82.34"/>
<polygon fill="black" stroke="black" points="396.45,-84.2 401.3,-78.59 394.01,-79.95 396.45,-84.2"/>
<text text-anchor="middle" x="367.5" y="-107.2" font-family="Courier,monospace" font-size="11.00">&#39;\&quot;&#39;</text>
</g>
<!-- s249 -->
<g id="node5" class="node">
<title>s249</title>
<ellipse fill="none" stroke="black" cx="200" cy="-69" rx="20" ry="20"/>
<text text-anchor="middle" x="200" y="-66.2" font-family="Times,serif" font-size="11.00">249</text>
</g>
<!-- s250 -->
<g id="node6" class="node">
<title>s250</title>
<ellipse fill="none" stroke="black" cx="316" cy="-69" rx="20" ry="20"/>
<text text-anchor="middle" x="316" y="-66.2" font-family="Times,serif" font-size="11.00">250</text>
</g>
<!-- s249&#45;&gt;s250 -->
<g id="edge6" class="edge">
<title>s249&#45;&gt;s250</title>
<path fill="none" stroke="black" d="M220.08,-69C238.91,-69 267.83,-69 288.8,-69"/>
<polygon fill="black" stroke="black" points="288.86,-71.45 295.86,-69 288.86,-66.55 288.86,-71.45"/>
<text text-anchor="middle" x="258" y="-72.2" font-family="Courier,monospace" font-size="11.00">&#39;\\&#39;</text>
</g>
<!-- s250&#45;&gt;s253 -->
<g id="edge9" class="edge">
<title>s250&#45;&gt;s253</title>
<path fill="none" stroke="black" d="M336.47,-69C352.22,-69 374.55,-69 391.85,-69"/>
<polygon fill="black" stroke="black" points="391.93,-71.45 398.93,-69 391.93,-66.55 391.93,-71.45"/>
<text text-anchor="middle" x="367.5" y="-72.2" font-family="Courier,monospace" font-size="11.00">&#39;&#39;&#39;</text>
</g>
<!-- s251 -->
<g id="node7" class="node">
<title>s251</title>
<ellipse fill="none" stroke="black" cx="258" cy="-20" rx="20" ry="20"/>
<text text-anchor="middle" x="258" y="-17.2" font-family="Times,serif" font-size="11.00">251</text>
</g>
<!-- s251&#45;&gt;s253 -->
<g id="edge7" class="edge">
<title>s251&#45;&gt;s253</title>
<path fill="none" stroke="black" d="M278.03,-20.09C293.84,-20.61 316.77,-22.4 336,-28 357.13,-34.16 379.35,-45.62 395.32,-54.86"/>
<polygon fill="black" stroke="black" points="394.49,-57.22 401.76,-58.67 396.98,-53 394.49,-57.22"/>
<text text-anchor="middle" x="316" y="-31.2" font-family="Courier,monospace" font-size="11.00">.</text>
</g>
<!-- s252&#45;&gt;s247 -->
<g id="edge2" class="edge">
<title>s252:p0&#45;&gt;s247</title>
<path fill="none" stroke="black" d="M137,-89C152.09,-89 166.61,-97.28 177.79,-106.12"/>
<polygon fill="black" stroke="black" points="175.78,-109 185.65,-112.85 180.34,-103.69 175.78,-109"/>
<text text-anchor="middle" x="158.5" y="-98.8" font-family="Times,serif" font-style="italic" font-size="14.00">ε</text>
</g>
<!-- s252&#45;&gt;s249 -->
<g id="edge3" class="edge">
<title>s252:p1&#45;&gt;s249</title>
<path fill="none" stroke="black" d="M137,-69C147.63,-69 159.27,-69 169.58,-69"/>
<polygon fill="black" stroke="black" points="169.73,-72.5 179.73,-69 169.73,-65.5 169.73,-72.5"/>
<text text-anchor="middle" x="158.5" y="-72.8" font-family="Times,serif" font-style="italic" font-size="14.00">ε</text>
</g>
<!-- s252&#45;&gt;s251 -->
<g id="edge4" class="edge">
<title>s252:p2&#45;&gt;s251</title>
<path fill="none" stroke="black" d="M137,-49C141.63,-49 194.59,-35.81 228.59,-27.22"/>
<polygon fill="black" stroke="black" points="229.62,-30.57 238.46,-24.72 227.9,-23.79 229.62,-30.57"/>
<text text-anchor="middle" x="158.5" y="-49.8" font-family="Times,serif" font-style="italic" font-size="14.00">ε</text>
</g>
<!-- s253&#45;&gt;s66 -->
<g id="edge10" class="edge">
<title>s253&#45;&gt;s66</title>
<path fill="none" stroke="black" d="M439.2,-69C448.7,-69 460.48,-69 471.51,-69"/>
<polygon fill="black" stroke="black" points="471.76,-72.5 481.76,-69 471.76,-65.5 471.76,-72.5"/>
<text text-anchor="middle" x="460.5" y="-72.8" font-family="Times,serif" font-style="italic" font-size="14.00">ε</text>
</g>
</g>
</svg>
