<?xml version="1.0" encoding="UTF-8" standalone="no"?>
<!DOCTYPE svg PUBLIC "-//W3C//DTD SVG 1.1//EN"
 "http://www.w3.org/Graphics/SVG/1.1/DTD/svg11.dtd">
<!-- Generated by graphviz version 2.49.0 (20210828.1703)
 -->
<!-- Title: ATN Pages: 1 -->
<svg width="513pt" height="59pt"
 viewBox="0.00 0.00 513.00 59.00" xmlns="http://www.w3.org/2000/svg" xmlns:xlink="http://www.w3.org/1999/xlink">
<g id="graph0" class="graph" transform="scale(1 1) rotate(0) translate(4 55)">
<title>ATN</title>
<polygon fill="white" stroke="transparent" points="-4,4 -4,-55 509,-55 509,4 -4,4"/>
<!-- s52 -->
<g id="node1" class="node">
<title>s52</title>
<ellipse fill="none" stroke="black" cx="479.5" cy="-25.5" rx="21.5" ry="21.5"/>
<ellipse fill="none" stroke="black" cx="479.5" cy="-25.5" rx="25.5" ry="25.5"/>
<text text-anchor="middle" x="479.5" y="-22.7" font-family="Times,serif" font-size="11.00">52</text>
</g>
<!-- s51 -->
<g id="node2" class="node">
<title>s51</title>
<ellipse fill="none" stroke="black" cx="20" cy="-25.5" rx="20" ry="20"/>
<text text-anchor="middle" x="20" y="-22.7" font-family="Times,serif" font-size="11.00">51</text>
</g>
<!-- s201 -->
<g id="node3" class="node">
<title>s201</title>
<ellipse fill="none" stroke="black" cx="103" cy="-25.5" rx="20" ry="20"/>
<text text-anchor="middle" x="103" y="-22.7" font-family="Times,serif" font-size="11.00">201</text>
</g>
<!-- s51&#45;&gt;s201 -->
<g id="edge1" class="edge">
<title>s51&#45;&gt;s201</title>
<path fill="none" stroke="black" d="M40.2,-25.5C49.88,-25.5 61.84,-25.5 72.64,-25.5"/>
<polygon fill="black" stroke="black" points="72.94,-29 82.94,-25.5 72.94,-22 72.94,-29"/>
<text text-anchor="middle" x="61.5" y="-29.3" font-family="Times,serif" font-style="italic" font-size="14.00">ε</text>
</g>
<!-- s202 -->
<g id="node4" class="node">
<title>s202</title>
<ellipse fill="none" stroke="black" cx="199" cy="-25.5" rx="20" ry="20"/>
<text text-anchor="middle" x="199" y="-22.7" font-family="Times,serif" font-size="11.00">202</text>
</g>
<!-- s201&#45;&gt;s202 -->
<g id="edge2" class="edge">
<title>s201&#45;&gt;s202</title>
<path fill="none" stroke="black" d="M123.02,-25.5C136.95,-25.5 156.02,-25.5 171.44,-25.5"/>
<polygon fill="black" stroke="black" points="171.68,-27.95 178.68,-25.5 171.68,-23.05 171.68,-27.95"/>
<text text-anchor="middle" x="151" y="-28.7" font-family="Courier,monospace" font-size="11.00">&lt;G&gt;</text>
</g>
<!-- s203 -->
<g id="node5" class="node">
<title>s203</title>
<ellipse fill="none" stroke="black" cx="295" cy="-25.5" rx="20" ry="20"/>
<text text-anchor="middle" x="295" y="-22.7" font-family="Times,serif" font-size="11.00">203</text>
</g>
<!-- s202&#45;&gt;s203 -->
<g id="edge3" class="edge">
<title>s202&#45;&gt;s203</title>
<path fill="none" stroke="black" d="M219.02,-25.5C232.95,-25.5 252.02,-25.5 267.44,-25.5"/>
<polygon fill="black" stroke="black" points="267.68,-27.95 274.68,-25.5 267.68,-23.05 267.68,-27.95"/>
<text text-anchor="middle" x="247" y="-28.7" font-family="Courier,monospace" font-size="11.00">&lt;U&gt;</text>
</g>
<!-- s204 -->
<g id="node6" class="node">
<title>s204</title>
<ellipse fill="none" stroke="black" cx="391" cy="-25.5" rx="20" ry="20"/>
<text text-anchor="middle" x="391" y="-22.7" font-family="Times,serif" font-size="11.00">204</text>
</g>
<!-- s203&#45;&gt;s204 -->
<g id="edge4" class="edge">
<title>s203&#45;&gt;s204</title>
<path fill="none" stroke="black" d="M315.02,-25.5C328.95,-25.5 348.02,-25.5 363.44,-25.5"/>
<polygon fill="black" stroke="black" points="363.68,-27.95 370.68,-25.5 363.68,-23.05 363.68,-27.95"/>
<text text-anchor="middle" x="343" y="-28.7" font-family="Courier,monospace" font-size="11.00">&lt;I&gt;</text>
</g>
<!-- s204&#45;&gt;s52 -->
<g id="edge5" class="edge">
<title>s204&#45;&gt;s52</title>
<path fill="none" stroke="black" d="M411.2,-25.5C420.7,-25.5 432.48,-25.5 443.51,-25.5"/>
<polygon fill="black" stroke="black" points="443.76,-29 453.76,-25.5 443.76,-22 443.76,-29"/>
<text text-anchor="middle" x="432.5" y="-29.3" font-family="Times,serif" font-style="italic" font-size="14.00">ε</text>
</g>
</g>
</svg>
