<?xml version="1.0" encoding="UTF-8" standalone="no"?>
<!DOCTYPE svg PUBLIC "-//W3C//DTD SVG 1.1//EN"
 "http://www.w3.org/Graphics/SVG/1.1/DTD/svg11.dtd">
<!-- Generated by graphviz version 2.49.0 (20210828.1703)
 -->
<!-- Title: ATN Pages: 1 -->
<svg width="853pt" height="285pt"
 viewBox="0.00 0.00 853.00 284.50" xmlns="http://www.w3.org/2000/svg" xmlns:xlink="http://www.w3.org/1999/xlink">
<g id="graph0" class="graph" transform="scale(1 1) rotate(0) translate(4 280.5)">
<title>ATN</title>
<polygon fill="white" stroke="transparent" points="-4,4 -4,-280.5 849,-280.5 849,4 -4,4"/>
<!-- s72 -->
<g id="node1" class="node">
<title>s72</title>
<ellipse fill="none" stroke="black" cx="613.5" cy="-25.5" rx="21.5" ry="21.5"/>
<ellipse fill="none" stroke="black" cx="613.5" cy="-25.5" rx="25.5" ry="25.5"/>
<text text-anchor="middle" x="613.5" y="-22.7" font-family="Times,serif" font-size="11.00">72</text>
</g>
<!-- s71 -->
<g id="node2" class="node">
<title>s71</title>
<ellipse fill="none" stroke="black" cx="20" cy="-85.5" rx="20" ry="20"/>
<text text-anchor="middle" x="20" y="-82.7" font-family="Times,serif" font-size="11.00">71</text>
</g>
<!-- s276 -->
<g id="node5" class="node">
<title>s276</title>
<polygon fill="none" stroke="black" points="83,-63.5 83,-107.5 137,-107.5 137,-63.5 83,-63.5"/>
<text text-anchor="middle" x="100" y="-94.7" font-family="Times,serif" font-size="11.00">→</text>
<text text-anchor="middle" x="100" y="-82.7" font-family="Times,serif" font-size="11.00">276</text>
<text text-anchor="middle" x="100" y="-70.7" font-family="Times,serif" font-size="11.00">d=9</text>
<polyline fill="none" stroke="black" points="117,-63.5 117,-107.5 "/>
<text text-anchor="middle" x="127" y="-93.7" font-family="Times,serif" font-size="11.00"> </text>
<polyline fill="none" stroke="black" points="117,-85.5 137,-85.5 "/>
<text text-anchor="middle" x="127" y="-71.7" font-family="Times,serif" font-size="11.00"> </text>
</g>
<!-- s71&#45;&gt;s276 -->
<g id="edge1" class="edge">
<title>s71&#45;&gt;s276</title>
<path fill="none" stroke="black" d="M40.09,-85.5C49.69,-85.5 61.65,-85.5 72.89,-85.5"/>
<polygon fill="black" stroke="black" points="72.93,-89 82.93,-85.5 72.93,-82 72.93,-89"/>
<text text-anchor="middle" x="61.5" y="-89.3" font-family="Times,serif" font-style="italic" font-size="14.00">ε</text>
</g>
<!-- s274 -->
<g id="node3" class="node">
<title>s274</title>
<ellipse fill="none" stroke="black" cx="200" cy="-114.5" rx="20" ry="20"/>
<text text-anchor="middle" x="200" y="-111.7" font-family="Times,serif" font-size="11.00">274</text>
</g>
<!-- s277 -->
<g id="node6" class="node">
<title>s277</title>
<ellipse fill="none" stroke="black" cx="323" cy="-87.5" rx="20" ry="20"/>
<text text-anchor="middle" x="323" y="-90.7" font-family="Times,serif" font-size="11.00">←</text>
<text text-anchor="middle" x="323" y="-78.7" font-family="Times,serif" font-size="11.00">277</text>
</g>
<!-- s274&#45;&gt;s277 -->
<g id="edge4" class="edge">
<title>s274&#45;&gt;s277</title>
<path fill="none" stroke="black" d="M219.64,-110.34C240.1,-105.78 273.08,-98.42 296.06,-93.29"/>
<polygon fill="black" stroke="black" points="296.84,-95.62 303.14,-91.71 295.77,-90.84 296.84,-95.62"/>
<text text-anchor="middle" x="261.5" y="-108.7" font-family="Courier,monospace" font-size="11.00">&lt;ALPHA&gt;</text>
</g>
<!-- s275 -->
<g id="node4" class="node">
<title>s275</title>
<ellipse fill="none" stroke="black" cx="200" cy="-56.5" rx="20" ry="20"/>
<text text-anchor="middle" x="200" y="-53.7" font-family="Times,serif" font-size="11.00">275</text>
</g>
<!-- s275&#45;&gt;s277 -->
<g id="edge5" class="edge">
<title>s275&#45;&gt;s277</title>
<path fill="none" stroke="black" d="M219.64,-61.28C240.22,-66.55 273.47,-75.07 296.46,-80.96"/>
<polygon fill="black" stroke="black" points="296.15,-83.41 303.54,-82.77 297.36,-78.66 296.15,-83.41"/>
<text text-anchor="middle" x="261.5" y="-79.7" font-family="Courier,monospace" font-size="11.00">&#39;_&#39;</text>
</g>
<!-- s276&#45;&gt;s274 -->
<g id="edge2" class="edge">
<title>s276:p0&#45;&gt;s274</title>
<path fill="none" stroke="black" d="M137,-96.5C148.72,-96.5 161.21,-99.5 171.89,-103.06"/>
<polygon fill="black" stroke="black" points="170.89,-106.42 181.48,-106.55 173.29,-99.84 170.89,-106.42"/>
<text text-anchor="middle" x="158.5" y="-103.3" font-family="Times,serif" font-style="italic" font-size="14.00">ε</text>
</g>
<!-- s276&#45;&gt;s275 -->
<g id="edge3" class="edge">
<title>s276:p1&#45;&gt;s275</title>
<path fill="none" stroke="black" d="M137,-74.5C148.72,-74.5 161.21,-71.5 171.89,-67.94"/>
<polygon fill="black" stroke="black" points="173.29,-71.16 181.48,-64.45 170.89,-64.58 173.29,-71.16"/>
<text text-anchor="middle" x="158.5" y="-76.3" font-family="Times,serif" font-style="italic" font-size="14.00">ε</text>
</g>
<!-- s283 -->
<g id="node12" class="node">
<title>s283</title>
<polygon fill="none" stroke="black" points="386,-67.5 386,-107.5 444,-107.5 444,-67.5 386,-67.5"/>
<text text-anchor="middle" x="405.5" y="-90.7" font-family="Times,serif" font-size="11.00">283*</text>
<text text-anchor="middle" x="405.5" y="-78.7" font-family="Times,serif" font-size="11.00">d=11</text>
<polyline fill="none" stroke="black" points="425,-67.5 425,-107.5 "/>
<text text-anchor="middle" x="434.5" y="-94.7" font-family="Times,serif" font-size="11.00"> </text>
<polyline fill="none" stroke="black" points="425,-87.5 444,-87.5 "/>
<text text-anchor="middle" x="434.5" y="-74.7" font-family="Times,serif" font-size="11.00"> </text>
</g>
<!-- s277&#45;&gt;s283 -->
<g id="edge6" class="edge">
<title>s277&#45;&gt;s283</title>
<path fill="none" stroke="black" d="M343.09,-87.5C352.57,-87.5 364.38,-87.5 375.62,-87.5"/>
<polygon fill="black" stroke="black" points="375.71,-91 385.71,-87.5 375.71,-84 375.71,-91"/>
<text text-anchor="middle" x="364.5" y="-91.3" font-family="Times,serif" font-style="italic" font-size="14.00">ε</text>
</g>
<!-- s278 -->
<g id="node7" class="node">
<title>s278</title>
<ellipse fill="none" stroke="black" cx="613.5" cy="-256.5" rx="20" ry="20"/>
<text text-anchor="middle" x="613.5" y="-253.7" font-family="Times,serif" font-size="11.00">278</text>
</g>
<!-- s282 -->
<g id="node11" class="node">
<title>s282</title>
<ellipse fill="none" stroke="black" cx="742" cy="-163.5" rx="20" ry="20"/>
<text text-anchor="middle" x="742" y="-166.7" font-family="Times,serif" font-size="11.00">←</text>
<text text-anchor="middle" x="742" y="-154.7" font-family="Times,serif" font-size="11.00">282</text>
</g>
<!-- s278&#45;&gt;s282 -->
<g id="edge13" class="edge">
<title>s278&#45;&gt;s282</title>
<path fill="none" stroke="black" d="M631.48,-247.72C650.12,-237.71 680.5,-220.3 704,-201.5 710.61,-196.21 717.24,-189.83 723.02,-183.81"/>
<polygon fill="black" stroke="black" points="725.07,-185.21 728.07,-178.43 721.49,-181.86 725.07,-185.21"/>
<text text-anchor="middle" x="680.5" y="-234.7" font-family="Courier,monospace" font-size="11.00">&lt;ALPHA&gt;</text>
</g>
<!-- s279 -->
<g id="node8" class="node">
<title>s279</title>
<ellipse fill="none" stroke="black" cx="613.5" cy="-198.5" rx="20" ry="20"/>
<text text-anchor="middle" x="613.5" y="-195.7" font-family="Times,serif" font-size="11.00">279</text>
</g>
<!-- s279&#45;&gt;s282 -->
<g id="edge14" class="edge">
<title>s279&#45;&gt;s282</title>
<path fill="none" stroke="black" d="M632.89,-193.41C654.72,-187.37 691.24,-177.27 715.71,-170.5"/>
<polygon fill="black" stroke="black" points="716.49,-172.82 722.58,-168.6 715.18,-168.1 716.49,-172.82"/>
<text text-anchor="middle" x="680.5" y="-188.7" font-family="Courier,monospace" font-size="11.00">&lt;DIGIT&gt;</text>
</g>
<!-- s280 -->
<g id="node9" class="node">
<title>s280</title>
<ellipse fill="none" stroke="black" cx="613.5" cy="-140.5" rx="20" ry="20"/>
<text text-anchor="middle" x="613.5" y="-137.7" font-family="Times,serif" font-size="11.00">280</text>
</g>
<!-- s280&#45;&gt;s282 -->
<g id="edge15" class="edge">
<title>s280&#45;&gt;s282</title>
<path fill="none" stroke="black" d="M633.44,-143.94C655.05,-147.87 690.53,-154.32 714.79,-158.73"/>
<polygon fill="black" stroke="black" points="714.61,-161.19 721.93,-160.03 715.48,-156.37 714.61,-161.19"/>
<text text-anchor="middle" x="680.5" y="-159.7" font-family="Courier,monospace" font-size="11.00">&#39;_&#39;</text>
</g>
<!-- s281 -->
<g id="node10" class="node">
<title>s281</title>
<polygon fill="none" stroke="black" points="487,-149.5 487,-209.5 545,-209.5 545,-149.5 487,-149.5"/>
<text text-anchor="middle" x="506.5" y="-188.7" font-family="Times,serif" font-size="11.00">→</text>
<text text-anchor="middle" x="506.5" y="-176.7" font-family="Times,serif" font-size="11.00">281*</text>
<text text-anchor="middle" x="506.5" y="-164.7" font-family="Times,serif" font-size="11.00">d=10</text>
<polyline fill="none" stroke="black" points="526,-149.5 526,-209.5 "/>
<text text-anchor="middle" x="535.5" y="-196.7" font-family="Times,serif" font-size="11.00"> </text>
<polyline fill="none" stroke="black" points="526,-189.5 545,-189.5 "/>
<text text-anchor="middle" x="535.5" y="-176.7" font-family="Times,serif" font-size="11.00"> </text>
<polyline fill="none" stroke="black" points="526,-169.5 545,-169.5 "/>
<text text-anchor="middle" x="535.5" y="-156.7" font-family="Times,serif" font-size="11.00"> </text>
</g>
<!-- s281&#45;&gt;s278 -->
<g id="edge9" class="edge">
<title>s281:p0&#45;&gt;s278</title>
<path fill="none" stroke="black" d="M536,-210.5C536,-233.65 562.04,-245.44 583.73,-251.25"/>
<polygon fill="black" stroke="black" points="583.05,-254.69 593.59,-253.58 584.66,-247.88 583.05,-254.69"/>
<text text-anchor="middle" x="566.5" y="-250.3" font-family="Times,serif" font-style="italic" font-size="14.00">ε</text>
</g>
<!-- s281&#45;&gt;s279 -->
<g id="edge10" class="edge">
<title>s281:p1&#45;&gt;s279</title>
<path fill="none" stroke="black" d="M545,-179.5C558.6,-179.5 573.19,-183.12 585.31,-187.2"/>
<polygon fill="black" stroke="black" points="584.24,-190.53 594.83,-190.66 586.63,-183.95 584.24,-190.53"/>
<text text-anchor="middle" x="566.5" y="-186.3" font-family="Times,serif" font-style="italic" font-size="14.00">ε</text>
</g>
<!-- s281&#45;&gt;s280 -->
<g id="edge11" class="edge">
<title>s281:p2&#45;&gt;s280</title>
<path fill="none" stroke="black" d="M545,-159.5C558.6,-159.5 573.19,-155.88 585.31,-151.8"/>
<polygon fill="black" stroke="black" points="586.63,-155.05 594.83,-148.34 584.24,-148.47 586.63,-155.05"/>
<text text-anchor="middle" x="566.5" y="-161.3" font-family="Times,serif" font-style="italic" font-size="14.00">ε</text>
</g>
<!-- s285 -->
<g id="node14" class="node">
<title>s285</title>
<ellipse fill="none" stroke="black" cx="825" cy="-103.5" rx="20" ry="20"/>
<text text-anchor="middle" x="825" y="-100.7" font-family="Times,serif" font-size="11.00">285*</text>
</g>
<!-- s282&#45;&gt;s285 -->
<g id="edge16" class="edge">
<title>s282&#45;&gt;s285</title>
<path fill="none" stroke="black" d="M758.62,-151.93C770.38,-143.22 786.72,-131.11 800.13,-121.18"/>
<polygon fill="black" stroke="black" points="802.48,-123.8 808.43,-115.03 798.31,-118.17 802.48,-123.8"/>
<text text-anchor="middle" x="783.5" y="-138.3" font-family="Times,serif" font-style="italic" font-size="14.00">ε</text>
</g>
<!-- s283&#45;&gt;s281 -->
<g id="edge7" class="edge">
<title>s283:p0&#45;&gt;s281</title>
<path fill="none" stroke="black" d="M435,-108.5C435,-133.25 456.68,-151.47 477.47,-163.26"/>
<polygon fill="black" stroke="black" points="476.09,-166.49 486.57,-168.07 479.36,-160.3 476.09,-166.49"/>
<text text-anchor="middle" x="465.5" y="-160.3" font-family="Times,serif" font-style="italic" font-size="14.00">ε</text>
</g>
<!-- s284 -->
<g id="node13" class="node">
<title>s284</title>
<ellipse fill="none" stroke="black" cx="516" cy="-32.5" rx="20" ry="20"/>
<text text-anchor="middle" x="516" y="-29.7" font-family="Times,serif" font-size="11.00">284</text>
</g>
<!-- s283&#45;&gt;s284 -->
<g id="edge8" class="edge">
<title>s283:p1&#45;&gt;s284</title>
<path fill="none" stroke="black" d="M435,-66.5C435,-43.73 462.79,-35.99 485.62,-33.47"/>
<polygon fill="black" stroke="black" points="485.95,-36.96 495.63,-32.65 485.38,-29.98 485.95,-36.96"/>
<text text-anchor="middle" x="465.5" y="-42.3" font-family="Times,serif" font-style="italic" font-size="14.00">ε</text>
</g>
<!-- s284&#45;&gt;s72 -->
<g id="edge12" class="edge">
<title>s284&#45;&gt;s72</title>
<path fill="none" stroke="black" d="M536.33,-31.08C548.14,-30.22 563.6,-29.08 577.51,-28.06"/>
<polygon fill="black" stroke="black" points="578.03,-31.54 587.75,-27.31 577.52,-24.55 578.03,-31.54"/>
<text text-anchor="middle" x="566.5" y="-33.3" font-family="Times,serif" font-style="italic" font-size="14.00">ε</text>
</g>
<!-- s285&#45;&gt;s283 -->
<g id="edge17" class="edge">
<title>s285&#45;&gt;s283</title>
<path fill="none" stroke="black" stroke-dasharray="5,2" d="M805.54,-97.72C789.26,-93.14 764.79,-87.5 743,-87.5 515,-87.5 515,-87.5 515,-87.5 494.94,-87.5 472.58,-87.5 454.2,-87.5"/>
<polygon fill="black" stroke="black" points="454.16,-84 444.16,-87.5 454.16,-91 454.16,-84"/>
<text text-anchor="middle" x="613.5" y="-91.3" font-family="Times,serif" font-style="italic" font-size="14.00">ε</text>
</g>
</g>
</svg>
