<?xml version="1.0" encoding="UTF-8" standalone="no"?>
<!DOCTYPE svg PUBLIC "-//W3C//DTD SVG 1.1//EN"
 "http://www.w3.org/Graphics/SVG/1.1/DTD/svg11.dtd">
<!-- Generated by graphviz version 2.49.0 (20210828.1703)
 -->
<!-- Title: ATN Pages: 1 -->
<svg width="801pt" height="59pt"
 viewBox="0.00 0.00 801.00 59.00" xmlns="http://www.w3.org/2000/svg" xmlns:xlink="http://www.w3.org/1999/xlink">
<g id="graph0" class="graph" transform="scale(1 1) rotate(0) translate(4 55)">
<title>ATN</title>
<polygon fill="white" stroke="transparent" points="-4,4 -4,-55 797,-55 797,4 -4,4"/>
<!-- s58 -->
<g id="node1" class="node">
<title>s58</title>
<ellipse fill="none" stroke="black" cx="767.5" cy="-25.5" rx="21.5" ry="21.5"/>
<ellipse fill="none" stroke="black" cx="767.5" cy="-25.5" rx="25.5" ry="25.5"/>
<text text-anchor="middle" x="767.5" y="-22.7" font-family="Times,serif" font-size="11.00">58</text>
</g>
<!-- s224 -->
<g id="node2" class="node">
<title>s224</title>
<ellipse fill="none" stroke="black" cx="583" cy="-25.5" rx="20" ry="20"/>
<text text-anchor="middle" x="583" y="-22.7" font-family="Times,serif" font-size="11.00">224</text>
</g>
<!-- s225 -->
<g id="node3" class="node">
<title>s225</title>
<ellipse fill="none" stroke="black" cx="679" cy="-25.5" rx="20" ry="20"/>
<text text-anchor="middle" x="679" y="-22.7" font-family="Times,serif" font-size="11.00">225</text>
</g>
<!-- s224&#45;&gt;s225 -->
<g id="edge7" class="edge">
<title>s224&#45;&gt;s225</title>
<path fill="none" stroke="black" d="M603.02,-25.5C616.95,-25.5 636.02,-25.5 651.44,-25.5"/>
<polygon fill="black" stroke="black" points="651.68,-27.95 658.68,-25.5 651.68,-23.05 651.68,-27.95"/>
<text text-anchor="middle" x="631" y="-28.7" font-family="Courier,monospace" font-size="11.00">&lt;S&gt;</text>
</g>
<!-- s225&#45;&gt;s58 -->
<g id="edge8" class="edge">
<title>s225&#45;&gt;s58</title>
<path fill="none" stroke="black" d="M699.2,-25.5C708.7,-25.5 720.48,-25.5 731.51,-25.5"/>
<polygon fill="black" stroke="black" points="731.76,-29 741.76,-25.5 731.76,-22 731.76,-29"/>
<text text-anchor="middle" x="720.5" y="-29.3" font-family="Times,serif" font-style="italic" font-size="14.00">ε</text>
</g>
<!-- s57 -->
<g id="node4" class="node">
<title>s57</title>
<ellipse fill="none" stroke="black" cx="20" cy="-25.5" rx="20" ry="20"/>
<text text-anchor="middle" x="20" y="-22.7" font-family="Times,serif" font-size="11.00">57</text>
</g>
<!-- s219 -->
<g id="node5" class="node">
<title>s219</title>
<ellipse fill="none" stroke="black" cx="103" cy="-25.5" rx="20" ry="20"/>
<text text-anchor="middle" x="103" y="-22.7" font-family="Times,serif" font-size="11.00">219</text>
</g>
<!-- s57&#45;&gt;s219 -->
<g id="edge1" class="edge">
<title>s57&#45;&gt;s219</title>
<path fill="none" stroke="black" d="M40.2,-25.5C49.88,-25.5 61.84,-25.5 72.64,-25.5"/>
<polygon fill="black" stroke="black" points="72.94,-29 82.94,-25.5 72.94,-22 72.94,-29"/>
<text text-anchor="middle" x="61.5" y="-29.3" font-family="Times,serif" font-style="italic" font-size="14.00">ε</text>
</g>
<!-- s220 -->
<g id="node6" class="node">
<title>s220</title>
<ellipse fill="none" stroke="black" cx="199" cy="-25.5" rx="20" ry="20"/>
<text text-anchor="middle" x="199" y="-22.7" font-family="Times,serif" font-size="11.00">220</text>
</g>
<!-- s219&#45;&gt;s220 -->
<g id="edge2" class="edge">
<title>s219&#45;&gt;s220</title>
<path fill="none" stroke="black" d="M123.02,-25.5C136.95,-25.5 156.02,-25.5 171.44,-25.5"/>
<polygon fill="black" stroke="black" points="171.68,-27.95 178.68,-25.5 171.68,-23.05 171.68,-27.95"/>
<text text-anchor="middle" x="151" y="-28.7" font-family="Courier,monospace" font-size="11.00">&lt;T&gt;</text>
</g>
<!-- s221 -->
<g id="node7" class="node">
<title>s221</title>
<ellipse fill="none" stroke="black" cx="295" cy="-25.5" rx="20" ry="20"/>
<text text-anchor="middle" x="295" y="-22.7" font-family="Times,serif" font-size="11.00">221</text>
</g>
<!-- s220&#45;&gt;s221 -->
<g id="edge3" class="edge">
<title>s220&#45;&gt;s221</title>
<path fill="none" stroke="black" d="M219.02,-25.5C232.95,-25.5 252.02,-25.5 267.44,-25.5"/>
<polygon fill="black" stroke="black" points="267.68,-27.95 274.68,-25.5 267.68,-23.05 267.68,-27.95"/>
<text text-anchor="middle" x="247" y="-28.7" font-family="Courier,monospace" font-size="11.00">&lt;O&gt;</text>
</g>
<!-- s222 -->
<g id="node8" class="node">
<title>s222</title>
<ellipse fill="none" stroke="black" cx="391" cy="-25.5" rx="20" ry="20"/>
<text text-anchor="middle" x="391" y="-22.7" font-family="Times,serif" font-size="11.00">222</text>
</g>
<!-- s221&#45;&gt;s222 -->
<g id="edge4" class="edge">
<title>s221&#45;&gt;s222</title>
<path fill="none" stroke="black" d="M315.02,-25.5C328.95,-25.5 348.02,-25.5 363.44,-25.5"/>
<polygon fill="black" stroke="black" points="363.68,-27.95 370.68,-25.5 363.68,-23.05 363.68,-27.95"/>
<text text-anchor="middle" x="343" y="-28.7" font-family="Courier,monospace" font-size="11.00">&lt;K&gt;</text>
</g>
<!-- s223 -->
<g id="node9" class="node">
<title>s223</title>
<ellipse fill="none" stroke="black" cx="487" cy="-25.5" rx="20" ry="20"/>
<text text-anchor="middle" x="487" y="-22.7" font-family="Times,serif" font-size="11.00">223</text>
</g>
<!-- s222&#45;&gt;s223 -->
<g id="edge5" class="edge">
<title>s222&#45;&gt;s223</title>
<path fill="none" stroke="black" d="M411.02,-25.5C424.95,-25.5 444.02,-25.5 459.44,-25.5"/>
<polygon fill="black" stroke="black" points="459.68,-27.95 466.68,-25.5 459.68,-23.05 459.68,-27.95"/>
<text text-anchor="middle" x="439" y="-28.7" font-family="Courier,monospace" font-size="11.00">&lt;E&gt;</text>
</g>
<!-- s223&#45;&gt;s224 -->
<g id="edge6" class="edge">
<title>s223&#45;&gt;s224</title>
<path fill="none" stroke="black" d="M507.02,-25.5C520.95,-25.5 540.02,-25.5 555.44,-25.5"/>
<polygon fill="black" stroke="black" points="555.68,-27.95 562.68,-25.5 555.68,-23.05 555.68,-27.95"/>
<text text-anchor="middle" x="535" y="-28.7" font-family="Courier,monospace" font-size="11.00">&lt;N&gt;</text>
</g>
</g>
</svg>
