<?xml version="1.0" encoding="UTF-8" standalone="no"?>
<!DOCTYPE svg PUBLIC "-//W3C//DTD SVG 1.1//EN"
 "http://www.w3.org/Graphics/SVG/1.1/DTD/svg11.dtd">
<!-- Generated by graphviz version 2.49.0 (20210828.1703)
 -->
<!-- Title: ATN Pages: 1 -->
<svg width="609pt" height="59pt"
 viewBox="0.00 0.00 609.00 59.00" xmlns="http://www.w3.org/2000/svg" xmlns:xlink="http://www.w3.org/1999/xlink">
<g id="graph0" class="graph" transform="scale(1 1) rotate(0) translate(4 55)">
<title>ATN</title>
<polygon fill="white" stroke="transparent" points="-4,4 -4,-55 605,-55 605,4 -4,4"/>
<!-- s50 -->
<g id="node1" class="node">
<title>s50</title>
<ellipse fill="none" stroke="black" cx="575.5" cy="-25.5" rx="21.5" ry="21.5"/>
<ellipse fill="none" stroke="black" cx="575.5" cy="-25.5" rx="25.5" ry="25.5"/>
<text text-anchor="middle" x="575.5" y="-22.7" font-family="Times,serif" font-size="11.00">50</text>
</g>
<!-- s49 -->
<g id="node2" class="node">
<title>s49</title>
<ellipse fill="none" stroke="black" cx="20" cy="-25.5" rx="20" ry="20"/>
<text text-anchor="middle" x="20" y="-22.7" font-family="Times,serif" font-size="11.00">49</text>
</g>
<!-- s196 -->
<g id="node3" class="node">
<title>s196</title>
<ellipse fill="none" stroke="black" cx="103" cy="-25.5" rx="20" ry="20"/>
<text text-anchor="middle" x="103" y="-22.7" font-family="Times,serif" font-size="11.00">196</text>
</g>
<!-- s49&#45;&gt;s196 -->
<g id="edge1" class="edge">
<title>s49&#45;&gt;s196</title>
<path fill="none" stroke="black" d="M40.2,-25.5C49.88,-25.5 61.84,-25.5 72.64,-25.5"/>
<polygon fill="black" stroke="black" points="72.94,-29 82.94,-25.5 72.94,-22 72.94,-29"/>
<text text-anchor="middle" x="61.5" y="-29.3" font-family="Times,serif" font-style="italic" font-size="14.00">ε</text>
</g>
<!-- s197 -->
<g id="node4" class="node">
<title>s197</title>
<ellipse fill="none" stroke="black" cx="199" cy="-25.5" rx="20" ry="20"/>
<text text-anchor="middle" x="199" y="-22.7" font-family="Times,serif" font-size="11.00">197</text>
</g>
<!-- s196&#45;&gt;s197 -->
<g id="edge2" class="edge">
<title>s196&#45;&gt;s197</title>
<path fill="none" stroke="black" d="M123.02,-25.5C136.95,-25.5 156.02,-25.5 171.44,-25.5"/>
<polygon fill="black" stroke="black" points="171.68,-27.95 178.68,-25.5 171.68,-23.05 171.68,-27.95"/>
<text text-anchor="middle" x="151" y="-28.7" font-family="Courier,monospace" font-size="11.00">&lt;V&gt;</text>
</g>
<!-- s198 -->
<g id="node5" class="node">
<title>s198</title>
<ellipse fill="none" stroke="black" cx="295" cy="-25.5" rx="20" ry="20"/>
<text text-anchor="middle" x="295" y="-22.7" font-family="Times,serif" font-size="11.00">198</text>
</g>
<!-- s197&#45;&gt;s198 -->
<g id="edge3" class="edge">
<title>s197&#45;&gt;s198</title>
<path fill="none" stroke="black" d="M219.02,-25.5C232.95,-25.5 252.02,-25.5 267.44,-25.5"/>
<polygon fill="black" stroke="black" points="267.68,-27.95 274.68,-25.5 267.68,-23.05 267.68,-27.95"/>
<text text-anchor="middle" x="247" y="-28.7" font-family="Courier,monospace" font-size="11.00">&lt;A&gt;</text>
</g>
<!-- s199 -->
<g id="node6" class="node">
<title>s199</title>
<ellipse fill="none" stroke="black" cx="391" cy="-25.5" rx="20" ry="20"/>
<text text-anchor="middle" x="391" y="-22.7" font-family="Times,serif" font-size="11.00">199</text>
</g>
<!-- s198&#45;&gt;s199 -->
<g id="edge4" class="edge">
<title>s198&#45;&gt;s199</title>
<path fill="none" stroke="black" d="M315.02,-25.5C328.95,-25.5 348.02,-25.5 363.44,-25.5"/>
<polygon fill="black" stroke="black" points="363.68,-27.95 370.68,-25.5 363.68,-23.05 363.68,-27.95"/>
<text text-anchor="middle" x="343" y="-28.7" font-family="Courier,monospace" font-size="11.00">&lt;R&gt;</text>
</g>
<!-- s200 -->
<g id="node7" class="node">
<title>s200</title>
<ellipse fill="none" stroke="black" cx="487" cy="-25.5" rx="20" ry="20"/>
<text text-anchor="middle" x="487" y="-22.7" font-family="Times,serif" font-size="11.00">200</text>
</g>
<!-- s199&#45;&gt;s200 -->
<g id="edge5" class="edge">
<title>s199&#45;&gt;s200</title>
<path fill="none" stroke="black" d="M411.02,-25.5C424.95,-25.5 444.02,-25.5 459.44,-25.5"/>
<polygon fill="black" stroke="black" points="459.68,-27.95 466.68,-25.5 459.68,-23.05 459.68,-27.95"/>
<text text-anchor="middle" x="439" y="-28.7" font-family="Courier,monospace" font-size="11.00">&lt;S&gt;</text>
</g>
<!-- s200&#45;&gt;s50 -->
<g id="edge6" class="edge">
<title>s200&#45;&gt;s50</title>
<path fill="none" stroke="black" d="M507.2,-25.5C516.7,-25.5 528.48,-25.5 539.51,-25.5"/>
<polygon fill="black" stroke="black" points="539.76,-29 549.76,-25.5 539.76,-22 539.76,-29"/>
<text text-anchor="middle" x="528.5" y="-29.3" font-family="Times,serif" font-style="italic" font-size="14.00">ε</text>
</g>
</g>
</svg>
