<?xml version="1.0" encoding="UTF-8" standalone="no"?>
<!DOCTYPE svg PUBLIC "-//W3C//DTD SVG 1.1//EN"
 "http://www.w3.org/Graphics/SVG/1.1/DTD/svg11.dtd">
<!-- Generated by graphviz version 2.49.0 (20210828.1703)
 -->
<!-- Title: ATN Pages: 1 -->
<svg width="918pt" height="163pt"
 viewBox="0.00 0.00 918.00 162.50" xmlns="http://www.w3.org/2000/svg" xmlns:xlink="http://www.w3.org/1999/xlink">
<g id="graph0" class="graph" transform="scale(1 1) rotate(0) translate(4 158.5)">
<title>ATN</title>
<polygon fill="white" stroke="transparent" points="-4,4 -4,-158.5 914,-158.5 914,4 -4,4"/>
<!-- s70 -->
<g id="node1" class="node">
<title>s70</title>
<ellipse fill="none" stroke="black" cx="884.5" cy="-129" rx="21.5" ry="21.5"/>
<ellipse fill="none" stroke="black" cx="884.5" cy="-129" rx="25.5" ry="25.5"/>
<text text-anchor="middle" x="884.5" y="-126.2" font-family="Times,serif" font-size="11.00">70</text>
</g>
<!-- s69 -->
<g id="node2" class="node">
<title>s69</title>
<ellipse fill="none" stroke="black" cx="20" cy="-76" rx="20" ry="20"/>
<text text-anchor="middle" x="20" y="-73.2" font-family="Times,serif" font-size="11.00">69</text>
</g>
<!-- s263 -->
<g id="node3" class="node">
<title>s263</title>
<ellipse fill="none" stroke="black" cx="103" cy="-76" rx="20" ry="20"/>
<text text-anchor="middle" x="103" y="-73.2" font-family="Times,serif" font-size="11.00">263</text>
</g>
<!-- s69&#45;&gt;s263 -->
<g id="edge1" class="edge">
<title>s69&#45;&gt;s263</title>
<path fill="none" stroke="black" d="M40.2,-76C49.88,-76 61.84,-76 72.64,-76"/>
<polygon fill="black" stroke="black" points="72.94,-79.5 82.94,-76 72.94,-72.5 72.94,-79.5"/>
<text text-anchor="middle" x="61.5" y="-79.8" font-family="Times,serif" font-style="italic" font-size="14.00">ε</text>
</g>
<!-- s267 -->
<g id="node7" class="node">
<title>s267</title>
<polygon fill="none" stroke="black" points="179,-56 179,-96 236,-96 236,-56 179,-56"/>
<text text-anchor="middle" x="198" y="-79.2" font-family="Times,serif" font-size="11.00">267*</text>
<text text-anchor="middle" x="198" y="-67.2" font-family="Times,serif" font-size="11.00">d=8</text>
<polyline fill="none" stroke="black" points="217,-56 217,-96 "/>
<text text-anchor="middle" x="226.5" y="-83.2" font-family="Times,serif" font-size="11.00"> </text>
<polyline fill="none" stroke="black" points="217,-76 236,-76 "/>
<text text-anchor="middle" x="226.5" y="-63.2" font-family="Times,serif" font-size="11.00"> </text>
</g>
<!-- s263&#45;&gt;s267 -->
<g id="edge2" class="edge">
<title>s263&#45;&gt;s267</title>
<path fill="none" stroke="black" d="M123.28,-76C136.86,-76 155.42,-76 171.57,-76"/>
<polygon fill="black" stroke="black" points="171.79,-78.45 178.79,-76 171.79,-73.55 171.79,-78.45"/>
<text text-anchor="middle" x="151" y="-79.2" font-family="Courier,monospace" font-size="11.00">&#39;&#39;&#39;</text>
</g>
<!-- s264 -->
<g id="node4" class="node">
<title>s264</title>
<ellipse fill="none" stroke="black" cx="382" cy="-20" rx="20" ry="20"/>
<text text-anchor="middle" x="382" y="-17.2" font-family="Times,serif" font-size="11.00">264</text>
</g>
<!-- s266 -->
<g id="node6" class="node">
<title>s266</title>
<ellipse fill="none" stroke="black" cx="564" cy="-26" rx="20" ry="20"/>
<text text-anchor="middle" x="564" y="-29.2" font-family="Times,serif" font-size="11.00">←</text>
<text text-anchor="middle" x="564" y="-17.2" font-family="Times,serif" font-size="11.00">266</text>
</g>
<!-- s264&#45;&gt;s266 -->
<g id="edge8" class="edge">
<title>s264&#45;&gt;s266</title>
<path fill="none" stroke="black" d="M402.26,-20.64C434.61,-21.72 499.88,-23.9 536.51,-25.12"/>
<polygon fill="black" stroke="black" points="536.8,-27.58 543.88,-25.36 536.96,-22.68 536.8,-27.58"/>
<text text-anchor="middle" x="473" y="-28.2" font-family="Courier,monospace" font-size="11.00">&lt;STRING_CONTENT&gt;</text>
</g>
<!-- s265 -->
<g id="node5" class="node">
<title>s265</title>
<ellipse fill="none" stroke="black" cx="299" cy="-26" rx="20" ry="20"/>
<text text-anchor="middle" x="299" y="-29.2" font-family="Times,serif" font-size="11.00">→</text>
<text text-anchor="middle" x="299" y="-17.2" font-family="Times,serif" font-size="11.00">265*</text>
</g>
<!-- s265&#45;&gt;s264 -->
<g id="edge6" class="edge">
<title>s265&#45;&gt;s264</title>
<path fill="none" stroke="black" d="M319.2,-24.58C328.88,-23.86 340.84,-22.98 351.64,-22.17"/>
<polygon fill="black" stroke="black" points="352.23,-25.64 361.94,-21.41 351.71,-18.66 352.23,-25.64"/>
<text text-anchor="middle" x="340.5" y="-27.8" font-family="Times,serif" font-style="italic" font-size="14.00">ε</text>
</g>
<!-- s269 -->
<g id="node9" class="node">
<title>s269</title>
<ellipse fill="none" stroke="black" cx="647" cy="-59" rx="20" ry="20"/>
<text text-anchor="middle" x="647" y="-56.2" font-family="Times,serif" font-size="11.00">269*</text>
</g>
<!-- s266&#45;&gt;s269 -->
<g id="edge10" class="edge">
<title>s266&#45;&gt;s269</title>
<path fill="none" stroke="black" d="M582.98,-33.32C593.46,-37.6 606.9,-43.07 618.68,-47.87"/>
<polygon fill="black" stroke="black" points="617.49,-51.16 628.07,-51.7 620.13,-44.68 617.49,-51.16"/>
<text text-anchor="middle" x="605.5" y="-47.8" font-family="Times,serif" font-style="italic" font-size="14.00">ε</text>
</g>
<!-- s267&#45;&gt;s265 -->
<g id="edge4" class="edge">
<title>s267:p1&#45;&gt;s265</title>
<path fill="none" stroke="black" d="M226.5,-55C226.5,-35.81 248.89,-29.02 268.61,-26.75"/>
<polygon fill="black" stroke="black" points="269.15,-30.22 278.84,-25.93 268.59,-23.24 269.15,-30.22"/>
<text text-anchor="middle" x="257.5" y="-32.8" font-family="Times,serif" font-style="italic" font-size="14.00">ε</text>
</g>
<!-- s268 -->
<g id="node8" class="node">
<title>s268</title>
<ellipse fill="none" stroke="black" cx="299" cy="-125" rx="20" ry="20"/>
<text text-anchor="middle" x="299" y="-122.2" font-family="Times,serif" font-size="11.00">268</text>
</g>
<!-- s267&#45;&gt;s268 -->
<g id="edge3" class="edge">
<title>s267:p0&#45;&gt;s268</title>
<path fill="none" stroke="black" d="M226.5,-97C226.5,-116.1 248.89,-122.59 268.61,-124.6"/>
<polygon fill="black" stroke="black" points="268.62,-128.11 278.84,-125.3 269.1,-121.13 268.62,-128.11"/>
<text text-anchor="middle" x="257.5" y="-126.8" font-family="Times,serif" font-style="italic" font-size="14.00">ε</text>
</g>
<!-- s270 -->
<g id="node10" class="node">
<title>s270</title>
<ellipse fill="none" stroke="black" cx="382" cy="-129" rx="20" ry="20"/>
<text text-anchor="middle" x="382" y="-126.2" font-family="Times,serif" font-size="11.00">270</text>
</g>
<!-- s268&#45;&gt;s270 -->
<g id="edge5" class="edge">
<title>s268&#45;&gt;s270</title>
<path fill="none" stroke="black" d="M319.2,-125.95C328.88,-126.43 340.84,-127.02 351.64,-127.55"/>
<polygon fill="black" stroke="black" points="351.78,-131.06 361.94,-128.06 352.13,-124.07 351.78,-131.06"/>
<text text-anchor="middle" x="340.5" y="-130.8" font-family="Times,serif" font-style="italic" font-size="14.00">ε</text>
</g>
<!-- s269&#45;&gt;s267 -->
<g id="edge12" class="edge">
<title>s269&#45;&gt;s267</title>
<path fill="none" stroke="black" stroke-dasharray="5,2" d="M627.89,-65.04C611.62,-69.93 586.98,-76 565,-76 298,-76 298,-76 298,-76 281.05,-76 262.29,-76 246.34,-76"/>
<polygon fill="black" stroke="black" points="246.32,-72.5 236.32,-76 246.32,-79.5 246.32,-72.5"/>
<text text-anchor="middle" x="382" y="-79.8" font-family="Times,serif" font-style="italic" font-size="14.00">ε</text>
</g>
<!-- s271 -->
<g id="node11" class="node">
<title>s271</title>
<ellipse fill="none" stroke="black" cx="564" cy="-129" rx="20" ry="20"/>
<text text-anchor="middle" x="564" y="-126.2" font-family="Times,serif" font-size="11.00">271</text>
</g>
<!-- s270&#45;&gt;s271 -->
<g id="edge7" class="edge">
<title>s270&#45;&gt;s271</title>
<path fill="none" stroke="black" d="M402.26,-129C434.61,-129 499.88,-129 536.51,-129"/>
<polygon fill="black" stroke="black" points="536.88,-131.45 543.88,-129 536.88,-126.55 536.88,-131.45"/>
<text text-anchor="middle" x="473" y="-132.2" font-family="Courier,monospace" font-size="11.00">&#39;&#39;&#39;</text>
</g>
<!-- s272 -->
<g id="node12" class="node">
<title>s272</title>
<ellipse fill="none" stroke="black" cx="647" cy="-129" rx="20" ry="20"/>
<text text-anchor="middle" x="647" y="-126.2" font-family="Times,serif" font-size="11.00">272</text>
</g>
<!-- s271&#45;&gt;s272 -->
<g id="edge9" class="edge">
<title>s271&#45;&gt;s272</title>
<path fill="none" stroke="black" d="M584.2,-129C593.88,-129 605.84,-129 616.64,-129"/>
<polygon fill="black" stroke="black" points="616.94,-132.5 626.94,-129 616.94,-125.5 616.94,-132.5"/>
<text text-anchor="middle" x="605.5" y="-132.8" font-family="Times,serif" font-style="italic" font-size="14.00">ε</text>
</g>
<!-- s273 -->
<g id="node13" class="node">
<title>s273</title>
<ellipse fill="none" stroke="black" cx="796" cy="-129" rx="20" ry="20"/>
<text text-anchor="middle" x="796" y="-126.2" font-family="Times,serif" font-size="11.00">273</text>
</g>
<!-- s272&#45;&gt;s273 -->
<g id="edge11" class="edge">
<title>s272&#45;&gt;s273</title>
<path fill="none" stroke="black" d="M667.22,-129C693.19,-129 739.59,-129 768.76,-129"/>
<polygon fill="black" stroke="black" points="768.78,-131.45 775.78,-129 768.78,-126.55 768.78,-131.45"/>
<text text-anchor="middle" x="721.5" y="-132.2" font-family="Courier,monospace" font-size="11.00">action_34:0</text>
</g>
<!-- s273&#45;&gt;s70 -->
<g id="edge13" class="edge">
<title>s273&#45;&gt;s70</title>
<path fill="none" stroke="black" d="M816.2,-129C825.7,-129 837.48,-129 848.51,-129"/>
<polygon fill="black" stroke="black" points="848.76,-132.5 858.76,-129 848.76,-125.5 848.76,-132.5"/>
<text text-anchor="middle" x="837.5" y="-132.8" font-family="Times,serif" font-style="italic" font-size="14.00">ε</text>
</g>
</g>
</svg>
