<?xml version="1.0" encoding="UTF-8" standalone="no"?>
<!DOCTYPE svg PUBLIC "-//W3C//DTD SVG 1.1//EN"
 "http://www.w3.org/Graphics/SVG/1.1/DTD/svg11.dtd">
<!-- Generated by graphviz version 2.49.0 (20210828.1703)
 -->
<!-- Title: ATN Pages: 1 -->
<svg width="434pt" height="59pt"
 viewBox="0.00 0.00 434.00 59.00" xmlns="http://www.w3.org/2000/svg" xmlns:xlink="http://www.w3.org/1999/xlink">
<g id="graph0" class="graph" transform="scale(1 1) rotate(0) translate(4 55)">
<title>ATN</title>
<polygon fill="white" stroke="transparent" points="-4,4 -4,-55 430,-55 430,4 -4,4"/>
<!-- s62 -->
<g id="node1" class="node">
<title>s62</title>
<ellipse fill="none" stroke="black" cx="400.5" cy="-25.5" rx="21.5" ry="21.5"/>
<ellipse fill="none" stroke="black" cx="400.5" cy="-25.5" rx="25.5" ry="25.5"/>
<text text-anchor="middle" x="400.5" y="-22.7" font-family="Times,serif" font-size="11.00">62</text>
</g>
<!-- s228 -->
<g id="node2" class="node">
<title>s228</title>
<ellipse fill="none" stroke="black" cx="103" cy="-25.5" rx="20" ry="20"/>
<text text-anchor="middle" x="103" y="-22.7" font-family="Times,serif" font-size="11.00">228</text>
</g>
<!-- s229 -->
<g id="node3" class="node">
<title>s229</title>
<ellipse fill="none" stroke="black" cx="312" cy="-25.5" rx="20" ry="20"/>
<text text-anchor="middle" x="312" y="-22.7" font-family="Times,serif" font-size="11.00">229</text>
</g>
<!-- s228&#45;&gt;s229 -->
<g id="edge2" class="edge">
<title>s228&#45;&gt;s229</title>
<path fill="none" stroke="black" d="M123.1,-25.5C160.3,-25.5 242.51,-25.5 284.78,-25.5"/>
<polygon fill="black" stroke="black" points="284.94,-27.95 291.94,-25.5 284.94,-23.05 284.94,-27.95"/>
<text text-anchor="middle" x="207.5" y="-28.7" font-family="Courier,monospace" font-size="11.00">{&#39;A&#39;..&#39;Z&#39;, &#39;a&#39;..&#39;z&#39;}</text>
</g>
<!-- s229&#45;&gt;s62 -->
<g id="edge3" class="edge">
<title>s229&#45;&gt;s62</title>
<path fill="none" stroke="black" d="M332.2,-25.5C341.7,-25.5 353.48,-25.5 364.51,-25.5"/>
<polygon fill="black" stroke="black" points="364.76,-29 374.76,-25.5 364.76,-22 364.76,-29"/>
<text text-anchor="middle" x="353.5" y="-29.3" font-family="Times,serif" font-style="italic" font-size="14.00">ε</text>
</g>
<!-- s61 -->
<g id="node4" class="node">
<title>s61</title>
<ellipse fill="none" stroke="black" cx="20" cy="-25.5" rx="20" ry="20"/>
<text text-anchor="middle" x="20" y="-22.7" font-family="Times,serif" font-size="11.00">61</text>
</g>
<!-- s61&#45;&gt;s228 -->
<g id="edge1" class="edge">
<title>s61&#45;&gt;s228</title>
<path fill="none" stroke="black" d="M40.2,-25.5C49.88,-25.5 61.84,-25.5 72.64,-25.5"/>
<polygon fill="black" stroke="black" points="72.94,-29 82.94,-25.5 72.94,-22 72.94,-29"/>
<text text-anchor="middle" x="61.5" y="-29.3" font-family="Times,serif" font-style="italic" font-size="14.00">ε</text>
</g>
</g>
</svg>
