<?xml version="1.0" encoding="UTF-8" standalone="no"?>
<!DOCTYPE svg PUBLIC "-//W3C//DTD SVG 1.1//EN"
 "http://www.w3.org/Graphics/SVG/1.1/DTD/svg11.dtd">
<!-- Generated by graphviz version 2.49.0 (20210828.1703)
 -->
<!-- Title: ATN Pages: 1 -->
<svg width="568pt" height="164pt"
 viewBox="0.00 0.00 568.00 164.00" xmlns="http://www.w3.org/2000/svg" xmlns:xlink="http://www.w3.org/1999/xlink">
<g id="graph0" class="graph" transform="scale(1 1) rotate(0) translate(4 160)">
<title>ATN</title>
<polygon fill="white" stroke="transparent" points="-4,4 -4,-160 564,-160 564,4 -4,4"/>
<!-- s76 -->
<g id="node1" class="node">
<title>s76</title>
<ellipse fill="none" stroke="black" cx="534.5" cy="-78" rx="21.5" ry="21.5"/>
<ellipse fill="none" stroke="black" cx="534.5" cy="-78" rx="25.5" ry="25.5"/>
<text text-anchor="middle" x="534.5" y="-75.2" font-family="Times,serif" font-size="11.00">76</text>
</g>
<!-- s304 -->
<g id="node2" class="node">
<title>s304</title>
<ellipse fill="none" stroke="black" cx="121" cy="-68" rx="20" ry="20"/>
<text text-anchor="middle" x="121" y="-65.2" font-family="Times,serif" font-size="11.00">304</text>
</g>
<!-- s305 -->
<g id="node3" class="node">
<title>s305</title>
<ellipse fill="none" stroke="black" cx="204" cy="-68" rx="20" ry="20"/>
<text text-anchor="middle" x="204" y="-65.2" font-family="Times,serif" font-size="11.00">305</text>
</g>
<!-- s304&#45;&gt;s305 -->
<g id="edge7" class="edge">
<title>s304&#45;&gt;s305</title>
<path fill="none" stroke="black" d="M141.2,-68C150.88,-68 162.84,-68 173.64,-68"/>
<polygon fill="black" stroke="black" points="173.94,-71.5 183.94,-68 173.94,-64.5 173.94,-71.5"/>
<text text-anchor="middle" x="162.5" y="-71.8" font-family="Times,serif" font-style="italic" font-size="14.00">ε</text>
</g>
<!-- s306 -->
<g id="node4" class="node">
<title>s306</title>
<ellipse fill="none" stroke="black" cx="446" cy="-78" rx="20" ry="20"/>
<text text-anchor="middle" x="446" y="-75.2" font-family="Times,serif" font-size="11.00">306</text>
</g>
<!-- s305&#45;&gt;s306 -->
<g id="edge8" class="edge">
<title>s305&#45;&gt;s306</title>
<path fill="none" stroke="black" d="M224.23,-68.8C267.08,-70.59 370.43,-74.89 418.98,-76.92"/>
<polygon fill="black" stroke="black" points="418.91,-79.36 426.01,-77.21 419.12,-74.47 418.91,-79.36"/>
<text text-anchor="middle" x="325" y="-80.2" font-family="Courier,monospace" font-size="11.00">action_37:1</text>
</g>
<!-- s306&#45;&gt;s76 -->
<g id="edge9" class="edge">
<title>s306&#45;&gt;s76</title>
<path fill="none" stroke="black" d="M466.2,-78C475.7,-78 487.48,-78 498.51,-78"/>
<polygon fill="black" stroke="black" points="498.76,-81.5 508.76,-78 498.76,-74.5 498.76,-81.5"/>
<text text-anchor="middle" x="487.5" y="-81.8" font-family="Times,serif" font-style="italic" font-size="14.00">ε</text>
</g>
<!-- s75 -->
<g id="node5" class="node">
<title>s75</title>
<ellipse fill="none" stroke="black" cx="29" cy="-136" rx="20" ry="20"/>
<text text-anchor="middle" x="29" y="-133.2" font-family="Times,serif" font-size="11.00">75</text>
</g>
<!-- s301 -->
<g id="node7" class="node">
<title>s301</title>
<ellipse fill="none" stroke="black" cx="121" cy="-126" rx="20" ry="20"/>
<text text-anchor="middle" x="121" y="-129.2" font-family="Times,serif" font-size="11.00">→</text>
<text text-anchor="middle" x="121" y="-117.2" font-family="Times,serif" font-size="11.00">301+</text>
</g>
<!-- s75&#45;&gt;s301 -->
<g id="edge1" class="edge">
<title>s75&#45;&gt;s301</title>
<path fill="none" stroke="black" d="M49.09,-133.88C61.26,-132.53 77.26,-130.75 90.99,-129.22"/>
<polygon fill="black" stroke="black" points="91.39,-132.7 100.94,-128.12 90.62,-125.74 91.39,-132.7"/>
<text text-anchor="middle" x="79.5" y="-133.8" font-family="Times,serif" font-style="italic" font-size="14.00">ε</text>
</g>
<!-- s300 -->
<g id="node6" class="node">
<title>s300</title>
<ellipse fill="none" stroke="black" cx="204" cy="-126" rx="20" ry="20"/>
<text text-anchor="middle" x="204" y="-123.2" font-family="Times,serif" font-size="11.00">300</text>
</g>
<!-- s302 -->
<g id="node8" class="node">
<title>s302</title>
<ellipse fill="none" stroke="black" cx="446" cy="-20" rx="20" ry="20"/>
<text text-anchor="middle" x="446" y="-23.2" font-family="Times,serif" font-size="11.00">←</text>
<text text-anchor="middle" x="446" y="-11.2" font-family="Times,serif" font-size="11.00">302</text>
</g>
<!-- s300&#45;&gt;s302 -->
<g id="edge3" class="edge">
<title>s300&#45;&gt;s302</title>
<path fill="none" stroke="black" d="M223.9,-128.56C262.87,-132.74 353.08,-136.67 408,-93 424.54,-79.85 416.17,-67.7 426,-49 427.22,-46.68 428.58,-44.31 429.98,-41.97"/>
<polygon fill="black" stroke="black" points="432.13,-43.16 433.78,-35.93 427.98,-40.55 432.13,-43.16"/>
<text text-anchor="middle" x="325" y="-133.2" font-family="Courier,monospace" font-size="11.00">{&#39;	&#39;..&#39;\n&#39;, &#39;&#39;, &#39; &#39;}</text>
</g>
<!-- s301&#45;&gt;s300 -->
<g id="edge2" class="edge">
<title>s301&#45;&gt;s300</title>
<path fill="none" stroke="black" d="M141.2,-126C150.88,-126 162.84,-126 173.64,-126"/>
<polygon fill="black" stroke="black" points="173.94,-129.5 183.94,-126 173.94,-122.5 173.94,-129.5"/>
<text text-anchor="middle" x="162.5" y="-129.8" font-family="Times,serif" font-style="italic" font-size="14.00">ε</text>
</g>
<!-- s303 -->
<g id="node9" class="node">
<title>s303</title>
<polygon fill="none" stroke="black" points="0,-50 0,-90 58,-90 58,-50 0,-50"/>
<text text-anchor="middle" x="19.5" y="-73.2" font-family="Times,serif" font-size="11.00">303+</text>
<text text-anchor="middle" x="19.5" y="-61.2" font-family="Times,serif" font-size="11.00">d=14</text>
<polyline fill="none" stroke="black" points="39,-50 39,-90 "/>
<text text-anchor="middle" x="48.5" y="-77.2" font-family="Times,serif" font-size="11.00"> </text>
<polyline fill="none" stroke="black" points="39,-70 58,-70 "/>
<text text-anchor="middle" x="48.5" y="-57.2" font-family="Times,serif" font-size="11.00"> </text>
</g>
<!-- s302&#45;&gt;s303 -->
<g id="edge4" class="edge">
<title>s302&#45;&gt;s303</title>
<path fill="none" stroke="black" d="M426.02,-18.72C373.48,-15.67 222.04,-10.22 101,-39 89.78,-41.67 78.11,-46.03 67.55,-50.64"/>
<polygon fill="black" stroke="black" points="65.85,-47.57 58.21,-54.92 68.76,-53.94 65.85,-47.57"/>
<text text-anchor="middle" x="162.5" y="-31.8" font-family="Times,serif" font-style="italic" font-size="14.00">ε</text>
</g>
<!-- s303&#45;&gt;s304 -->
<g id="edge6" class="edge">
<title>s303:p1&#45;&gt;s304</title>
<path fill="none" stroke="black" d="M58,-60C69.12,-60 71.95,-59.74 83,-61 85.71,-61.31 88.51,-61.7 91.32,-62.15"/>
<polygon fill="black" stroke="black" points="90.8,-65.61 101.26,-63.9 92.02,-58.72 90.8,-65.61"/>
<text text-anchor="middle" x="79.5" y="-64.8" font-family="Times,serif" font-style="italic" font-size="14.00">ε</text>
</g>
<!-- s303&#45;&gt;s301 -->
<g id="edge5" class="edge">
<title>s303:p0&#45;&gt;s301</title>
<path fill="none" stroke="black" stroke-dasharray="5,2" d="M58,-80C74.88,-80 90.16,-91.13 101.32,-102.44"/>
<polygon fill="black" stroke="black" points="99.04,-105.14 108.36,-110.17 104.21,-100.42 99.04,-105.14"/>
<text text-anchor="middle" x="79.5" y="-89.8" font-family="Times,serif" font-style="italic" font-size="14.00">ε</text>
</g>
</g>
</svg>
